<mxfile host="app.diagrams.net" modified="2021-11-30T12:26:03.701Z" agent="5.0 (Windows NT 10.0; Win64; x64) AppleWebKit/537.36 (KHTML, like Gecko) Chrome/96.0.4664.45 Safari/537.36" etag="hW0tJBA6cV-dUZbnI5-9" version="15.8.7" type="github" pages="4">
  <diagram name="RevG_NewスマNWU静的構造_完全版" id="GGY5ZKee5J4tztuzEWEi">
    <mxGraphModel dx="3197" dy="2417" grid="1" gridSize="10" guides="1" tooltips="1" connect="1" arrows="1" fold="1" page="1" pageScale="1" pageWidth="827" pageHeight="1169" math="0" shadow="0">
      <root>
        <mxCell id="WA64RrP8hwPyqQoOAJvi-0" />
        <mxCell id="WA64RrP8hwPyqQoOAJvi-1" parent="WA64RrP8hwPyqQoOAJvi-0" />
        <mxCell id="WA64RrP8hwPyqQoOAJvi-109" value="" style="rounded=0;whiteSpace=wrap;html=1;fillColor=none;dashed=1;strokeColor=default;fontColor=default;" parent="WA64RrP8hwPyqQoOAJvi-1" vertex="1">
          <mxGeometry x="1230" y="-40" width="360" height="870" as="geometry" />
        </mxCell>
        <mxCell id="WA64RrP8hwPyqQoOAJvi-3" value="" style="rounded=0;whiteSpace=wrap;html=1;fillColor=#d5e8d4;fontSize=19;strokeColor=none;gradientColor=#97d077;fontColor=default;" parent="WA64RrP8hwPyqQoOAJvi-1" vertex="1">
          <mxGeometry x="520" y="830" width="1070" height="210" as="geometry" />
        </mxCell>
        <mxCell id="WA64RrP8hwPyqQoOAJvi-8" value="" style="rounded=0;whiteSpace=wrap;html=1;fillColor=none;fontSize=19;strokeColor=default;fontColor=default;" parent="WA64RrP8hwPyqQoOAJvi-1" vertex="1">
          <mxGeometry x="-720" y="1040" width="2310" height="240" as="geometry" />
        </mxCell>
        <mxCell id="WA64RrP8hwPyqQoOAJvi-2" value="" style="rounded=0;whiteSpace=wrap;html=1;fillColor=#ffe6cc;fontSize=19;strokeColor=default;fontColor=default;" parent="WA64RrP8hwPyqQoOAJvi-1" vertex="1">
          <mxGeometry x="-720" y="830" width="1240" height="210" as="geometry" />
        </mxCell>
        <mxCell id="WA64RrP8hwPyqQoOAJvi-4" value="" style="rounded=0;whiteSpace=wrap;html=1;fillColor=#ffe6cc;fontSize=19;strokeColor=default;fontColor=default;" parent="WA64RrP8hwPyqQoOAJvi-1" vertex="1">
          <mxGeometry x="-720" y="10" width="2310" height="820" as="geometry" />
        </mxCell>
        <mxCell id="WA64RrP8hwPyqQoOAJvi-5" value="" style="rounded=0;whiteSpace=wrap;html=1;fillColor=none;fontSize=19;strokeColor=default;fontColor=default;" parent="WA64RrP8hwPyqQoOAJvi-1" vertex="1">
          <mxGeometry x="1230" y="10" width="120" height="820" as="geometry" />
        </mxCell>
        <mxCell id="WA64RrP8hwPyqQoOAJvi-6" value="" style="rounded=0;whiteSpace=wrap;html=1;fillColor=none;fontSize=19;" parent="WA64RrP8hwPyqQoOAJvi-1" vertex="1">
          <mxGeometry x="-720" y="10" width="1950" height="440" as="geometry" />
        </mxCell>
        <mxCell id="WA64RrP8hwPyqQoOAJvi-7" value="" style="rounded=0;whiteSpace=wrap;html=1;fillColor=none;fontSize=19;strokeColor=default;fontColor=default;" parent="WA64RrP8hwPyqQoOAJvi-1" vertex="1">
          <mxGeometry x="-720" y="450" width="1950" height="380" as="geometry" />
        </mxCell>
        <mxCell id="WA64RrP8hwPyqQoOAJvi-9" value="" style="rounded=0;whiteSpace=wrap;html=1;fillColor=none;fontSize=19;strokeColor=default;fontColor=default;" parent="WA64RrP8hwPyqQoOAJvi-1" vertex="1">
          <mxGeometry x="-720" y="830" width="2310" height="210" as="geometry" />
        </mxCell>
        <mxCell id="WA64RrP8hwPyqQoOAJvi-11" value="" style="rounded=0;whiteSpace=wrap;html=1;fillColor=none;fontSize=19;" parent="WA64RrP8hwPyqQoOAJvi-1" vertex="1">
          <mxGeometry x="-610" y="920" width="1840" as="geometry" />
        </mxCell>
        <mxCell id="WA64RrP8hwPyqQoOAJvi-13" style="edgeStyle=none;rounded=0;orthogonalLoop=1;jettySize=auto;html=1;endArrow=none;endFill=0;entryX=0.5;entryY=0;entryDx=0;entryDy=0;strokeColor=#B3B3B3;" parent="WA64RrP8hwPyqQoOAJvi-1" source="WA64RrP8hwPyqQoOAJvi-16" target="WA64RrP8hwPyqQoOAJvi-92" edge="1">
          <mxGeometry relative="1" as="geometry">
            <mxPoint x="660" y="730" as="targetPoint" />
          </mxGeometry>
        </mxCell>
        <mxCell id="WA64RrP8hwPyqQoOAJvi-14" value="&lt;font color=&quot;#ff0000&quot; style=&quot;font-size: 13px&quot;&gt;LED制御&lt;/font&gt;" style="edgeStyle=none;rounded=0;orthogonalLoop=1;jettySize=auto;html=1;entryX=0.5;entryY=0;entryDx=0;entryDy=0;fontSize=15;fontColor=#CC0000;endArrow=none;endFill=0;strokeColor=#000000;exitX=0.5;exitY=1;exitDx=0;exitDy=0;labelBackgroundColor=default;" parent="WA64RrP8hwPyqQoOAJvi-1" source="WA64RrP8hwPyqQoOAJvi-16" target="cE08UZ1Xvqvv4ngUlUgD-2" edge="1">
          <mxGeometry relative="1" as="geometry" />
        </mxCell>
        <mxCell id="WA64RrP8hwPyqQoOAJvi-15" style="rounded=0;orthogonalLoop=1;jettySize=auto;html=1;endArrow=none;endFill=0;strokeColor=default;labelBackgroundColor=default;fontColor=default;" parent="WA64RrP8hwPyqQoOAJvi-1" target="WA64RrP8hwPyqQoOAJvi-19" edge="1">
          <mxGeometry relative="1" as="geometry">
            <mxPoint x="-410" y="280" as="sourcePoint" />
          </mxGeometry>
        </mxCell>
        <mxCell id="TR7CPrV_6TkN9dDBGlcq-0" value="&lt;font color=&quot;#ff0000&quot; style=&quot;font-size: 13px&quot;&gt;バックアップデータ&lt;/font&gt;" style="edgeStyle=none;rounded=0;orthogonalLoop=1;jettySize=auto;html=1;entryX=0;entryY=0.25;entryDx=0;entryDy=0;labelBackgroundColor=default;fontSize=20;fontColor=default;endArrow=none;endFill=0;strokeColor=default;" parent="WA64RrP8hwPyqQoOAJvi-1" source="WA64RrP8hwPyqQoOAJvi-16" target="WA64RrP8hwPyqQoOAJvi-25" edge="1">
          <mxGeometry relative="1" as="geometry" />
        </mxCell>
        <mxCell id="WA64RrP8hwPyqQoOAJvi-16" value="アンプ&lt;br&gt;データ制御" style="rounded=0;whiteSpace=wrap;html=1;fillColor=#f8cecc;strokeColor=#b85450;fontColor=#FF0000;fontSize=21;strokeWidth=5;" parent="WA64RrP8hwPyqQoOAJvi-1" vertex="1">
          <mxGeometry x="-469" y="220" width="120" height="60" as="geometry" />
        </mxCell>
        <mxCell id="WA64RrP8hwPyqQoOAJvi-17" style="edgeStyle=none;rounded=0;orthogonalLoop=1;jettySize=auto;html=1;entryX=0.5;entryY=0;entryDx=0;entryDy=0;endArrow=none;endFill=0;exitX=1;exitY=0.5;exitDx=0;exitDy=0;fontSize=19;strokeColor=default;labelBackgroundColor=default;fontColor=default;" parent="WA64RrP8hwPyqQoOAJvi-1" source="WA64RrP8hwPyqQoOAJvi-27" target="WA64RrP8hwPyqQoOAJvi-75" edge="1">
          <mxGeometry relative="1" as="geometry">
            <mxPoint x="830" y="367" as="sourcePoint" />
            <Array as="points">
              <mxPoint x="940" y="120" />
            </Array>
          </mxGeometry>
        </mxCell>
        <mxCell id="WA64RrP8hwPyqQoOAJvi-106" value="&lt;font style=&quot;font-size: 13px&quot;&gt;アンプ設定&lt;/font&gt;" style="edgeLabel;html=1;align=center;verticalAlign=middle;resizable=0;points=[];fontColor=#FF0000;labelBackgroundColor=default;" parent="WA64RrP8hwPyqQoOAJvi-17" vertex="1" connectable="0">
          <mxGeometry x="-0.2536" y="2" relative="1" as="geometry">
            <mxPoint y="1" as="offset" />
          </mxGeometry>
        </mxCell>
        <mxCell id="WA64RrP8hwPyqQoOAJvi-18" value="UnitMgr&lt;br style=&quot;font-size: 19px&quot;&gt;ユニット管理&lt;br&gt;データ制御" style="rounded=0;whiteSpace=wrap;html=1;fillColor=#dae8fc;strokeColor=#6c8ebf;fontSize=19;strokeWidth=5;fontColor=default;" parent="WA64RrP8hwPyqQoOAJvi-1" vertex="1">
          <mxGeometry x="327" y="170" width="140" height="60" as="geometry" />
        </mxCell>
        <mxCell id="WA64RrP8hwPyqQoOAJvi-19" value="StatusMgr&lt;br style=&quot;font-size: 19px&quot;&gt;状態管理" style="rounded=0;whiteSpace=wrap;html=1;fillColor=#dae8fc;strokeColor=#6c8ebf;fontSize=19;fontColor=default;" parent="WA64RrP8hwPyqQoOAJvi-1" vertex="1">
          <mxGeometry x="-250" y="580" width="120" height="60" as="geometry" />
        </mxCell>
        <mxCell id="WA64RrP8hwPyqQoOAJvi-20" style="edgeStyle=none;rounded=0;orthogonalLoop=1;jettySize=auto;html=1;entryX=0.5;entryY=0;entryDx=0;entryDy=0;endArrow=none;endFill=0;exitX=0.5;exitY=1;exitDx=0;exitDy=0;strokeColor=#B3B3B3;" parent="WA64RrP8hwPyqQoOAJvi-1" source="WA64RrP8hwPyqQoOAJvi-97" target="WA64RrP8hwPyqQoOAJvi-92" edge="1">
          <mxGeometry relative="1" as="geometry" />
        </mxCell>
        <mxCell id="WA64RrP8hwPyqQoOAJvi-21" style="edgeStyle=none;rounded=0;orthogonalLoop=1;jettySize=auto;html=1;entryX=1;entryY=0.5;entryDx=0;entryDy=0;endArrow=none;endFill=0;strokeColor=#B3B3B3;startArrow=none;" parent="WA64RrP8hwPyqQoOAJvi-1" source="WA64RrP8hwPyqQoOAJvi-75" target="WA64RrP8hwPyqQoOAJvi-92" edge="1">
          <mxGeometry relative="1" as="geometry" />
        </mxCell>
        <mxCell id="WA64RrP8hwPyqQoOAJvi-22" value="&lt;font style=&quot;font-size: 13px&quot;&gt;アンプ設定&lt;/font&gt;" style="edgeStyle=none;rounded=0;orthogonalLoop=1;jettySize=auto;html=1;exitX=0.5;exitY=0;exitDx=0;exitDy=0;entryX=1;entryY=0.5;entryDx=0;entryDy=0;fontSize=15;fontColor=#FF0000;endArrow=none;endFill=0;strokeColor=#000000;labelBackgroundColor=default;" parent="WA64RrP8hwPyqQoOAJvi-1" source="WA64RrP8hwPyqQoOAJvi-23" target="WA64RrP8hwPyqQoOAJvi-27" edge="1">
          <mxGeometry x="0.1884" y="-9" relative="1" as="geometry">
            <mxPoint as="offset" />
            <Array as="points">
              <mxPoint x="1040" y="100" />
            </Array>
          </mxGeometry>
        </mxCell>
        <mxCell id="TR7CPrV_6TkN9dDBGlcq-4" style="edgeStyle=none;rounded=0;orthogonalLoop=1;jettySize=auto;html=1;entryX=0.5;entryY=1;entryDx=0;entryDy=0;labelBackgroundColor=default;fontSize=13;fontColor=default;endArrow=none;endFill=0;strokeColor=default;exitX=0.5;exitY=0;exitDx=0;exitDy=0;" parent="WA64RrP8hwPyqQoOAJvi-1" source="WA64RrP8hwPyqQoOAJvi-23" target="WA64RrP8hwPyqQoOAJvi-97" edge="1">
          <mxGeometry relative="1" as="geometry" />
        </mxCell>
        <mxCell id="WA64RrP8hwPyqQoOAJvi-23" value="EM&lt;br style=&quot;font-size: 19px;&quot;&gt;EMコマンド解析" style="rounded=0;whiteSpace=wrap;html=1;fillColor=#fff2cc;strokeColor=#d6b656;fontSize=19;strokeWidth=5;fontColor=default;" parent="WA64RrP8hwPyqQoOAJvi-1" vertex="1">
          <mxGeometry x="1090" y="380" width="120" height="60" as="geometry" />
        </mxCell>
        <mxCell id="WA64RrP8hwPyqQoOAJvi-24" value="SDAI" style="rounded=0;whiteSpace=wrap;html=1;fillColor=#ffe6cc;strokeColor=#d79b00;fontSize=19;fontColor=default;" parent="WA64RrP8hwPyqQoOAJvi-1" vertex="1">
          <mxGeometry x="910" y="965.5" width="120" height="35" as="geometry" />
        </mxCell>
        <mxCell id="WA64RrP8hwPyqQoOAJvi-25" value="Storage&lt;br style=&quot;font-size: 19px&quot;&gt;不揮発データ保存" style="rounded=0;whiteSpace=wrap;html=1;fillColor=#dae8fc;strokeColor=#6c8ebf;fontSize=19;strokeWidth=5;fontColor=default;" parent="WA64RrP8hwPyqQoOAJvi-1" vertex="1">
          <mxGeometry x="337" y="580" width="120" height="60" as="geometry" />
        </mxCell>
        <mxCell id="WA64RrP8hwPyqQoOAJvi-26" style="rounded=0;orthogonalLoop=1;jettySize=auto;html=1;entryX=0.5;entryY=0;entryDx=0;entryDy=0;fontSize=13;fontColor=#CC0000;strokeColor=#000000;endArrow=none;endFill=0;exitX=0.5;exitY=1;exitDx=0;exitDy=0;" parent="WA64RrP8hwPyqQoOAJvi-1" source="WA64RrP8hwPyqQoOAJvi-27" target="WA64RrP8hwPyqQoOAJvi-95" edge="1">
          <mxGeometry relative="1" as="geometry" />
        </mxCell>
        <mxCell id="WA64RrP8hwPyqQoOAJvi-27" value="UnitScheduler&lt;br style=&quot;font-size: 19px;&quot;&gt;ジョブ管理" style="rounded=0;whiteSpace=wrap;html=1;fillColor=#dae8fc;strokeColor=#6c8ebf;fontSize=19;strokeWidth=5;" parent="WA64RrP8hwPyqQoOAJvi-1" vertex="1">
          <mxGeometry x="337" y="20" width="120" height="60" as="geometry" />
        </mxCell>
        <mxCell id="WA64RrP8hwPyqQoOAJvi-28" value="" style="endArrow=none;html=1;entryX=0;entryY=0.5;entryDx=0;entryDy=0;endFill=0;exitX=0.5;exitY=0;exitDx=0;exitDy=0;fontSize=19;" parent="WA64RrP8hwPyqQoOAJvi-1" source="WA64RrP8hwPyqQoOAJvi-93" target="WA64RrP8hwPyqQoOAJvi-27" edge="1">
          <mxGeometry width="50" height="50" relative="1" as="geometry">
            <mxPoint x="300.00000000000045" y="170" as="sourcePoint" />
            <mxPoint x="600" y="367" as="targetPoint" />
          </mxGeometry>
        </mxCell>
        <mxCell id="WA64RrP8hwPyqQoOAJvi-29" value="" style="endArrow=none;html=1;entryX=0.5;entryY=0;entryDx=0;entryDy=0;endFill=0;fontSize=19;strokeColor=#B3B3B3;exitX=1;exitY=0.5;exitDx=0;exitDy=0;" parent="WA64RrP8hwPyqQoOAJvi-1" source="WA64RrP8hwPyqQoOAJvi-93" target="WA64RrP8hwPyqQoOAJvi-97" edge="1">
          <mxGeometry width="50" height="50" relative="1" as="geometry">
            <mxPoint x="300" y="220" as="sourcePoint" />
            <mxPoint x="364" y="297" as="targetPoint" />
          </mxGeometry>
        </mxCell>
        <mxCell id="WA64RrP8hwPyqQoOAJvi-30" style="edgeStyle=none;rounded=0;orthogonalLoop=1;jettySize=auto;html=1;entryX=1;entryY=0.5;entryDx=0;entryDy=0;endArrow=none;endFill=0;strokeColor=#B3B3B3;" parent="WA64RrP8hwPyqQoOAJvi-1" source="WA64RrP8hwPyqQoOAJvi-99" target="WA64RrP8hwPyqQoOAJvi-92" edge="1">
          <mxGeometry relative="1" as="geometry" />
        </mxCell>
        <mxCell id="WA64RrP8hwPyqQoOAJvi-31" style="edgeStyle=none;rounded=0;orthogonalLoop=1;jettySize=auto;html=1;endArrow=none;endFill=0;fontSize=19;" parent="WA64RrP8hwPyqQoOAJvi-1" source="WA64RrP8hwPyqQoOAJvi-32" target="WA64RrP8hwPyqQoOAJvi-70" edge="1">
          <mxGeometry relative="1" as="geometry" />
        </mxCell>
        <mxCell id="WA64RrP8hwPyqQoOAJvi-32" value="NVS(EEPROM)&lt;br style=&quot;font-size: 19px;&quot;&gt;ドライバ" style="rounded=0;whiteSpace=wrap;html=1;fontSize=19;" parent="WA64RrP8hwPyqQoOAJvi-1" vertex="1">
          <mxGeometry x="322" y="953" width="150" height="60" as="geometry" />
        </mxCell>
        <mxCell id="WA64RrP8hwPyqQoOAJvi-33" value="" style="endArrow=none;html=1;endFill=0;fontSize=19;" parent="WA64RrP8hwPyqQoOAJvi-1" source="WA64RrP8hwPyqQoOAJvi-25" target="WA64RrP8hwPyqQoOAJvi-32" edge="1">
          <mxGeometry width="50" height="50" relative="1" as="geometry">
            <mxPoint x="77" y="290" as="sourcePoint" />
            <mxPoint x="359.03999999999996" y="572.98" as="targetPoint" />
          </mxGeometry>
        </mxCell>
        <mxCell id="WA64RrP8hwPyqQoOAJvi-34" value="&lt;font style=&quot;font-size: 13px&quot;&gt;設定データ&lt;/font&gt;" style="edgeLabel;html=1;align=center;verticalAlign=middle;resizable=0;points=[];fontColor=#FF0000;fontSize=19;" parent="WA64RrP8hwPyqQoOAJvi-33" vertex="1" connectable="0">
          <mxGeometry x="0.1476" y="5" relative="1" as="geometry">
            <mxPoint x="-3.869999999999999" y="-3.5500000000000007" as="offset" />
          </mxGeometry>
        </mxCell>
        <mxCell id="WA64RrP8hwPyqQoOAJvi-35" value="&lt;font style=&quot;font-size: 13px&quot;&gt;通信設定データ&lt;br&gt;後段処理設定データ&lt;br&gt;&lt;/font&gt;" style="endArrow=none;html=1;entryX=0.5;entryY=1;entryDx=0;entryDy=0;endFill=0;fontSize=19;exitX=0.5;exitY=0;exitDx=0;exitDy=0;fontColor=#FF0000;labelBackgroundColor=default;strokeColor=default;" parent="WA64RrP8hwPyqQoOAJvi-1" source="WA64RrP8hwPyqQoOAJvi-25" target="WA64RrP8hwPyqQoOAJvi-18" edge="1">
          <mxGeometry x="0.2" width="50" height="50" relative="1" as="geometry">
            <mxPoint x="277" y="760" as="sourcePoint" />
            <mxPoint x="1067" y="467" as="targetPoint" />
            <mxPoint as="offset" />
          </mxGeometry>
        </mxCell>
        <mxCell id="WA64RrP8hwPyqQoOAJvi-36" value="RTOS&lt;br style=&quot;font-size: 19px;&quot;&gt;(NORTi)" style="rounded=0;whiteSpace=wrap;html=1;fillColor=#e1d5e7;strokeColor=#9673a6;fontSize=19;" parent="WA64RrP8hwPyqQoOAJvi-1" vertex="1">
          <mxGeometry x="1245" y="211.5" width="90" height="60" as="geometry" />
        </mxCell>
        <mxCell id="WA64RrP8hwPyqQoOAJvi-37" value="" style="endArrow=none;html=1;exitX=0.5;exitY=0;exitDx=0;exitDy=0;endFill=0;entryX=0.5;entryY=1;entryDx=0;entryDy=0;fontSize=19;" parent="WA64RrP8hwPyqQoOAJvi-1" source="WA64RrP8hwPyqQoOAJvi-18" target="WA64RrP8hwPyqQoOAJvi-27" edge="1">
          <mxGeometry width="50" height="50" relative="1" as="geometry">
            <mxPoint x="414" y="357" as="sourcePoint" />
            <mxPoint x="790" y="117" as="targetPoint" />
          </mxGeometry>
        </mxCell>
        <mxCell id="WA64RrP8hwPyqQoOAJvi-38" value="&lt;font style=&quot;font-size: 13px&quot;&gt;通信設定&lt;/font&gt;" style="endArrow=none;html=1;exitX=1;exitY=0.5;exitDx=0;exitDy=0;endFill=0;entryX=0.5;entryY=0;entryDx=0;entryDy=0;fontSize=19;strokeColor=default;labelBackgroundColor=default;fontColor=#FF0000;" parent="WA64RrP8hwPyqQoOAJvi-1" source="WA64RrP8hwPyqQoOAJvi-18" target="WA64RrP8hwPyqQoOAJvi-23" edge="1">
          <mxGeometry x="-0.4102" y="8" width="50" height="50" relative="1" as="geometry">
            <mxPoint x="430" y="447" as="sourcePoint" />
            <mxPoint x="710" y="727" as="targetPoint" />
            <mxPoint as="offset" />
          </mxGeometry>
        </mxCell>
        <mxCell id="WA64RrP8hwPyqQoOAJvi-39" value="" style="endArrow=none;html=1;exitX=0.5;exitY=1;exitDx=0;exitDy=0;endFill=0;entryX=0.5;entryY=0;entryDx=0;entryDy=0;fontSize=19;" parent="WA64RrP8hwPyqQoOAJvi-1" source="WA64RrP8hwPyqQoOAJvi-23" target="WA64RrP8hwPyqQoOAJvi-24" edge="1">
          <mxGeometry width="50" height="50" relative="1" as="geometry">
            <mxPoint x="430" y="410" as="sourcePoint" />
            <mxPoint x="790" y="550" as="targetPoint" />
          </mxGeometry>
        </mxCell>
        <mxCell id="WA64RrP8hwPyqQoOAJvi-40" value="" style="endArrow=none;html=1;exitX=0.75;exitY=1;exitDx=0;exitDy=0;endFill=0;entryX=0.5;entryY=0;entryDx=0;entryDy=0;fontSize=19;" parent="WA64RrP8hwPyqQoOAJvi-1" source="WA64RrP8hwPyqQoOAJvi-27" target="WA64RrP8hwPyqQoOAJvi-99" edge="1">
          <mxGeometry x="-0.2789" y="5" width="50" height="50" relative="1" as="geometry">
            <mxPoint x="790" y="647" as="sourcePoint" />
            <mxPoint x="460" y="707" as="targetPoint" />
            <mxPoint as="offset" />
          </mxGeometry>
        </mxCell>
        <mxCell id="WA64RrP8hwPyqQoOAJvi-41" value="" style="endArrow=none;html=1;exitX=0.5;exitY=1;exitDx=0;exitDy=0;endFill=0;entryX=0.5;entryY=0;entryDx=0;entryDy=0;fontSize=19;" parent="WA64RrP8hwPyqQoOAJvi-1" source="WA64RrP8hwPyqQoOAJvi-99" target="WA64RrP8hwPyqQoOAJvi-24" edge="1">
          <mxGeometry width="50" height="50" relative="1" as="geometry">
            <mxPoint x="790" y="610" as="sourcePoint" />
            <mxPoint x="1030" y="670" as="targetPoint" />
          </mxGeometry>
        </mxCell>
        <mxCell id="WA64RrP8hwPyqQoOAJvi-42" value="" style="endArrow=none;html=1;endFill=0;fontSize=19;exitX=0.25;exitY=1;exitDx=0;exitDy=0;strokeColor=default;labelBackgroundColor=default;fontColor=default;" parent="WA64RrP8hwPyqQoOAJvi-1" source="WA64RrP8hwPyqQoOAJvi-27" target="WA64RrP8hwPyqQoOAJvi-19" edge="1">
          <mxGeometry width="50" height="50" relative="1" as="geometry">
            <mxPoint x="480" y="80" as="sourcePoint" />
            <mxPoint x="1070" y="587" as="targetPoint" />
            <Array as="points">
              <mxPoint x="-180" y="240" />
            </Array>
          </mxGeometry>
        </mxCell>
        <mxCell id="WA64RrP8hwPyqQoOAJvi-43" value="" style="endArrow=none;html=1;entryX=0;entryY=0.75;entryDx=0;entryDy=0;endFill=0;fontSize=19;" parent="WA64RrP8hwPyqQoOAJvi-1" source="WA64RrP8hwPyqQoOAJvi-16" target="WA64RrP8hwPyqQoOAJvi-27" edge="1">
          <mxGeometry width="50" height="50" relative="1" as="geometry">
            <mxPoint x="340" y="277" as="sourcePoint" />
            <mxPoint x="650" y="307" as="targetPoint" />
          </mxGeometry>
        </mxCell>
        <mxCell id="WA64RrP8hwPyqQoOAJvi-44" style="edgeStyle=none;rounded=0;orthogonalLoop=1;jettySize=auto;html=1;entryX=0.5;entryY=0;entryDx=0;entryDy=0;endArrow=none;endFill=0;fontSize=19;strokeColor=default;labelBackgroundColor=default;fontColor=default;" parent="WA64RrP8hwPyqQoOAJvi-1" source="WA64RrP8hwPyqQoOAJvi-45" target="WA64RrP8hwPyqQoOAJvi-69" edge="1">
          <mxGeometry relative="1" as="geometry" />
        </mxCell>
        <mxCell id="WA64RrP8hwPyqQoOAJvi-45" value="GPIO&lt;br style=&quot;font-size: 19px;&quot;&gt;ドライバ" style="rounded=0;whiteSpace=wrap;html=1;fontSize=19;fillColor=default;strokeColor=default;fontColor=default;labelBackgroundColor=default;" parent="WA64RrP8hwPyqQoOAJvi-1" vertex="1">
          <mxGeometry x="-55" y="950.75" width="120" height="60" as="geometry" />
        </mxCell>
        <mxCell id="WA64RrP8hwPyqQoOAJvi-46" value="" style="edgeStyle=none;rounded=0;orthogonalLoop=1;jettySize=auto;html=1;endArrow=none;endFill=0;fontColor=#FF0000;fontSize=21;" parent="WA64RrP8hwPyqQoOAJvi-1" source="WA64RrP8hwPyqQoOAJvi-47" target="WA64RrP8hwPyqQoOAJvi-67" edge="1">
          <mxGeometry relative="1" as="geometry">
            <Array as="points" />
          </mxGeometry>
        </mxCell>
        <mxCell id="WA64RrP8hwPyqQoOAJvi-47" value="USART" style="rounded=0;whiteSpace=wrap;html=1;fontColor=#FF0000;fontSize=21;" parent="WA64RrP8hwPyqQoOAJvi-1" vertex="1">
          <mxGeometry x="-566.5" y="1113" width="120" height="60" as="geometry" />
        </mxCell>
        <mxCell id="WA64RrP8hwPyqQoOAJvi-48" value="" style="endArrow=none;html=1;endFill=0;fontSize=19;strokeColor=#B3B3B3;exitX=0;exitY=0.5;exitDx=0;exitDy=0;" parent="WA64RrP8hwPyqQoOAJvi-1" source="WA64RrP8hwPyqQoOAJvi-93" target="WA64RrP8hwPyqQoOAJvi-16" edge="1">
          <mxGeometry width="50" height="50" relative="1" as="geometry">
            <mxPoint x="-150" y="250" as="sourcePoint" />
            <mxPoint x="540" y="307" as="targetPoint" />
          </mxGeometry>
        </mxCell>
        <mxCell id="WA64RrP8hwPyqQoOAJvi-49" style="edgeStyle=none;rounded=0;orthogonalLoop=1;jettySize=auto;html=1;entryX=0.5;entryY=0;entryDx=0;entryDy=0;endArrow=none;endFill=0;fontSize=19;exitX=0.5;exitY=1;exitDx=0;exitDy=0;strokeColor=default;labelBackgroundColor=default;fontColor=default;" parent="WA64RrP8hwPyqQoOAJvi-1" source="WA64RrP8hwPyqQoOAJvi-24" target="WA64RrP8hwPyqQoOAJvi-71" edge="1">
          <mxGeometry relative="1" as="geometry">
            <mxPoint x="1301" y="1120" as="sourcePoint" />
          </mxGeometry>
        </mxCell>
        <mxCell id="WA64RrP8hwPyqQoOAJvi-53" value="Stack層" style="text;html=1;align=center;verticalAlign=middle;resizable=0;points=[];autosize=1;fontSize=26;fontColor=default;" parent="WA64RrP8hwPyqQoOAJvi-1" vertex="1">
          <mxGeometry x="540" y="840" width="110" height="40" as="geometry" />
        </mxCell>
        <mxCell id="WA64RrP8hwPyqQoOAJvi-54" value="Driver層" style="text;html=1;align=center;verticalAlign=middle;resizable=0;points=[];autosize=1;fontSize=26;fontColor=default;" parent="WA64RrP8hwPyqQoOAJvi-1" vertex="1">
          <mxGeometry x="-710.5" y="840" width="110" height="40" as="geometry" />
        </mxCell>
        <mxCell id="WA64RrP8hwPyqQoOAJvi-55" value="Interface層" style="text;html=1;align=center;verticalAlign=middle;resizable=0;points=[];autosize=1;fontSize=26;" parent="WA64RrP8hwPyqQoOAJvi-1" vertex="1">
          <mxGeometry x="-710.5" y="460" width="140" height="40" as="geometry" />
        </mxCell>
        <mxCell id="WA64RrP8hwPyqQoOAJvi-56" value="Application層" style="text;html=1;align=center;verticalAlign=middle;resizable=0;points=[];autosize=1;fontSize=26;" parent="WA64RrP8hwPyqQoOAJvi-1" vertex="1">
          <mxGeometry x="-713" y="15" width="170" height="40" as="geometry" />
        </mxCell>
        <mxCell id="WA64RrP8hwPyqQoOAJvi-57" style="edgeStyle=none;rounded=0;orthogonalLoop=1;jettySize=auto;html=1;entryX=0.5;entryY=0;entryDx=0;entryDy=0;endArrow=none;endFill=0;fontSize=21;" parent="WA64RrP8hwPyqQoOAJvi-1" source="WA64RrP8hwPyqQoOAJvi-59" target="WA64RrP8hwPyqQoOAJvi-61" edge="1">
          <mxGeometry relative="1" as="geometry" />
        </mxCell>
        <mxCell id="WA64RrP8hwPyqQoOAJvi-58" value="&lt;font style=&quot;font-size: 13px&quot;&gt;ロギングデータ&lt;/font&gt;" style="edgeLabel;html=1;align=center;verticalAlign=middle;resizable=0;points=[];fontColor=#FF0000;fontSize=16;labelBackgroundColor=default;" parent="WA64RrP8hwPyqQoOAJvi-57" vertex="1" connectable="0">
          <mxGeometry x="0.1181" y="1" relative="1" as="geometry">
            <mxPoint x="-1" y="35" as="offset" />
          </mxGeometry>
        </mxCell>
        <mxCell id="WA64RrP8hwPyqQoOAJvi-59" value="&lt;font style=&quot;font-size: 19px&quot;&gt;LoggingControl&lt;br&gt;ロギングデータ&lt;br&gt;制御&lt;/font&gt;" style="rounded=0;whiteSpace=wrap;html=1;fillColor=#dae8fc;strokeColor=#6c8ebf;fontSize=21;" parent="WA64RrP8hwPyqQoOAJvi-1" vertex="1">
          <mxGeometry x="97" y="560" width="150" height="80" as="geometry" />
        </mxCell>
        <mxCell id="WA64RrP8hwPyqQoOAJvi-60" style="edgeStyle=none;rounded=0;orthogonalLoop=1;jettySize=auto;html=1;endArrow=none;endFill=0;fontColor=#FF0000;fontSize=21;" parent="WA64RrP8hwPyqQoOAJvi-1" source="WA64RrP8hwPyqQoOAJvi-61" target="WA64RrP8hwPyqQoOAJvi-68" edge="1">
          <mxGeometry relative="1" as="geometry">
            <mxPoint x="281.99999999999955" y="1113.0000000000005" as="targetPoint" />
          </mxGeometry>
        </mxCell>
        <mxCell id="WA64RrP8hwPyqQoOAJvi-61" value="ロギング&lt;br&gt;ドライバ" style="rounded=0;whiteSpace=wrap;html=1;fontColor=#000000;fontSize=21;fillColor=default;strokeColor=default;" parent="WA64RrP8hwPyqQoOAJvi-1" vertex="1">
          <mxGeometry x="112" y="953" width="120" height="60" as="geometry" />
        </mxCell>
        <mxCell id="WA64RrP8hwPyqQoOAJvi-62" style="rounded=0;orthogonalLoop=1;jettySize=auto;html=1;entryX=0.5;entryY=0;entryDx=0;entryDy=0;endArrow=none;endFill=0;fontColor=#FF0000;fontSize=21;" parent="WA64RrP8hwPyqQoOAJvi-1" source="WA64RrP8hwPyqQoOAJvi-65" target="WA64RrP8hwPyqQoOAJvi-47" edge="1">
          <mxGeometry relative="1" as="geometry" />
        </mxCell>
        <mxCell id="WA64RrP8hwPyqQoOAJvi-63" style="edgeStyle=none;rounded=0;orthogonalLoop=1;jettySize=auto;html=1;endArrow=none;endFill=0;fontSize=21;" parent="WA64RrP8hwPyqQoOAJvi-1" source="WA64RrP8hwPyqQoOAJvi-65" target="WA64RrP8hwPyqQoOAJvi-76" edge="1">
          <mxGeometry relative="1" as="geometry">
            <mxPoint x="-436.5" y="690" as="targetPoint" />
          </mxGeometry>
        </mxCell>
        <mxCell id="WA64RrP8hwPyqQoOAJvi-64" value="&lt;font style=&quot;font-size: 13px&quot;&gt;センサアンプ間コマンド&lt;br&gt;アンプ間データ&lt;/font&gt;" style="edgeLabel;html=1;align=center;verticalAlign=middle;resizable=0;points=[];fontColor=#FF0000;fontSize=21;" parent="WA64RrP8hwPyqQoOAJvi-63" vertex="1" connectable="0">
          <mxGeometry x="-0.1748" y="3" relative="1" as="geometry">
            <mxPoint x="3" y="-64.67" as="offset" />
          </mxGeometry>
        </mxCell>
        <mxCell id="WA64RrP8hwPyqQoOAJvi-65" value="UART&lt;br style=&quot;font-size: 21px;&quot;&gt;ドライバ" style="rounded=0;whiteSpace=wrap;html=1;fontColor=#000000;fontSize=21;fillColor=default;strokeColor=default;" parent="WA64RrP8hwPyqQoOAJvi-1" vertex="1">
          <mxGeometry x="-566.5" y="953" width="120" height="60" as="geometry" />
        </mxCell>
        <mxCell id="WA64RrP8hwPyqQoOAJvi-66" value="Hardware" style="text;html=1;align=center;verticalAlign=middle;resizable=0;points=[];autosize=1;fontSize=26;fontColor=default;" parent="WA64RrP8hwPyqQoOAJvi-1" vertex="1">
          <mxGeometry x="-703" y="1050" width="130" height="40" as="geometry" />
        </mxCell>
        <mxCell id="WA64RrP8hwPyqQoOAJvi-67" value="RS485" style="rounded=0;whiteSpace=wrap;html=1;fontColor=#FF0000;fontSize=21;" parent="WA64RrP8hwPyqQoOAJvi-1" vertex="1">
          <mxGeometry x="-566.5" y="1203" width="120" height="60" as="geometry" />
        </mxCell>
        <mxCell id="WA64RrP8hwPyqQoOAJvi-68" value="SRAM&lt;br&gt;/SDRAM" style="rounded=0;whiteSpace=wrap;html=1;fontColor=#FF0000;fontSize=21;" parent="WA64RrP8hwPyqQoOAJvi-1" vertex="1">
          <mxGeometry x="112" y="1203" width="120" height="60" as="geometry" />
        </mxCell>
        <mxCell id="WA64RrP8hwPyqQoOAJvi-69" value="GPIO" style="rounded=0;whiteSpace=wrap;html=1;fontSize=19;fillColor=default;strokeColor=default;fontColor=default;labelBackgroundColor=default;" parent="WA64RrP8hwPyqQoOAJvi-1" vertex="1">
          <mxGeometry x="-55" y="1200.75" width="120" height="60" as="geometry" />
        </mxCell>
        <mxCell id="WA64RrP8hwPyqQoOAJvi-70" value="EEPROM" style="rounded=0;whiteSpace=wrap;html=1;fontSize=19;" parent="WA64RrP8hwPyqQoOAJvi-1" vertex="1">
          <mxGeometry x="337" y="1203" width="120" height="60" as="geometry" />
        </mxCell>
        <mxCell id="WA64RrP8hwPyqQoOAJvi-71" value="EthernetC" style="rounded=0;whiteSpace=wrap;html=1;fontSize=19;fillColor=default;strokeColor=default;fontColor=default;" parent="WA64RrP8hwPyqQoOAJvi-1" vertex="1">
          <mxGeometry x="910" y="1190" width="120" height="60" as="geometry" />
        </mxCell>
        <mxCell id="WA64RrP8hwPyqQoOAJvi-72" style="edgeStyle=none;rounded=0;orthogonalLoop=1;jettySize=auto;html=1;endArrow=none;endFill=0;entryX=0.5;entryY=0;entryDx=0;entryDy=0;fontSize=19;" parent="WA64RrP8hwPyqQoOAJvi-1" source="WA64RrP8hwPyqQoOAJvi-75" target="WA64RrP8hwPyqQoOAJvi-24" edge="1">
          <mxGeometry relative="1" as="geometry">
            <mxPoint x="1019.9999999999995" y="650" as="targetPoint" />
          </mxGeometry>
        </mxCell>
        <mxCell id="WA64RrP8hwPyqQoOAJvi-73" style="rounded=0;orthogonalLoop=1;jettySize=auto;html=1;entryX=0.5;entryY=1;entryDx=0;entryDy=0;strokeColor=#000000;fontSize=26;endArrow=none;endFill=0;exitX=0.5;exitY=0;exitDx=0;exitDy=0;labelBackgroundColor=default;fontColor=default;" parent="WA64RrP8hwPyqQoOAJvi-1" source="WA64RrP8hwPyqQoOAJvi-75" target="WA64RrP8hwPyqQoOAJvi-97" edge="1">
          <mxGeometry relative="1" as="geometry" />
        </mxCell>
        <mxCell id="WA64RrP8hwPyqQoOAJvi-74" style="edgeStyle=none;rounded=0;orthogonalLoop=1;jettySize=auto;html=1;entryX=1;entryY=0.5;entryDx=0;entryDy=0;endArrow=none;endFill=0;fontColor=#FF0000;strokeColor=#B3B3B3;" parent="WA64RrP8hwPyqQoOAJvi-1" source="WA64RrP8hwPyqQoOAJvi-75" target="WA64RrP8hwPyqQoOAJvi-92" edge="1">
          <mxGeometry relative="1" as="geometry" />
        </mxCell>
        <mxCell id="WA64RrP8hwPyqQoOAJvi-76" value="UART割り込み制御" style="rounded=0;whiteSpace=wrap;html=1;fillColor=#f8cecc;strokeColor=#b85450;fontColor=#FF0000;fontSize=21;" parent="WA64RrP8hwPyqQoOAJvi-1" vertex="1">
          <mxGeometry x="-606.5" y="581.5" width="200" height="63" as="geometry" />
        </mxCell>
        <mxCell id="WA64RrP8hwPyqQoOAJvi-78" value="HWCHK" style="rounded=0;whiteSpace=wrap;html=1;fillColor=#e1d5e7;strokeColor=#9673a6;fontSize=19;" parent="WA64RrP8hwPyqQoOAJvi-1" vertex="1">
          <mxGeometry x="1245" y="81.5" width="90" height="60" as="geometry" />
        </mxCell>
        <mxCell id="WA64RrP8hwPyqQoOAJvi-79" value="&lt;font style=&quot;font-size: 26px&quot;&gt;Top層&lt;/font&gt;" style="text;html=1;align=center;verticalAlign=middle;resizable=0;points=[];autosize=1;fontSize=19;fontColor=default;" parent="WA64RrP8hwPyqQoOAJvi-1" vertex="1">
          <mxGeometry x="1241" y="20" width="80" height="30" as="geometry" />
        </mxCell>
        <mxCell id="WA64RrP8hwPyqQoOAJvi-80" value="FW&lt;br style=&quot;font-size: 19px;&quot;&gt;アップデート" style="rounded=0;whiteSpace=wrap;html=1;fillColor=#e1d5e7;strokeColor=#9673a6;fontSize=19;fontColor=default;" parent="WA64RrP8hwPyqQoOAJvi-1" vertex="1">
          <mxGeometry x="1380" y="81.5" width="90" height="60" as="geometry" />
        </mxCell>
        <mxCell id="WA64RrP8hwPyqQoOAJvi-81" value="BOOT" style="rounded=0;whiteSpace=wrap;html=1;fillColor=#e1d5e7;strokeColor=#9673a6;fontSize=19;fontColor=default;" parent="WA64RrP8hwPyqQoOAJvi-1" vertex="1">
          <mxGeometry x="1380" y="211.5" width="90" height="60" as="geometry" />
        </mxCell>
        <mxCell id="WA64RrP8hwPyqQoOAJvi-82" value="BOOT層" style="text;html=1;align=center;verticalAlign=middle;resizable=0;points=[];autosize=1;fontSize=23;fontColor=default;" parent="WA64RrP8hwPyqQoOAJvi-1" vertex="1">
          <mxGeometry x="1375" y="20" width="100" height="30" as="geometry" />
        </mxCell>
        <mxCell id="WA64RrP8hwPyqQoOAJvi-83" style="edgeStyle=none;rounded=0;orthogonalLoop=1;jettySize=auto;html=1;entryX=0.5;entryY=0;entryDx=0;entryDy=0;endArrow=none;endFill=0;fontColor=#FF0000;fontSize=21;" parent="WA64RrP8hwPyqQoOAJvi-1" source="WA64RrP8hwPyqQoOAJvi-16" target="WA64RrP8hwPyqQoOAJvi-76" edge="1">
          <mxGeometry relative="1" as="geometry" />
        </mxCell>
        <mxCell id="WA64RrP8hwPyqQoOAJvi-84" style="edgeStyle=none;rounded=0;orthogonalLoop=1;jettySize=auto;html=1;exitX=1;exitY=0.5;exitDx=0;exitDy=0;endArrow=none;endFill=0;fontColor=#FF0000;fontSize=19;" parent="WA64RrP8hwPyqQoOAJvi-1" edge="1">
          <mxGeometry relative="1" as="geometry">
            <mxPoint x="107" y="1233" as="sourcePoint" />
            <mxPoint x="107" y="1233" as="targetPoint" />
          </mxGeometry>
        </mxCell>
        <mxCell id="WA64RrP8hwPyqQoOAJvi-86" value="&lt;font style=&quot;font-size: 13px&quot;&gt;通信設定&lt;/font&gt;" style="endArrow=none;html=1;exitX=1;exitY=0.5;exitDx=0;exitDy=0;endFill=0;entryX=0.5;entryY=0;entryDx=0;entryDy=0;fontSize=19;strokeColor=default;labelBackgroundColor=default;fontColor=#FF0000;" parent="WA64RrP8hwPyqQoOAJvi-1" source="WA64RrP8hwPyqQoOAJvi-18" target="WA64RrP8hwPyqQoOAJvi-75" edge="1">
          <mxGeometry x="-0.2432" y="-11" width="50" height="50" relative="1" as="geometry">
            <mxPoint x="690" y="357" as="sourcePoint" />
            <mxPoint x="1030" y="527" as="targetPoint" />
            <mxPoint y="-1" as="offset" />
          </mxGeometry>
        </mxCell>
        <mxCell id="WA64RrP8hwPyqQoOAJvi-87" value="&lt;font style=&quot;font-size: 13px&quot;&gt;通信設定&lt;br&gt;データクリア&lt;/font&gt;" style="endArrow=none;html=1;endFill=0;fontColor=#FF0000;fontSize=19;entryX=0.5;entryY=0;entryDx=0;entryDy=0;exitX=0.5;exitY=1;exitDx=0;exitDy=0;" parent="WA64RrP8hwPyqQoOAJvi-1" source="WA64RrP8hwPyqQoOAJvi-97" target="WA64RrP8hwPyqQoOAJvi-25" edge="1">
          <mxGeometry x="0.4675" y="-5" width="50" height="50" relative="1" as="geometry">
            <mxPoint x="640" y="510" as="sourcePoint" />
            <mxPoint x="330" y="760" as="targetPoint" />
            <mxPoint as="offset" />
          </mxGeometry>
        </mxCell>
        <mxCell id="WA64RrP8hwPyqQoOAJvi-88" value="Coretex M3&lt;br&gt;R-IN Engine" style="text;html=1;align=center;verticalAlign=middle;resizable=0;points=[];autosize=1;fontSize=26;fillColor=#d5e8d4;strokeColor=#82b366;gradientColor=#97d077;fontColor=default;" parent="WA64RrP8hwPyqQoOAJvi-1" vertex="1">
          <mxGeometry x="1420" y="840" width="160" height="70" as="geometry" />
        </mxCell>
        <mxCell id="WA64RrP8hwPyqQoOAJvi-89" value="Coretex R4" style="text;html=1;align=center;verticalAlign=middle;resizable=0;points=[];autosize=1;fontSize=26;fillColor=#fff2cc;strokeColor=#d6b656;fontColor=default;" parent="WA64RrP8hwPyqQoOAJvi-1" vertex="1">
          <mxGeometry x="1435" y="-25" width="150" height="40" as="geometry" />
        </mxCell>
        <mxCell id="WA64RrP8hwPyqQoOAJvi-91" value="&lt;font style=&quot;font-size: 13px&quot;&gt;イベント&lt;br&gt;ログ登録&lt;/font&gt;" style="edgeStyle=none;rounded=0;orthogonalLoop=1;jettySize=auto;html=1;entryX=1;entryY=0.5;entryDx=0;entryDy=0;endArrow=none;endFill=0;fontColor=#FF3333;strokeColor=#000000;exitX=0.25;exitY=1;exitDx=0;exitDy=0;" parent="WA64RrP8hwPyqQoOAJvi-1" source="WA64RrP8hwPyqQoOAJvi-92" target="WA64RrP8hwPyqQoOAJvi-25" edge="1">
          <mxGeometry x="0.2831" y="-10" relative="1" as="geometry">
            <mxPoint x="1" y="1" as="offset" />
            <mxPoint x="510.00000000000045" y="700" as="sourcePoint" />
          </mxGeometry>
        </mxCell>
        <mxCell id="WA64RrP8hwPyqQoOAJvi-92" value="EventLog&lt;br&gt;イベントログ" style="rounded=0;whiteSpace=wrap;html=1;fillColor=#fff2cc;strokeColor=#d6b656;fontSize=19;strokeWidth=5;fontColor=default;" parent="WA64RrP8hwPyqQoOAJvi-1" vertex="1">
          <mxGeometry x="590" y="360" width="120" height="60" as="geometry" />
        </mxCell>
        <mxCell id="WA64RrP8hwPyqQoOAJvi-93" value="Initial&lt;br style=&quot;font-size: 19px;&quot;&gt;起動処理" style="rounded=0;whiteSpace=wrap;html=1;fillColor=#dae8fc;strokeColor=#6c8ebf;fontSize=19;strokeWidth=5;" parent="WA64RrP8hwPyqQoOAJvi-1" vertex="1">
          <mxGeometry x="-10" y="55" width="120" height="60" as="geometry" />
        </mxCell>
        <mxCell id="WA64RrP8hwPyqQoOAJvi-94" value="&lt;font style=&quot;font-size: 13px&quot;&gt;&lt;span style=&quot;color: rgb(255 , 0 , 0)&quot;&gt;保存済みロギングデータ&lt;/span&gt;&lt;br style=&quot;color: rgb(255 , 0 , 0)&quot;&gt;&lt;span style=&quot;color: rgb(255 , 0 , 0)&quot;&gt;ロギング対象データ&lt;/span&gt;&lt;/font&gt;" style="edgeStyle=none;rounded=0;orthogonalLoop=1;jettySize=auto;html=1;entryX=0.5;entryY=0;entryDx=0;entryDy=0;fontSize=15;fontColor=#CC0000;endArrow=none;endFill=0;strokeColor=#000000;" parent="WA64RrP8hwPyqQoOAJvi-1" source="WA64RrP8hwPyqQoOAJvi-95" target="WA64RrP8hwPyqQoOAJvi-59" edge="1">
          <mxGeometry x="-0.4667" relative="1" as="geometry">
            <mxPoint as="offset" />
          </mxGeometry>
        </mxCell>
        <mxCell id="cE08UZ1Xvqvv4ngUlUgD-4" style="edgeStyle=none;rounded=0;orthogonalLoop=1;jettySize=auto;html=1;entryX=0.5;entryY=0;entryDx=0;entryDy=0;labelBackgroundColor=default;fontSize=13;fontColor=default;endArrow=none;endFill=0;strokeColor=default;" parent="WA64RrP8hwPyqQoOAJvi-1" source="WA64RrP8hwPyqQoOAJvi-95" target="cE08UZ1Xvqvv4ngUlUgD-2" edge="1">
          <mxGeometry relative="1" as="geometry" />
        </mxCell>
        <mxCell id="WA64RrP8hwPyqQoOAJvi-95" value="UnitPosprocessMgr&lt;br&gt;後段処理管理" style="rounded=0;whiteSpace=wrap;html=1;fillColor=#dae8fc;strokeColor=#6c8ebf;fontSize=19;strokeWidth=5;fontColor=default;" parent="WA64RrP8hwPyqQoOAJvi-1" vertex="1">
          <mxGeometry x="87" y="170" width="170" height="60" as="geometry" />
        </mxCell>
        <mxCell id="WA64RrP8hwPyqQoOAJvi-96" value="Pon" style="rounded=0;whiteSpace=wrap;html=1;fillColor=#e1d5e7;strokeColor=#9673a6;fontSize=19;" parent="WA64RrP8hwPyqQoOAJvi-1" vertex="1">
          <mxGeometry x="1241" y="321.5" width="90" height="60" as="geometry" />
        </mxCell>
        <mxCell id="cE08UZ1Xvqvv4ngUlUgD-0" style="edgeStyle=none;rounded=0;orthogonalLoop=1;jettySize=auto;html=1;entryX=0.5;entryY=0;entryDx=0;entryDy=0;labelBackgroundColor=default;fontSize=13;fontColor=default;endArrow=none;endFill=0;strokeColor=default;exitX=0.5;exitY=1;exitDx=0;exitDy=0;" parent="WA64RrP8hwPyqQoOAJvi-1" source="WA64RrP8hwPyqQoOAJvi-97" target="cE08UZ1Xvqvv4ngUlUgD-2" edge="1">
          <mxGeometry relative="1" as="geometry" />
        </mxCell>
        <mxCell id="cE08UZ1Xvqvv4ngUlUgD-1" value="&lt;font color=&quot;#ff0000&quot;&gt;起動要求&lt;/font&gt;" style="edgeStyle=none;rounded=0;orthogonalLoop=1;jettySize=auto;html=1;entryX=0.5;entryY=0;entryDx=0;entryDy=0;labelBackgroundColor=default;fontSize=13;fontColor=default;endArrow=none;endFill=0;strokeColor=default;exitX=0.5;exitY=1;exitDx=0;exitDy=0;" parent="WA64RrP8hwPyqQoOAJvi-1" source="WA64RrP8hwPyqQoOAJvi-97" target="WA64RrP8hwPyqQoOAJvi-24" edge="1">
          <mxGeometry relative="1" as="geometry">
            <mxPoint x="670" y="170" as="sourcePoint" />
          </mxGeometry>
        </mxCell>
        <mxCell id="eEJKyIOwSUkj9PVVVFYw-0" style="edgeStyle=none;rounded=0;orthogonalLoop=1;jettySize=auto;html=1;entryX=0.5;entryY=0;entryDx=0;entryDy=0;labelBackgroundColor=default;fontSize=13;fontColor=default;endArrow=none;endFill=0;strokeColor=default;exitX=0.5;exitY=1;exitDx=0;exitDy=0;" parent="WA64RrP8hwPyqQoOAJvi-1" source="WA64RrP8hwPyqQoOAJvi-97" target="WA64RrP8hwPyqQoOAJvi-19" edge="1">
          <mxGeometry relative="1" as="geometry" />
        </mxCell>
        <mxCell id="WA64RrP8hwPyqQoOAJvi-97" value="EIPManager&lt;br style=&quot;font-size: 19px;&quot;&gt;通信設定制御" style="rounded=0;whiteSpace=wrap;html=1;fillColor=#fff2cc;strokeColor=#d6b656;fontSize=19;strokeWidth=5;fontColor=default;" parent="WA64RrP8hwPyqQoOAJvi-1" vertex="1">
          <mxGeometry x="610" y="115" width="120" height="60" as="geometry" />
        </mxCell>
        <mxCell id="WA64RrP8hwPyqQoOAJvi-98" value="" style="endArrow=none;html=1;endFill=0;entryX=0.5;entryY=0;entryDx=0;entryDy=0;exitX=0.75;exitY=1;exitDx=0;exitDy=0;fontSize=19;" parent="WA64RrP8hwPyqQoOAJvi-1" source="WA64RrP8hwPyqQoOAJvi-27" target="WA64RrP8hwPyqQoOAJvi-97" edge="1">
          <mxGeometry width="50" height="50" relative="1" as="geometry">
            <mxPoint x="625" y="80" as="sourcePoint" />
            <mxPoint x="1013" y="603" as="targetPoint" />
          </mxGeometry>
        </mxCell>
        <mxCell id="WA64RrP8hwPyqQoOAJvi-99" value="TDL&lt;br style=&quot;font-size: 19px;&quot;&gt;TDLデータ制御" style="rounded=0;whiteSpace=wrap;html=1;fillColor=#fff2cc;strokeColor=#d6b656;fontSize=19;strokeWidth=5;fontColor=default;" parent="WA64RrP8hwPyqQoOAJvi-1" vertex="1">
          <mxGeometry x="800" y="381.5" width="120" height="60" as="geometry" />
        </mxCell>
        <mxCell id="WA64RrP8hwPyqQoOAJvi-101" value="&lt;font style=&quot;font-size: 21px&quot;&gt;アンプ間通信セクション&lt;/font&gt;" style="text;html=1;align=center;verticalAlign=middle;resizable=0;points=[];autosize=1;strokeColor=none;fillColor=none;" parent="WA64RrP8hwPyqQoOAJvi-1" vertex="1">
          <mxGeometry x="-713" y="-30" width="250" height="20" as="geometry" />
        </mxCell>
        <mxCell id="WA64RrP8hwPyqQoOAJvi-103" value="&lt;font style=&quot;font-size: 21px&quot;&gt;統括管理セクション&lt;/font&gt;" style="text;html=1;align=center;verticalAlign=middle;resizable=0;points=[];autosize=1;strokeColor=none;fillColor=none;fontColor=default;" parent="WA64RrP8hwPyqQoOAJvi-1" vertex="1">
          <mxGeometry x="-270" y="-30" width="200" height="20" as="geometry" />
        </mxCell>
        <mxCell id="WA64RrP8hwPyqQoOAJvi-105" value="&lt;font style=&quot;font-size: 21px&quot;&gt;通信制御セクション&lt;/font&gt;" style="text;html=1;align=center;verticalAlign=middle;resizable=0;points=[];autosize=1;strokeColor=none;fillColor=none;fontColor=default;" parent="WA64RrP8hwPyqQoOAJvi-1" vertex="1">
          <mxGeometry x="540" y="-30" width="200" height="20" as="geometry" />
        </mxCell>
        <mxCell id="WA64RrP8hwPyqQoOAJvi-110" value="&lt;font style=&quot;font-size: 21px&quot;&gt;全体統括セクション&lt;/font&gt;" style="text;html=1;align=center;verticalAlign=middle;resizable=0;points=[];autosize=1;strokeColor=none;fillColor=none;" parent="WA64RrP8hwPyqQoOAJvi-1" vertex="1">
          <mxGeometry x="1241" y="-25" width="200" height="20" as="geometry" />
        </mxCell>
        <mxCell id="WA64RrP8hwPyqQoOAJvi-75" value="&lt;font style=&quot;font-size: 19px;&quot;&gt;TCPIP&lt;br style=&quot;font-size: 19px;&quot;&gt;TCP/IPコマンド解析&lt;/font&gt;" style="rounded=0;whiteSpace=wrap;html=1;fillColor=#fff2cc;strokeColor=#d6b656;fontSize=19;strokeWidth=5;fontColor=default;" parent="WA64RrP8hwPyqQoOAJvi-1" vertex="1">
          <mxGeometry x="950" y="381.5" width="120" height="60" as="geometry" />
        </mxCell>
        <mxCell id="WA64RrP8hwPyqQoOAJvi-111" value="" style="edgeStyle=none;rounded=0;orthogonalLoop=1;jettySize=auto;html=1;entryX=1;entryY=0.5;entryDx=0;entryDy=0;endArrow=none;endFill=0;strokeColor=#B3B3B3;" parent="WA64RrP8hwPyqQoOAJvi-1" source="WA64RrP8hwPyqQoOAJvi-23" target="WA64RrP8hwPyqQoOAJvi-75" edge="1">
          <mxGeometry relative="1" as="geometry">
            <mxPoint x="1090" y="407.272727272727" as="sourcePoint" />
            <mxPoint x="710" y="390" as="targetPoint" />
          </mxGeometry>
        </mxCell>
        <mxCell id="WA64RrP8hwPyqQoOAJvi-104" value="" style="rounded=0;whiteSpace=wrap;html=1;fillColor=none;dashed=1;strokeColor=default;fontColor=default;" parent="WA64RrP8hwPyqQoOAJvi-1" vertex="1">
          <mxGeometry x="520" y="-40" width="710" height="870" as="geometry" />
        </mxCell>
        <mxCell id="WA64RrP8hwPyqQoOAJvi-102" value="" style="rounded=0;whiteSpace=wrap;html=1;fillColor=none;dashed=1;strokeColor=default;fontColor=default;" parent="WA64RrP8hwPyqQoOAJvi-1" vertex="1">
          <mxGeometry x="-290" y="-40" width="810" height="1320" as="geometry" />
        </mxCell>
        <mxCell id="WA64RrP8hwPyqQoOAJvi-100" value="" style="rounded=0;whiteSpace=wrap;html=1;fillColor=none;dashed=1;strokeColor=default;fontColor=default;" parent="WA64RrP8hwPyqQoOAJvi-1" vertex="1">
          <mxGeometry x="-720.5" y="-40" width="430.5" height="1080" as="geometry" />
        </mxCell>
        <mxCell id="cE08UZ1Xvqvv4ngUlUgD-3" style="edgeStyle=none;rounded=0;orthogonalLoop=1;jettySize=auto;html=1;labelBackgroundColor=default;fontSize=13;fontColor=default;endArrow=none;endFill=0;strokeColor=default;" parent="WA64RrP8hwPyqQoOAJvi-1" source="cE08UZ1Xvqvv4ngUlUgD-2" target="WA64RrP8hwPyqQoOAJvi-45" edge="1">
          <mxGeometry relative="1" as="geometry" />
        </mxCell>
        <mxCell id="cE08UZ1Xvqvv4ngUlUgD-2" value="IOControl&lt;br style=&quot;font-size: 19px&quot;&gt;入出力制御" style="rounded=0;whiteSpace=wrap;html=1;fillColor=#dae8fc;strokeColor=#6c8ebf;fontSize=19;fontColor=default;" parent="WA64RrP8hwPyqQoOAJvi-1" vertex="1">
          <mxGeometry x="-55" y="579.25" width="120" height="60" as="geometry" />
        </mxCell>
      </root>
    </mxGraphModel>
  </diagram>
  <diagram name="NXR-ILM静的構造_整理" id="8LoRBOQz0qZMT3q2NBlz">
    <mxGraphModel dx="2249" dy="749" grid="1" gridSize="10" guides="1" tooltips="1" connect="1" arrows="1" fold="1" page="1" pageScale="1" pageWidth="827" pageHeight="1169" math="0" shadow="0">
      <root>
        <mxCell id="gRF6oFBSEXNlY3w5-Y73-0" />
        <mxCell id="gRF6oFBSEXNlY3w5-Y73-1" parent="gRF6oFBSEXNlY3w5-Y73-0" />
        <mxCell id="Jt_0751dn-s4lt4O04Yp-16" value="" style="rounded=0;whiteSpace=wrap;html=1;fillColor=#ffe6cc;fontSize=19;strokeColor=#d79b00;fontColor=default;" parent="gRF6oFBSEXNlY3w5-Y73-1" vertex="1">
          <mxGeometry x="1440" y="70" width="130" height="560" as="geometry" />
        </mxCell>
        <mxCell id="yW0RKO3kh5Gays8s-YJe-2" value="" style="rounded=0;whiteSpace=wrap;html=1;fillColor=#dae8fc;fontSize=19;strokeColor=#6c8ebf;gradientColor=#7ea6e0;fontColor=default;" parent="gRF6oFBSEXNlY3w5-Y73-1" vertex="1">
          <mxGeometry x="-39" y="630" width="419" height="160" as="geometry" />
        </mxCell>
        <mxCell id="yW0RKO3kh5Gays8s-YJe-0" value="" style="rounded=0;whiteSpace=wrap;html=1;fillColor=#d5e8d4;fontSize=19;strokeColor=none;gradientColor=#97d077;fontColor=default;" parent="gRF6oFBSEXNlY3w5-Y73-1" vertex="1">
          <mxGeometry x="380" y="630" width="1190" height="160" as="geometry" />
        </mxCell>
        <mxCell id="gRF6oFBSEXNlY3w5-Y73-2" value="" style="rounded=0;whiteSpace=wrap;html=1;fillColor=#ffe6cc;strokeColor=#d79b00;fontColor=default;" parent="gRF6oFBSEXNlY3w5-Y73-1" vertex="1">
          <mxGeometry x="-40" y="410" width="1360" height="220" as="geometry" />
        </mxCell>
        <mxCell id="gRF6oFBSEXNlY3w5-Y73-4" value="" style="rounded=0;whiteSpace=wrap;html=1;fillColor=none;strokeColor=default;fontColor=default;" parent="gRF6oFBSEXNlY3w5-Y73-1" vertex="1">
          <mxGeometry x="380" y="630" width="1190" height="160" as="geometry" />
        </mxCell>
        <mxCell id="gRF6oFBSEXNlY3w5-Y73-6" value="" style="rounded=0;whiteSpace=wrap;html=1;fillColor=#ffe6cc;strokeColor=#d79b00;fontColor=default;" parent="gRF6oFBSEXNlY3w5-Y73-1" vertex="1">
          <mxGeometry x="-40" y="70" width="1360" height="340" as="geometry" />
        </mxCell>
        <mxCell id="gRF6oFBSEXNlY3w5-Y73-7" value="" style="rounded=0;whiteSpace=wrap;html=1;fillColor=#ffe6cc;strokeColor=#d79b00;fontColor=default;" parent="gRF6oFBSEXNlY3w5-Y73-1" vertex="1">
          <mxGeometry x="-40" y="790" width="1610" height="90" as="geometry" />
        </mxCell>
        <mxCell id="dDOS5bPSXAwwgiOgFJHF-2" style="edgeStyle=none;rounded=0;orthogonalLoop=1;jettySize=auto;html=1;entryX=0;entryY=0.5;entryDx=0;entryDy=0;labelBackgroundColor=default;fontSize=13;fontColor=default;strokeColor=#B3B3B3;endArrow=none;endFill=0;" parent="gRF6oFBSEXNlY3w5-Y73-1" source="gRF6oFBSEXNlY3w5-Y73-8" target="gRF6oFBSEXNlY3w5-Y73-65" edge="1">
          <mxGeometry relative="1" as="geometry" />
        </mxCell>
        <mxCell id="gRF6oFBSEXNlY3w5-Y73-8" value="ILM Manager&lt;br&gt;IOLink データ制御" style="rounded=0;whiteSpace=wrap;html=1;fillColor=#f8cecc;strokeColor=#b85450;strokeWidth=5;fontColor=default;" parent="gRF6oFBSEXNlY3w5-Y73-1" vertex="1">
          <mxGeometry x="240" y="140" width="120" height="60" as="geometry" />
        </mxCell>
        <mxCell id="gRF6oFBSEXNlY3w5-Y73-9" value="Initial&lt;br&gt;起動処理" style="rounded=0;whiteSpace=wrap;html=1;fillColor=#dae8fc;strokeColor=#6c8ebf;strokeWidth=5;fontColor=default;" parent="gRF6oFBSEXNlY3w5-Y73-1" vertex="1">
          <mxGeometry x="400" y="81.5" width="100" height="40" as="geometry" />
        </mxCell>
        <mxCell id="gRF6oFBSEXNlY3w5-Y73-10" value="UnitMgr&lt;br&gt;ユニット管理データ制御" style="rounded=0;whiteSpace=wrap;html=1;fillColor=#dae8fc;strokeColor=#6c8ebf;strokeWidth=5;fontColor=default;" parent="gRF6oFBSEXNlY3w5-Y73-1" vertex="1">
          <mxGeometry x="580" y="230" width="140" height="60" as="geometry" />
        </mxCell>
        <mxCell id="gRF6oFBSEXNlY3w5-Y73-11" value="StatusMgr&lt;br&gt;内部状態更新" style="rounded=0;whiteSpace=wrap;html=1;fillColor=#dae8fc;strokeColor=#6c8ebf;fontColor=default;" parent="gRF6oFBSEXNlY3w5-Y73-1" vertex="1">
          <mxGeometry x="371.5" y="430" width="120" height="60" as="geometry" />
        </mxCell>
        <mxCell id="gRF6oFBSEXNlY3w5-Y73-14" value="SDAI" style="rounded=0;whiteSpace=wrap;html=1;fillColor=#ffe6cc;strokeColor=#d79b00;fontColor=default;" parent="gRF6oFBSEXNlY3w5-Y73-1" vertex="1">
          <mxGeometry x="1070" y="660" width="120" height="60" as="geometry" />
        </mxCell>
        <mxCell id="gRF6oFBSEXNlY3w5-Y73-15" value="TMG Stack" style="rounded=0;whiteSpace=wrap;html=1;" parent="gRF6oFBSEXNlY3w5-Y73-1" vertex="1">
          <mxGeometry x="60" y="650" width="120" height="60" as="geometry" />
        </mxCell>
        <mxCell id="gRF6oFBSEXNlY3w5-Y73-16" value="Storage&lt;br&gt;データ保存" style="rounded=0;whiteSpace=wrap;html=1;fillColor=#dae8fc;strokeColor=#6c8ebf;strokeWidth=5;fontColor=default;" parent="gRF6oFBSEXNlY3w5-Y73-1" vertex="1">
          <mxGeometry x="605" y="560" width="90" height="50" as="geometry" />
        </mxCell>
        <mxCell id="dDOS5bPSXAwwgiOgFJHF-0" style="rounded=0;orthogonalLoop=1;jettySize=auto;html=1;entryX=0.5;entryY=0;entryDx=0;entryDy=0;labelBackgroundColor=default;fontSize=13;fontColor=default;strokeColor=#B3B3B3;endArrow=none;endFill=0;" parent="gRF6oFBSEXNlY3w5-Y73-1" source="gRF6oFBSEXNlY3w5-Y73-17" target="gRF6oFBSEXNlY3w5-Y73-65" edge="1">
          <mxGeometry relative="1" as="geometry" />
        </mxCell>
        <mxCell id="dDOS5bPSXAwwgiOgFJHF-4" style="edgeStyle=none;rounded=0;orthogonalLoop=1;jettySize=auto;html=1;entryX=0.5;entryY=0;entryDx=0;entryDy=0;labelBackgroundColor=default;fontSize=13;fontColor=default;endArrow=none;endFill=0;strokeColor=#000000;" parent="gRF6oFBSEXNlY3w5-Y73-1" source="gRF6oFBSEXNlY3w5-Y73-17" target="gRF6oFBSEXNlY3w5-Y73-12" edge="1">
          <mxGeometry relative="1" as="geometry" />
        </mxCell>
        <mxCell id="gRF6oFBSEXNlY3w5-Y73-17" value="UnitScheduler&lt;br&gt;ジョブ管理" style="rounded=0;whiteSpace=wrap;html=1;fillColor=#dae8fc;strokeColor=#6c8ebf;strokeWidth=5;fontColor=default;" parent="gRF6oFBSEXNlY3w5-Y73-1" vertex="1">
          <mxGeometry x="590" y="90" width="120" height="60" as="geometry" />
        </mxCell>
        <mxCell id="gRF6oFBSEXNlY3w5-Y73-18" value="ILM Instance&lt;br&gt;IOLink イベント制御" style="rounded=0;whiteSpace=wrap;html=1;fillColor=#f8cecc;strokeColor=#b85450;" parent="gRF6oFBSEXNlY3w5-Y73-1" vertex="1">
          <mxGeometry x="60" y="270" width="120" height="60" as="geometry" />
        </mxCell>
        <mxCell id="gRF6oFBSEXNlY3w5-Y73-19" value="" style="endArrow=none;html=1;entryX=0;entryY=0.5;entryDx=0;entryDy=0;endFill=0;exitX=1;exitY=0.5;exitDx=0;exitDy=0;strokeColor=#000000;labelBackgroundColor=default;fontColor=default;" parent="gRF6oFBSEXNlY3w5-Y73-1" source="gRF6oFBSEXNlY3w5-Y73-9" target="gRF6oFBSEXNlY3w5-Y73-17" edge="1">
          <mxGeometry width="50" height="50" relative="1" as="geometry">
            <mxPoint x="630" y="250" as="sourcePoint" />
            <mxPoint x="600" y="330" as="targetPoint" />
          </mxGeometry>
        </mxCell>
        <mxCell id="gRF6oFBSEXNlY3w5-Y73-20" value="" style="endArrow=none;html=1;exitX=0.5;exitY=1;exitDx=0;exitDy=0;entryX=0.5;entryY=0;entryDx=0;entryDy=0;endFill=0;strokeColor=#B3B3B3;labelBackgroundColor=default;fontColor=default;" parent="gRF6oFBSEXNlY3w5-Y73-1" source="gRF6oFBSEXNlY3w5-Y73-9" target="gRF6oFBSEXNlY3w5-Y73-12" edge="1">
          <mxGeometry width="50" height="50" relative="1" as="geometry">
            <mxPoint x="180" y="260" as="sourcePoint" />
            <mxPoint x="364" y="260" as="targetPoint" />
          </mxGeometry>
        </mxCell>
        <mxCell id="gRF6oFBSEXNlY3w5-Y73-22" value="NVS(EEPROM)" style="rounded=0;whiteSpace=wrap;html=1;fillColor=default;strokeColor=default;fontColor=default;" parent="gRF6oFBSEXNlY3w5-Y73-1" vertex="1">
          <mxGeometry x="648.5" y="810" width="120" height="60" as="geometry" />
        </mxCell>
        <mxCell id="gRF6oFBSEXNlY3w5-Y73-23" value="" style="endArrow=none;html=1;endFill=0;" parent="gRF6oFBSEXNlY3w5-Y73-1" source="gRF6oFBSEXNlY3w5-Y73-16" target="gRF6oFBSEXNlY3w5-Y73-22" edge="1">
          <mxGeometry width="50" height="50" relative="1" as="geometry">
            <mxPoint x="120" y="290" as="sourcePoint" />
            <mxPoint x="402.03999999999996" y="572.98" as="targetPoint" />
          </mxGeometry>
        </mxCell>
        <mxCell id="gRF6oFBSEXNlY3w5-Y73-24" value="" style="endArrow=none;html=1;exitX=0.5;exitY=0;exitDx=0;exitDy=0;entryX=0.5;entryY=1;entryDx=0;entryDy=0;endFill=0;strokeColor=default;labelBackgroundColor=default;fontColor=default;" parent="gRF6oFBSEXNlY3w5-Y73-1" source="gRF6oFBSEXNlY3w5-Y73-16" target="gRF6oFBSEXNlY3w5-Y73-10" edge="1">
          <mxGeometry width="50" height="50" relative="1" as="geometry">
            <mxPoint x="957" y="430" as="sourcePoint" />
            <mxPoint x="1110" y="430" as="targetPoint" />
          </mxGeometry>
        </mxCell>
        <mxCell id="gRF6oFBSEXNlY3w5-Y73-25" value="AD Power" style="rounded=0;whiteSpace=wrap;html=1;fillColor=default;strokeColor=default;fontColor=default;" parent="gRF6oFBSEXNlY3w5-Y73-1" vertex="1">
          <mxGeometry x="491.5" y="810" width="120" height="60" as="geometry" />
        </mxCell>
        <mxCell id="gRF6oFBSEXNlY3w5-Y73-26" value="" style="endArrow=none;html=1;exitX=0.5;exitY=1;exitDx=0;exitDy=0;endFill=0;" parent="gRF6oFBSEXNlY3w5-Y73-1" source="gRF6oFBSEXNlY3w5-Y73-16" target="gRF6oFBSEXNlY3w5-Y73-25" edge="1">
          <mxGeometry width="50" height="50" relative="1" as="geometry">
            <mxPoint x="900.4137931034484" y="460" as="sourcePoint" />
            <mxPoint x="926.5862068965516" y="690" as="targetPoint" />
          </mxGeometry>
        </mxCell>
        <mxCell id="gRF6oFBSEXNlY3w5-Y73-28" value="" style="endArrow=none;html=1;exitX=0.5;exitY=0;exitDx=0;exitDy=0;endFill=0;" parent="gRF6oFBSEXNlY3w5-Y73-1" source="gRF6oFBSEXNlY3w5-Y73-10" target="gRF6oFBSEXNlY3w5-Y73-17" edge="1">
          <mxGeometry width="50" height="50" relative="1" as="geometry">
            <mxPoint x="414" y="320" as="sourcePoint" />
            <mxPoint x="710" y="690" as="targetPoint" />
          </mxGeometry>
        </mxCell>
        <mxCell id="gRF6oFBSEXNlY3w5-Y73-29" value="" style="endArrow=none;html=1;exitX=1;exitY=0.5;exitDx=0;exitDy=0;endFill=0;entryX=0.5;entryY=0;entryDx=0;entryDy=0;strokeColor=default;labelBackgroundColor=default;fontColor=default;" parent="gRF6oFBSEXNlY3w5-Y73-1" source="gRF6oFBSEXNlY3w5-Y73-10" target="gRF6oFBSEXNlY3w5-Y73-13" edge="1">
          <mxGeometry width="50" height="50" relative="1" as="geometry">
            <mxPoint x="430" y="410" as="sourcePoint" />
            <mxPoint x="710" y="690" as="targetPoint" />
          </mxGeometry>
        </mxCell>
        <mxCell id="gRF6oFBSEXNlY3w5-Y73-30" value="" style="endArrow=none;html=1;exitX=0.5;exitY=1;exitDx=0;exitDy=0;endFill=0;entryX=0.5;entryY=0;entryDx=0;entryDy=0;fontColor=default;" parent="gRF6oFBSEXNlY3w5-Y73-1" source="gRF6oFBSEXNlY3w5-Y73-13" target="gRF6oFBSEXNlY3w5-Y73-14" edge="1">
          <mxGeometry width="50" height="50" relative="1" as="geometry">
            <mxPoint x="520" y="410" as="sourcePoint" />
            <mxPoint x="880" y="550" as="targetPoint" />
          </mxGeometry>
        </mxCell>
        <mxCell id="gRF6oFBSEXNlY3w5-Y73-31" value="" style="endArrow=none;html=1;endFill=0;entryX=0.5;entryY=0;entryDx=0;entryDy=0;startArrow=none;" parent="gRF6oFBSEXNlY3w5-Y73-1" target="gRF6oFBSEXNlY3w5-Y73-21" edge="1">
          <mxGeometry width="50" height="50" relative="1" as="geometry">
            <mxPoint x="650" y="150" as="sourcePoint" />
            <mxPoint x="460" y="670" as="targetPoint" />
          </mxGeometry>
        </mxCell>
        <mxCell id="gRF6oFBSEXNlY3w5-Y73-32" value="" style="endArrow=none;html=1;exitX=0.5;exitY=1;exitDx=0;exitDy=0;endFill=0;fontColor=default;" parent="gRF6oFBSEXNlY3w5-Y73-1" source="gRF6oFBSEXNlY3w5-Y73-21" target="gRF6oFBSEXNlY3w5-Y73-14" edge="1">
          <mxGeometry width="50" height="50" relative="1" as="geometry">
            <mxPoint x="880" y="610" as="sourcePoint" />
            <mxPoint x="1120" y="670" as="targetPoint" />
          </mxGeometry>
        </mxCell>
        <mxCell id="gRF6oFBSEXNlY3w5-Y73-33" value="" style="endArrow=none;html=1;endFill=0;strokeColor=default;labelBackgroundColor=default;fontColor=default;exitX=0.25;exitY=1;exitDx=0;exitDy=0;" parent="gRF6oFBSEXNlY3w5-Y73-1" source="gRF6oFBSEXNlY3w5-Y73-17" target="gRF6oFBSEXNlY3w5-Y73-11" edge="1">
          <mxGeometry width="50" height="50" relative="1" as="geometry">
            <mxPoint x="800" y="130" as="sourcePoint" />
            <mxPoint x="1070" y="550" as="targetPoint" />
            <Array as="points">
              <mxPoint x="431" y="270" />
            </Array>
          </mxGeometry>
        </mxCell>
        <mxCell id="gRF6oFBSEXNlY3w5-Y73-34" value="" style="endArrow=none;html=1;entryX=0;entryY=0.5;entryDx=0;entryDy=0;endFill=0;" parent="gRF6oFBSEXNlY3w5-Y73-1" source="gRF6oFBSEXNlY3w5-Y73-8" target="gRF6oFBSEXNlY3w5-Y73-17" edge="1">
          <mxGeometry width="50" height="50" relative="1" as="geometry">
            <mxPoint x="340" y="240" as="sourcePoint" />
            <mxPoint x="650" y="270" as="targetPoint" />
          </mxGeometry>
        </mxCell>
        <mxCell id="gRF6oFBSEXNlY3w5-Y73-35" value="" style="endArrow=none;html=1;exitX=0.5;exitY=0;exitDx=0;exitDy=0;endFill=0;entryX=0.5;entryY=1;entryDx=0;entryDy=0;" parent="gRF6oFBSEXNlY3w5-Y73-1" source="gRF6oFBSEXNlY3w5-Y73-16" target="gRF6oFBSEXNlY3w5-Y73-8" edge="1">
          <mxGeometry width="50" height="50" relative="1" as="geometry">
            <mxPoint x="770" y="270" as="sourcePoint" />
            <mxPoint x="920" y="255.71428571428578" as="targetPoint" />
          </mxGeometry>
        </mxCell>
        <mxCell id="gRF6oFBSEXNlY3w5-Y73-36" value="GPIO" style="rounded=0;whiteSpace=wrap;html=1;" parent="gRF6oFBSEXNlY3w5-Y73-1" vertex="1">
          <mxGeometry x="220" y="810" width="120" height="60" as="geometry" />
        </mxCell>
        <mxCell id="gRF6oFBSEXNlY3w5-Y73-37" value="IOLink ポート" style="rounded=0;whiteSpace=wrap;html=1;fillColor=default;strokeColor=default;fontColor=default;" parent="gRF6oFBSEXNlY3w5-Y73-1" vertex="1">
          <mxGeometry x="360" y="810" width="120" height="60" as="geometry" />
        </mxCell>
        <mxCell id="gRF6oFBSEXNlY3w5-Y73-38" value="" style="endArrow=none;html=1;exitX=0.5;exitY=1;exitDx=0;exitDy=0;endFill=0;" parent="gRF6oFBSEXNlY3w5-Y73-1" source="gRF6oFBSEXNlY3w5-Y73-8" target="gRF6oFBSEXNlY3w5-Y73-18" edge="1">
          <mxGeometry width="50" height="50" relative="1" as="geometry">
            <mxPoint x="430" y="100" as="sourcePoint" />
            <mxPoint x="703.04" y="241.98000000000002" as="targetPoint" />
          </mxGeometry>
        </mxCell>
        <mxCell id="gRF6oFBSEXNlY3w5-Y73-39" value="" style="endArrow=none;html=1;endFill=0;" parent="gRF6oFBSEXNlY3w5-Y73-1" source="gRF6oFBSEXNlY3w5-Y73-15" target="gRF6oFBSEXNlY3w5-Y73-18" edge="1">
          <mxGeometry width="50" height="50" relative="1" as="geometry">
            <mxPoint x="490" y="70" as="sourcePoint" />
            <mxPoint x="590" y="10" as="targetPoint" />
          </mxGeometry>
        </mxCell>
        <mxCell id="gRF6oFBSEXNlY3w5-Y73-40" value="IOLinkデバイス" style="rounded=0;whiteSpace=wrap;html=1;" parent="gRF6oFBSEXNlY3w5-Y73-1" vertex="1">
          <mxGeometry x="60" y="810" width="120" height="60" as="geometry" />
        </mxCell>
        <mxCell id="gRF6oFBSEXNlY3w5-Y73-41" value="" style="endArrow=none;html=1;exitX=0.5;exitY=0;exitDx=0;exitDy=0;endFill=0;" parent="gRF6oFBSEXNlY3w5-Y73-1" source="gRF6oFBSEXNlY3w5-Y73-40" target="gRF6oFBSEXNlY3w5-Y73-15" edge="1">
          <mxGeometry width="50" height="50" relative="1" as="geometry">
            <mxPoint x="373.96000000000004" y="-118.98000000000002" as="sourcePoint" />
            <mxPoint x="580" y="-42.32295895354082" as="targetPoint" />
          </mxGeometry>
        </mxCell>
        <mxCell id="gRF6oFBSEXNlY3w5-Y73-42" value="" style="endArrow=none;html=1;exitX=0;exitY=0.5;exitDx=0;exitDy=0;endFill=0;strokeColor=#B3B3B3;labelBackgroundColor=default;fontColor=#B3B3B3;" parent="gRF6oFBSEXNlY3w5-Y73-1" source="gRF6oFBSEXNlY3w5-Y73-9" target="gRF6oFBSEXNlY3w5-Y73-8" edge="1">
          <mxGeometry width="50" height="50" relative="1" as="geometry">
            <mxPoint x="340" y="240" as="sourcePoint" />
            <mxPoint x="650" y="270" as="targetPoint" />
          </mxGeometry>
        </mxCell>
        <mxCell id="gRF6oFBSEXNlY3w5-Y73-43" value="" style="endArrow=none;html=1;exitX=0.5;exitY=0;exitDx=0;exitDy=0;endFill=0;entryX=0.5;entryY=1;entryDx=0;entryDy=0;" parent="gRF6oFBSEXNlY3w5-Y73-1" source="gRF6oFBSEXNlY3w5-Y73-36" target="gRF6oFBSEXNlY3w5-Y73-8" edge="1">
          <mxGeometry width="50" height="50" relative="1" as="geometry">
            <mxPoint x="280" y="210" as="sourcePoint" />
            <mxPoint x="397.85714285714266" y="100" as="targetPoint" />
          </mxGeometry>
        </mxCell>
        <mxCell id="gRF6oFBSEXNlY3w5-Y73-44" value="" style="endArrow=none;html=1;endFill=0;entryX=0.5;entryY=1;entryDx=0;entryDy=0;" parent="gRF6oFBSEXNlY3w5-Y73-1" source="gRF6oFBSEXNlY3w5-Y73-37" target="gRF6oFBSEXNlY3w5-Y73-8" edge="1">
          <mxGeometry width="50" height="50" relative="1" as="geometry">
            <mxPoint x="40" y="390" as="sourcePoint" />
            <mxPoint x="370" y="70" as="targetPoint" />
          </mxGeometry>
        </mxCell>
        <mxCell id="gRF6oFBSEXNlY3w5-Y73-45" value="EthernetC" style="rounded=0;whiteSpace=wrap;html=1;fontColor=default;" parent="gRF6oFBSEXNlY3w5-Y73-1" vertex="1">
          <mxGeometry x="1070" y="810" width="120" height="60" as="geometry" />
        </mxCell>
        <mxCell id="gRF6oFBSEXNlY3w5-Y73-46" style="edgeStyle=none;rounded=0;orthogonalLoop=1;jettySize=auto;html=1;exitX=0.5;exitY=1;exitDx=0;exitDy=0;entryX=0.5;entryY=0;entryDx=0;entryDy=0;endArrow=none;endFill=0;fontColor=default;strokeColor=default;labelBackgroundColor=default;" parent="gRF6oFBSEXNlY3w5-Y73-1" source="gRF6oFBSEXNlY3w5-Y73-14" target="gRF6oFBSEXNlY3w5-Y73-45" edge="1">
          <mxGeometry relative="1" as="geometry">
            <mxPoint x="1150" y="770" as="sourcePoint" />
          </mxGeometry>
        </mxCell>
        <mxCell id="gRF6oFBSEXNlY3w5-Y73-47" value="" style="endArrow=none;html=1;exitX=0.5;exitY=1;exitDx=0;exitDy=0;entryX=0.5;entryY=0;entryDx=0;entryDy=0;endFill=0;fontColor=default;" parent="gRF6oFBSEXNlY3w5-Y73-1" source="gRF6oFBSEXNlY3w5-Y73-12" target="gRF6oFBSEXNlY3w5-Y73-14" edge="1">
          <mxGeometry width="50" height="50" relative="1" as="geometry">
            <mxPoint x="720" y="340" as="sourcePoint" />
            <mxPoint x="880" y="470" as="targetPoint" />
          </mxGeometry>
        </mxCell>
        <mxCell id="gRF6oFBSEXNlY3w5-Y73-48" value="IO-Linkスタック層" style="text;html=1;align=center;verticalAlign=middle;resizable=0;points=[];autosize=1;fontColor=default;" parent="gRF6oFBSEXNlY3w5-Y73-1" vertex="1">
          <mxGeometry x="-39" y="630" width="110" height="20" as="geometry" />
        </mxCell>
        <mxCell id="gRF6oFBSEXNlY3w5-Y73-50" value="ミドル層" style="text;html=1;align=center;verticalAlign=middle;resizable=0;points=[];autosize=1;fontColor=default;" parent="gRF6oFBSEXNlY3w5-Y73-1" vertex="1">
          <mxGeometry x="-40" y="421.5" width="60" height="20" as="geometry" />
        </mxCell>
        <mxCell id="gRF6oFBSEXNlY3w5-Y73-51" value="アプリ層" style="text;html=1;align=center;verticalAlign=middle;resizable=0;points=[];autosize=1;fontColor=default;" parent="gRF6oFBSEXNlY3w5-Y73-1" vertex="1">
          <mxGeometry x="-30" y="80" width="60" height="20" as="geometry" />
        </mxCell>
        <mxCell id="gRF6oFBSEXNlY3w5-Y73-52" value="" style="endArrow=none;html=1;exitX=0.5;exitY=0;exitDx=0;exitDy=0;endFill=0;entryX=0.5;entryY=1;entryDx=0;entryDy=0;" parent="gRF6oFBSEXNlY3w5-Y73-1" source="gRF6oFBSEXNlY3w5-Y73-36" target="gRF6oFBSEXNlY3w5-Y73-10" edge="1">
          <mxGeometry width="50" height="50" relative="1" as="geometry">
            <mxPoint x="290" y="820" as="sourcePoint" />
            <mxPoint x="424" y="170" as="targetPoint" />
          </mxGeometry>
        </mxCell>
        <mxCell id="gRF6oFBSEXNlY3w5-Y73-53" value="" style="rounded=0;whiteSpace=wrap;html=1;fillColor=none;gradientColor=#ffffff;dashed=1;" parent="gRF6oFBSEXNlY3w5-Y73-1" vertex="1">
          <mxGeometry x="20" y="220" width="170" height="670" as="geometry" />
        </mxCell>
        <mxCell id="gRF6oFBSEXNlY3w5-Y73-54" value="刷新&lt;br&gt;Newスマ用に置き換え" style="shape=note;whiteSpace=wrap;html=1;backgroundOutline=1;darkOpacity=0.05;fillColor=#ffffff;strokeColor=#b85450;gradientColor=#ffffff;" parent="gRF6oFBSEXNlY3w5-Y73-1" vertex="1">
          <mxGeometry x="10" y="160" width="80" height="100" as="geometry" />
        </mxCell>
        <mxCell id="gRF6oFBSEXNlY3w5-Y73-55" value="" style="rounded=0;whiteSpace=wrap;html=1;fillColor=none;gradientColor=#ffffff;dashed=1;strokeColor=default;fontColor=default;" parent="gRF6oFBSEXNlY3w5-Y73-1" vertex="1">
          <mxGeometry x="230" y="130" width="159" height="90" as="geometry" />
        </mxCell>
        <mxCell id="gRF6oFBSEXNlY3w5-Y73-56" value="・TDLの仕組みのみ流用&lt;br&gt;・コマンドはLnasに行く&lt;br&gt;直前まで流用" style="shape=note;whiteSpace=wrap;html=1;backgroundOutline=1;darkOpacity=0.05;fillColor=#ffffff;strokeColor=default;gradientColor=#ffffff;fontColor=default;" parent="gRF6oFBSEXNlY3w5-Y73-1" vertex="1">
          <mxGeometry x="80" y="81.5" width="180" height="75" as="geometry" />
        </mxCell>
        <mxCell id="gRF6oFBSEXNlY3w5-Y73-60" value="・ハードに依存する箇所以外は流用" style="shape=note;whiteSpace=wrap;html=1;backgroundOutline=1;darkOpacity=0.05;fillColor=#ffffff;strokeColor=#b85450;gradientColor=#ffffff;fontColor=default;" parent="gRF6oFBSEXNlY3w5-Y73-1" vertex="1">
          <mxGeometry x="270" y="30" width="180" height="45" as="geometry" />
        </mxCell>
        <mxCell id="gRF6oFBSEXNlY3w5-Y73-61" value="・ほぼ流用" style="shape=note;whiteSpace=wrap;html=1;backgroundOutline=1;darkOpacity=0.05;fillColor=#ffffff;strokeColor=#b85450;gradientColor=#ffffff;fontColor=default;" parent="gRF6oFBSEXNlY3w5-Y73-1" vertex="1">
          <mxGeometry x="1181" y="200" width="120" height="50" as="geometry" />
        </mxCell>
        <mxCell id="gRF6oFBSEXNlY3w5-Y73-62" style="edgeStyle=none;rounded=0;orthogonalLoop=1;jettySize=auto;html=1;endArrow=none;endFill=0;fontColor=#FF0000;strokeColor=#B3B3B3;labelBackgroundColor=default;" parent="gRF6oFBSEXNlY3w5-Y73-1" source="gRF6oFBSEXNlY3w5-Y73-65" target="gRF6oFBSEXNlY3w5-Y73-12" edge="1">
          <mxGeometry relative="1" as="geometry" />
        </mxCell>
        <mxCell id="gRF6oFBSEXNlY3w5-Y73-63" style="edgeStyle=none;rounded=0;orthogonalLoop=1;jettySize=auto;html=1;entryX=1;entryY=0.5;entryDx=0;entryDy=0;endArrow=none;endFill=0;fontColor=#FF0000;" parent="gRF6oFBSEXNlY3w5-Y73-1" source="gRF6oFBSEXNlY3w5-Y73-65" target="gRF6oFBSEXNlY3w5-Y73-16" edge="1">
          <mxGeometry relative="1" as="geometry" />
        </mxCell>
        <mxCell id="gRF6oFBSEXNlY3w5-Y73-64" style="edgeStyle=none;rounded=0;orthogonalLoop=1;jettySize=auto;html=1;entryX=0;entryY=0.25;entryDx=0;entryDy=0;endArrow=none;endFill=0;fontColor=#FF0000;strokeColor=#B3B3B3;labelBackgroundColor=default;" parent="gRF6oFBSEXNlY3w5-Y73-1" source="gRF6oFBSEXNlY3w5-Y73-65" target="gRF6oFBSEXNlY3w5-Y73-67" edge="1">
          <mxGeometry relative="1" as="geometry" />
        </mxCell>
        <mxCell id="gRF6oFBSEXNlY3w5-Y73-65" value="EventLog&lt;br&gt;イベントログ" style="rounded=0;whiteSpace=wrap;html=1;fillColor=#fff2cc;strokeColor=#d6b656;strokeWidth=5;fontColor=default;" parent="gRF6oFBSEXNlY3w5-Y73-1" vertex="1">
          <mxGeometry x="820" y="310" width="80" height="40" as="geometry" />
        </mxCell>
        <mxCell id="gRF6oFBSEXNlY3w5-Y73-66" style="edgeStyle=none;rounded=0;orthogonalLoop=1;jettySize=auto;html=1;endArrow=none;endFill=0;fontColor=default;" parent="gRF6oFBSEXNlY3w5-Y73-1" source="gRF6oFBSEXNlY3w5-Y73-67" target="gRF6oFBSEXNlY3w5-Y73-14" edge="1">
          <mxGeometry relative="1" as="geometry" />
        </mxCell>
        <mxCell id="gRF6oFBSEXNlY3w5-Y73-67" value="NTPController&lt;br&gt;NTP制御" style="rounded=0;whiteSpace=wrap;html=1;fillColor=#fff2cc;strokeColor=#d6b656;strokeWidth=6;fontColor=default;" parent="gRF6oFBSEXNlY3w5-Y73-1" vertex="1">
          <mxGeometry x="1230" y="330" width="80" height="60" as="geometry" />
        </mxCell>
        <mxCell id="gRF6oFBSEXNlY3w5-Y73-70" style="edgeStyle=none;rounded=0;orthogonalLoop=1;jettySize=auto;html=1;endArrow=none;endFill=0;fontColor=#FF0000;exitX=1;exitY=0.75;exitDx=0;exitDy=0;strokeColor=#B3B3B3;labelBackgroundColor=default;entryX=0;entryY=0.5;entryDx=0;entryDy=0;" parent="gRF6oFBSEXNlY3w5-Y73-1" source="gRF6oFBSEXNlY3w5-Y73-65" target="gRF6oFBSEXNlY3w5-Y73-21" edge="1">
          <mxGeometry relative="1" as="geometry">
            <mxPoint x="830" y="360" as="sourcePoint" />
            <mxPoint x="1000" y="380" as="targetPoint" />
          </mxGeometry>
        </mxCell>
        <mxCell id="gRF6oFBSEXNlY3w5-Y73-12" value="EIPManager&lt;br&gt;通信状態監視" style="rounded=0;whiteSpace=wrap;html=1;fillColor=#fff2cc;strokeColor=#D6B656;strokeWidth=5;fontColor=default;" parent="gRF6oFBSEXNlY3w5-Y73-1" vertex="1">
          <mxGeometry x="1020" y="210" width="90" height="60" as="geometry" />
        </mxCell>
        <mxCell id="jaG_0JV684JJ8ipzWNE3-0" style="edgeStyle=none;rounded=0;orthogonalLoop=1;jettySize=auto;html=1;entryX=0.5;entryY=1;entryDx=0;entryDy=0;labelBackgroundColor=default;fontSize=13;fontColor=default;endArrow=none;endFill=0;strokeColor=default;" parent="gRF6oFBSEXNlY3w5-Y73-1" source="gRF6oFBSEXNlY3w5-Y73-13" target="gRF6oFBSEXNlY3w5-Y73-12" edge="1">
          <mxGeometry relative="1" as="geometry" />
        </mxCell>
        <mxCell id="gRF6oFBSEXNlY3w5-Y73-13" value="EM&lt;br&gt;EMコマンド解析" style="rounded=0;whiteSpace=wrap;html=1;fillColor=#fff2cc;strokeColor=#d6b656;strokeWidth=5;fontColor=default;" parent="gRF6oFBSEXNlY3w5-Y73-1" vertex="1">
          <mxGeometry x="1100" y="330" width="100" height="60" as="geometry" />
        </mxCell>
        <mxCell id="dDOS5bPSXAwwgiOgFJHF-1" style="edgeStyle=none;rounded=0;orthogonalLoop=1;jettySize=auto;html=1;entryX=0.5;entryY=1;entryDx=0;entryDy=0;labelBackgroundColor=default;fontSize=13;fontColor=default;strokeColor=#B3B3B3;" parent="gRF6oFBSEXNlY3w5-Y73-1" source="gRF6oFBSEXNlY3w5-Y73-17" target="gRF6oFBSEXNlY3w5-Y73-17" edge="1">
          <mxGeometry relative="1" as="geometry" />
        </mxCell>
        <mxCell id="gRF6oFBSEXNlY3w5-Y73-59" value="" style="rounded=0;whiteSpace=wrap;html=1;fillColor=none;gradientColor=#ffffff;dashed=1;strokeColor=default;fontColor=default;" parent="gRF6oFBSEXNlY3w5-Y73-1" vertex="1">
          <mxGeometry x="792" y="200" width="523" height="200" as="geometry" />
        </mxCell>
        <mxCell id="gRF6oFBSEXNlY3w5-Y73-21" value="TDL&lt;br&gt;TDLデータ制御" style="rounded=0;whiteSpace=wrap;html=1;fillColor=#fff2cc;strokeColor=#d6b656;strokeWidth=6;fontColor=default;" parent="gRF6oFBSEXNlY3w5-Y73-1" vertex="1">
          <mxGeometry x="960" y="330" width="100" height="60" as="geometry" />
        </mxCell>
        <mxCell id="Jt_0751dn-s4lt4O04Yp-1" value="" style="rounded=0;whiteSpace=wrap;html=1;fillColor=#ffe6cc;fontSize=19;strokeColor=#d79b00;fontColor=default;" parent="gRF6oFBSEXNlY3w5-Y73-1" vertex="1">
          <mxGeometry x="1320" y="70" width="120" height="560" as="geometry" />
        </mxCell>
        <mxCell id="Jt_0751dn-s4lt4O04Yp-2" value="RTOS&lt;br style=&quot;font-size: 14px;&quot;&gt;(NORTi)" style="rounded=0;whiteSpace=wrap;html=1;fillColor=#e1d5e7;strokeColor=default;fontSize=14;fontColor=default;" parent="gRF6oFBSEXNlY3w5-Y73-1" vertex="1">
          <mxGeometry x="1335" y="271.5" width="90" height="60" as="geometry" />
        </mxCell>
        <mxCell id="Jt_0751dn-s4lt4O04Yp-3" value="HWCHK" style="rounded=0;whiteSpace=wrap;html=1;fillColor=#e1d5e7;strokeColor=default;fontSize=14;fontColor=default;" parent="gRF6oFBSEXNlY3w5-Y73-1" vertex="1">
          <mxGeometry x="1335" y="141.5" width="90" height="60" as="geometry" />
        </mxCell>
        <mxCell id="Jt_0751dn-s4lt4O04Yp-4" value="&lt;font style=&quot;font-size: 26px&quot;&gt;Top層&lt;/font&gt;" style="text;html=1;align=center;verticalAlign=middle;resizable=0;points=[];autosize=1;fontSize=19;fontColor=default;strokeColor=default;" parent="gRF6oFBSEXNlY3w5-Y73-1" vertex="1">
          <mxGeometry x="1331" y="80" width="80" height="30" as="geometry" />
        </mxCell>
        <mxCell id="Jt_0751dn-s4lt4O04Yp-5" value="FW&lt;br style=&quot;font-size: 19px;&quot;&gt;アップデート" style="rounded=0;whiteSpace=wrap;html=1;fillColor=#e1d5e7;strokeColor=default;fontSize=19;fontColor=default;" parent="gRF6oFBSEXNlY3w5-Y73-1" vertex="1">
          <mxGeometry x="1470" y="141.5" width="90" height="60" as="geometry" />
        </mxCell>
        <mxCell id="Jt_0751dn-s4lt4O04Yp-6" value="BOOT" style="rounded=0;whiteSpace=wrap;html=1;fillColor=#e1d5e7;strokeColor=default;fontSize=19;fontColor=default;" parent="gRF6oFBSEXNlY3w5-Y73-1" vertex="1">
          <mxGeometry x="1470" y="271.5" width="90" height="60" as="geometry" />
        </mxCell>
        <mxCell id="Jt_0751dn-s4lt4O04Yp-7" value="BOOT層" style="text;html=1;align=center;verticalAlign=middle;resizable=0;points=[];autosize=1;fontSize=23;fontColor=default;strokeColor=default;" parent="gRF6oFBSEXNlY3w5-Y73-1" vertex="1">
          <mxGeometry x="1465" y="80" width="100" height="30" as="geometry" />
        </mxCell>
        <mxCell id="Jt_0751dn-s4lt4O04Yp-9" value="Pon" style="rounded=0;whiteSpace=wrap;html=1;fillColor=#e1d5e7;strokeColor=default;fontSize=14;fontColor=default;" parent="gRF6oFBSEXNlY3w5-Y73-1" vertex="1">
          <mxGeometry x="1331" y="381.5" width="90" height="60" as="geometry" />
        </mxCell>
        <mxCell id="Jt_0751dn-s4lt4O04Yp-11" value="EtherNet/IP Stack層" style="text;html=1;align=center;verticalAlign=middle;resizable=0;points=[];autosize=1;fontColor=default;" parent="gRF6oFBSEXNlY3w5-Y73-1" vertex="1">
          <mxGeometry x="1310" y="630" width="120" height="20" as="geometry" />
        </mxCell>
        <mxCell id="Jt_0751dn-s4lt4O04Yp-12" value="" style="rounded=0;whiteSpace=wrap;html=1;fillColor=none;strokeColor=default;fontColor=default;" parent="gRF6oFBSEXNlY3w5-Y73-1" vertex="1">
          <mxGeometry x="-40" y="630" width="420" height="160" as="geometry" />
        </mxCell>
        <mxCell id="Jt_0751dn-s4lt4O04Yp-13" value="ドライバ層" style="text;html=1;align=center;verticalAlign=middle;resizable=0;points=[];autosize=1;fontColor=default;" parent="gRF6oFBSEXNlY3w5-Y73-1" vertex="1">
          <mxGeometry x="-45" y="790" width="80" height="20" as="geometry" />
        </mxCell>
        <mxCell id="gRF6oFBSEXNlY3w5-Y73-57" value="" style="rounded=0;whiteSpace=wrap;html=1;fillColor=none;gradientColor=#ffffff;dashed=1;strokeColor=default;fontColor=default;" parent="gRF6oFBSEXNlY3w5-Y73-1" vertex="1">
          <mxGeometry x="564" y="75" width="216" height="120" as="geometry" />
        </mxCell>
        <mxCell id="gRF6oFBSEXNlY3w5-Y73-58" value="・コマンド部分の仕組みは改造&lt;br&gt;・他基本的な仕組み(データの受け渡しなど)は流用" style="shape=note;whiteSpace=wrap;html=1;backgroundOutline=1;darkOpacity=0.05;fillColor=#ffffff;strokeColor=#b85450;gradientColor=#ffffff;fontColor=default;" parent="gRF6oFBSEXNlY3w5-Y73-1" vertex="1">
          <mxGeometry x="770" y="50" width="180" height="100" as="geometry" />
        </mxCell>
        <mxCell id="Jt_0751dn-s4lt4O04Yp-15" value="" style="rounded=0;whiteSpace=wrap;html=1;fillColor=none;gradientColor=#ffffff;dashed=1;strokeColor=default;fontColor=default;" parent="gRF6oFBSEXNlY3w5-Y73-1" vertex="1">
          <mxGeometry x="389" y="75" width="131" height="65" as="geometry" />
        </mxCell>
        <mxCell id="-G7r1MNDgbaDCH8Luhxe-0" value="Coretex R4" style="text;html=1;align=center;verticalAlign=middle;resizable=0;points=[];autosize=1;fontSize=20;fillColor=#fff2cc;strokeColor=#d6b656;fontColor=default;" parent="gRF6oFBSEXNlY3w5-Y73-1" vertex="1">
          <mxGeometry x="1445" y="40" width="120" height="30" as="geometry" />
        </mxCell>
        <mxCell id="wPffZLFatVqWPCFzzMwT-0" value="Coretex M3&lt;br style=&quot;font-size: 18px;&quot;&gt;R-IN Engine" style="text;html=1;align=center;verticalAlign=middle;resizable=0;points=[];autosize=1;fontSize=18;fillColor=#d5e8d4;strokeColor=#82b366;gradientColor=#97d077;fontColor=default;" parent="gRF6oFBSEXNlY3w5-Y73-1" vertex="1">
          <mxGeometry x="1455" y="640" width="110" height="50" as="geometry" />
        </mxCell>
      </root>
    </mxGraphModel>
  </diagram>
  <diagram name="RevG_NewスマNWU静的構造_タスク分解" id="PcROo1mHiGwMz3BTiLtu">
    <mxGraphModel dx="3197" dy="2417" grid="1" gridSize="10" guides="1" tooltips="1" connect="1" arrows="1" fold="1" page="1" pageScale="1" pageWidth="827" pageHeight="1169" math="0" shadow="0">
      <root>
        <mxCell id="XtbIZLFYEJx7n7rNm5x0-0" />
        <mxCell id="XtbIZLFYEJx7n7rNm5x0-1" parent="XtbIZLFYEJx7n7rNm5x0-0" />
        <mxCell id="XtbIZLFYEJx7n7rNm5x0-3" value="" style="rounded=0;whiteSpace=wrap;html=1;fillColor=#d5e8d4;fontSize=19;strokeColor=none;gradientColor=#97d077;fontColor=default;" vertex="1" parent="XtbIZLFYEJx7n7rNm5x0-1">
          <mxGeometry x="520" y="830" width="1070" height="210" as="geometry" />
        </mxCell>
        <mxCell id="XtbIZLFYEJx7n7rNm5x0-4" value="" style="rounded=0;whiteSpace=wrap;html=1;fillColor=none;fontSize=19;strokeColor=default;fontColor=default;" vertex="1" parent="XtbIZLFYEJx7n7rNm5x0-1">
          <mxGeometry x="-720" y="1040" width="2310" height="240" as="geometry" />
        </mxCell>
        <mxCell id="XtbIZLFYEJx7n7rNm5x0-5" value="" style="rounded=0;whiteSpace=wrap;html=1;fillColor=#ffe6cc;fontSize=19;strokeColor=default;fontColor=default;" vertex="1" parent="XtbIZLFYEJx7n7rNm5x0-1">
          <mxGeometry x="-720" y="830" width="1240" height="210" as="geometry" />
        </mxCell>
        <mxCell id="XtbIZLFYEJx7n7rNm5x0-6" value="" style="rounded=0;whiteSpace=wrap;html=1;fillColor=#ffe6cc;fontSize=19;strokeColor=default;fontColor=default;" vertex="1" parent="XtbIZLFYEJx7n7rNm5x0-1">
          <mxGeometry x="-720" y="10" width="2310" height="820" as="geometry" />
        </mxCell>
        <mxCell id="XtbIZLFYEJx7n7rNm5x0-7" value="" style="rounded=0;whiteSpace=wrap;html=1;fillColor=none;fontSize=19;strokeColor=default;fontColor=default;" vertex="1" parent="XtbIZLFYEJx7n7rNm5x0-1">
          <mxGeometry x="1230" y="10" width="120" height="820" as="geometry" />
        </mxCell>
        <mxCell id="XtbIZLFYEJx7n7rNm5x0-8" value="" style="rounded=0;whiteSpace=wrap;html=1;fillColor=none;fontSize=19;" vertex="1" parent="XtbIZLFYEJx7n7rNm5x0-1">
          <mxGeometry x="-720" y="10" width="1950" height="440" as="geometry" />
        </mxCell>
        <mxCell id="XtbIZLFYEJx7n7rNm5x0-9" value="" style="rounded=0;whiteSpace=wrap;html=1;fillColor=none;fontSize=19;strokeColor=default;fontColor=default;" vertex="1" parent="XtbIZLFYEJx7n7rNm5x0-1">
          <mxGeometry x="-720" y="450" width="1950" height="380" as="geometry" />
        </mxCell>
        <mxCell id="XtbIZLFYEJx7n7rNm5x0-10" value="" style="rounded=0;whiteSpace=wrap;html=1;fillColor=none;fontSize=19;strokeColor=default;fontColor=default;" vertex="1" parent="XtbIZLFYEJx7n7rNm5x0-1">
          <mxGeometry x="-720" y="830" width="2310" height="210" as="geometry" />
        </mxCell>
        <mxCell id="XtbIZLFYEJx7n7rNm5x0-11" value="" style="rounded=0;whiteSpace=wrap;html=1;fillColor=none;fontSize=19;" vertex="1" parent="XtbIZLFYEJx7n7rNm5x0-1">
          <mxGeometry x="-610" y="920" width="1840" as="geometry" />
        </mxCell>
        <mxCell id="XtbIZLFYEJx7n7rNm5x0-12" style="edgeStyle=none;rounded=0;orthogonalLoop=1;jettySize=auto;html=1;endArrow=none;endFill=0;entryX=0.5;entryY=0;entryDx=0;entryDy=0;strokeColor=#B3B3B3;" edge="1" parent="XtbIZLFYEJx7n7rNm5x0-1" source="XtbIZLFYEJx7n7rNm5x0-16" target="XtbIZLFYEJx7n7rNm5x0-87">
          <mxGeometry relative="1" as="geometry">
            <mxPoint x="660" y="730" as="targetPoint" />
          </mxGeometry>
        </mxCell>
        <mxCell id="XtbIZLFYEJx7n7rNm5x0-13" value="&lt;font color=&quot;#ff0000&quot; style=&quot;font-size: 13px&quot;&gt;LED制御&lt;/font&gt;" style="edgeStyle=none;rounded=0;orthogonalLoop=1;jettySize=auto;html=1;entryX=0.5;entryY=0;entryDx=0;entryDy=0;fontSize=15;fontColor=#CC0000;endArrow=none;endFill=0;strokeColor=#000000;exitX=0.5;exitY=1;exitDx=0;exitDy=0;labelBackgroundColor=default;" edge="1" parent="XtbIZLFYEJx7n7rNm5x0-1" source="XtbIZLFYEJx7n7rNm5x0-16" target="XtbIZLFYEJx7n7rNm5x0-109">
          <mxGeometry relative="1" as="geometry" />
        </mxCell>
        <mxCell id="XtbIZLFYEJx7n7rNm5x0-14" style="rounded=0;orthogonalLoop=1;jettySize=auto;html=1;endArrow=none;endFill=0;strokeColor=default;labelBackgroundColor=default;fontColor=default;" edge="1" parent="XtbIZLFYEJx7n7rNm5x0-1" target="XtbIZLFYEJx7n7rNm5x0-20">
          <mxGeometry relative="1" as="geometry">
            <mxPoint x="-410" y="280" as="sourcePoint" />
          </mxGeometry>
        </mxCell>
        <mxCell id="XtbIZLFYEJx7n7rNm5x0-15" value="&lt;font color=&quot;#ff0000&quot; style=&quot;font-size: 13px&quot;&gt;バックアップデータ&lt;/font&gt;" style="edgeStyle=none;rounded=0;orthogonalLoop=1;jettySize=auto;html=1;entryX=0;entryY=0.25;entryDx=0;entryDy=0;labelBackgroundColor=default;fontSize=20;fontColor=default;endArrow=none;endFill=0;strokeColor=default;" edge="1" parent="XtbIZLFYEJx7n7rNm5x0-1" source="XtbIZLFYEJx7n7rNm5x0-16" target="XtbIZLFYEJx7n7rNm5x0-27">
          <mxGeometry relative="1" as="geometry" />
        </mxCell>
        <mxCell id="XtbIZLFYEJx7n7rNm5x0-16" value="アンプ&lt;br&gt;データ制御" style="rounded=0;whiteSpace=wrap;html=1;fillColor=#f8cecc;strokeColor=#b85450;fontColor=#FF0000;fontSize=21;strokeWidth=5;" vertex="1" parent="XtbIZLFYEJx7n7rNm5x0-1">
          <mxGeometry x="-469" y="220" width="120" height="60" as="geometry" />
        </mxCell>
        <mxCell id="XtbIZLFYEJx7n7rNm5x0-17" style="edgeStyle=none;rounded=0;orthogonalLoop=1;jettySize=auto;html=1;entryX=0.5;entryY=0;entryDx=0;entryDy=0;endArrow=none;endFill=0;exitX=1;exitY=0.5;exitDx=0;exitDy=0;fontSize=19;strokeColor=default;labelBackgroundColor=default;fontColor=default;" edge="1" parent="XtbIZLFYEJx7n7rNm5x0-1" source="XtbIZLFYEJx7n7rNm5x0-29" target="XtbIZLFYEJx7n7rNm5x0-103">
          <mxGeometry relative="1" as="geometry">
            <mxPoint x="830" y="367" as="sourcePoint" />
            <Array as="points">
              <mxPoint x="940" y="120" />
            </Array>
          </mxGeometry>
        </mxCell>
        <mxCell id="XtbIZLFYEJx7n7rNm5x0-18" value="&lt;font style=&quot;font-size: 13px&quot;&gt;アンプ設定&lt;/font&gt;" style="edgeLabel;html=1;align=center;verticalAlign=middle;resizable=0;points=[];fontColor=#FF0000;labelBackgroundColor=default;" vertex="1" connectable="0" parent="XtbIZLFYEJx7n7rNm5x0-17">
          <mxGeometry x="-0.2536" y="2" relative="1" as="geometry">
            <mxPoint y="1" as="offset" />
          </mxGeometry>
        </mxCell>
        <mxCell id="XtbIZLFYEJx7n7rNm5x0-19" value="UnitMgr&lt;br style=&quot;font-size: 19px&quot;&gt;ユニット管理&lt;br&gt;データ制御" style="rounded=0;whiteSpace=wrap;html=1;fillColor=#dae8fc;strokeColor=#6c8ebf;fontSize=19;strokeWidth=5;fontColor=default;" vertex="1" parent="XtbIZLFYEJx7n7rNm5x0-1">
          <mxGeometry x="327" y="170" width="140" height="60" as="geometry" />
        </mxCell>
        <mxCell id="XtbIZLFYEJx7n7rNm5x0-20" value="StatusMgr&lt;br style=&quot;font-size: 19px&quot;&gt;状態管理" style="rounded=0;whiteSpace=wrap;html=1;fillColor=#dae8fc;strokeColor=#6c8ebf;fontSize=19;fontColor=default;" vertex="1" parent="XtbIZLFYEJx7n7rNm5x0-1">
          <mxGeometry x="-250" y="580" width="120" height="60" as="geometry" />
        </mxCell>
        <mxCell id="XtbIZLFYEJx7n7rNm5x0-21" style="edgeStyle=none;rounded=0;orthogonalLoop=1;jettySize=auto;html=1;entryX=0.5;entryY=0;entryDx=0;entryDy=0;endArrow=none;endFill=0;exitX=0.5;exitY=1;exitDx=0;exitDy=0;strokeColor=#B3B3B3;" edge="1" parent="XtbIZLFYEJx7n7rNm5x0-1" source="XtbIZLFYEJx7n7rNm5x0-96" target="XtbIZLFYEJx7n7rNm5x0-87">
          <mxGeometry relative="1" as="geometry" />
        </mxCell>
        <mxCell id="XtbIZLFYEJx7n7rNm5x0-22" style="edgeStyle=none;rounded=0;orthogonalLoop=1;jettySize=auto;html=1;entryX=1;entryY=0.5;entryDx=0;entryDy=0;endArrow=none;endFill=0;strokeColor=#B3B3B3;startArrow=none;" edge="1" parent="XtbIZLFYEJx7n7rNm5x0-1" source="XtbIZLFYEJx7n7rNm5x0-103" target="XtbIZLFYEJx7n7rNm5x0-87">
          <mxGeometry relative="1" as="geometry" />
        </mxCell>
        <mxCell id="XtbIZLFYEJx7n7rNm5x0-23" value="&lt;font style=&quot;font-size: 13px&quot;&gt;アンプ設定&lt;/font&gt;" style="edgeStyle=none;rounded=0;orthogonalLoop=1;jettySize=auto;html=1;exitX=0.5;exitY=0;exitDx=0;exitDy=0;entryX=1;entryY=0.5;entryDx=0;entryDy=0;fontSize=15;fontColor=#FF0000;endArrow=none;endFill=0;strokeColor=#000000;labelBackgroundColor=default;" edge="1" parent="XtbIZLFYEJx7n7rNm5x0-1" source="XtbIZLFYEJx7n7rNm5x0-25" target="XtbIZLFYEJx7n7rNm5x0-29">
          <mxGeometry x="0.1884" y="-9" relative="1" as="geometry">
            <mxPoint as="offset" />
            <Array as="points">
              <mxPoint x="1040" y="100" />
            </Array>
          </mxGeometry>
        </mxCell>
        <mxCell id="XtbIZLFYEJx7n7rNm5x0-24" style="edgeStyle=none;rounded=0;orthogonalLoop=1;jettySize=auto;html=1;entryX=0.5;entryY=1;entryDx=0;entryDy=0;labelBackgroundColor=default;fontSize=13;fontColor=default;endArrow=none;endFill=0;strokeColor=default;exitX=0.5;exitY=0;exitDx=0;exitDy=0;startArrow=none;" edge="1" parent="XtbIZLFYEJx7n7rNm5x0-1" source="QocyByYLdzHBrrI4014f-17" target="XtbIZLFYEJx7n7rNm5x0-96">
          <mxGeometry relative="1" as="geometry" />
        </mxCell>
        <mxCell id="XtbIZLFYEJx7n7rNm5x0-25" value="EM&lt;br style=&quot;font-size: 19px;&quot;&gt;EMコマンド解析" style="rounded=0;whiteSpace=wrap;html=1;fillColor=#fff2cc;strokeColor=#d6b656;fontSize=19;strokeWidth=5;fontColor=default;" vertex="1" parent="XtbIZLFYEJx7n7rNm5x0-1">
          <mxGeometry x="1090" y="380" width="120" height="60" as="geometry" />
        </mxCell>
        <mxCell id="XtbIZLFYEJx7n7rNm5x0-26" value="SDAI" style="rounded=0;whiteSpace=wrap;html=1;fillColor=#ffe6cc;strokeColor=#d79b00;fontSize=19;fontColor=default;" vertex="1" parent="XtbIZLFYEJx7n7rNm5x0-1">
          <mxGeometry x="910" y="965.5" width="120" height="35" as="geometry" />
        </mxCell>
        <mxCell id="XtbIZLFYEJx7n7rNm5x0-27" value="Storage&lt;br style=&quot;font-size: 19px&quot;&gt;不揮発データ保存" style="rounded=0;whiteSpace=wrap;html=1;fillColor=#dae8fc;strokeColor=#6c8ebf;fontSize=19;strokeWidth=5;fontColor=default;" vertex="1" parent="XtbIZLFYEJx7n7rNm5x0-1">
          <mxGeometry x="337" y="580" width="120" height="60" as="geometry" />
        </mxCell>
        <mxCell id="XtbIZLFYEJx7n7rNm5x0-28" style="rounded=0;orthogonalLoop=1;jettySize=auto;html=1;entryX=0.5;entryY=0;entryDx=0;entryDy=0;fontSize=13;fontColor=#CC0000;strokeColor=#000000;endArrow=none;endFill=0;exitX=0.5;exitY=1;exitDx=0;exitDy=0;startArrow=none;" edge="1" parent="XtbIZLFYEJx7n7rNm5x0-1" source="QocyByYLdzHBrrI4014f-6" target="XtbIZLFYEJx7n7rNm5x0-91">
          <mxGeometry relative="1" as="geometry" />
        </mxCell>
        <mxCell id="XtbIZLFYEJx7n7rNm5x0-29" value="UnitScheduler&lt;br style=&quot;font-size: 19px;&quot;&gt;ジョブ管理" style="rounded=0;whiteSpace=wrap;html=1;fillColor=#dae8fc;strokeColor=#6c8ebf;fontSize=19;strokeWidth=5;" vertex="1" parent="XtbIZLFYEJx7n7rNm5x0-1">
          <mxGeometry x="337" y="20" width="120" height="60" as="geometry" />
        </mxCell>
        <mxCell id="XtbIZLFYEJx7n7rNm5x0-30" value="" style="endArrow=none;html=1;entryX=0;entryY=0.5;entryDx=0;entryDy=0;endFill=0;exitX=0.5;exitY=0;exitDx=0;exitDy=0;fontSize=19;" edge="1" parent="XtbIZLFYEJx7n7rNm5x0-1" source="XtbIZLFYEJx7n7rNm5x0-88" target="XtbIZLFYEJx7n7rNm5x0-29">
          <mxGeometry width="50" height="50" relative="1" as="geometry">
            <mxPoint x="300.00000000000045" y="170" as="sourcePoint" />
            <mxPoint x="600" y="367" as="targetPoint" />
          </mxGeometry>
        </mxCell>
        <mxCell id="XtbIZLFYEJx7n7rNm5x0-31" value="" style="endArrow=none;html=1;entryX=0.5;entryY=0;entryDx=0;entryDy=0;endFill=0;fontSize=19;strokeColor=#B3B3B3;exitX=1;exitY=0.5;exitDx=0;exitDy=0;" edge="1" parent="XtbIZLFYEJx7n7rNm5x0-1" source="XtbIZLFYEJx7n7rNm5x0-88" target="XtbIZLFYEJx7n7rNm5x0-96">
          <mxGeometry width="50" height="50" relative="1" as="geometry">
            <mxPoint x="300" y="220" as="sourcePoint" />
            <mxPoint x="364" y="297" as="targetPoint" />
          </mxGeometry>
        </mxCell>
        <mxCell id="XtbIZLFYEJx7n7rNm5x0-32" style="edgeStyle=none;rounded=0;orthogonalLoop=1;jettySize=auto;html=1;entryX=1;entryY=0.5;entryDx=0;entryDy=0;endArrow=none;endFill=0;strokeColor=#B3B3B3;" edge="1" parent="XtbIZLFYEJx7n7rNm5x0-1" source="XtbIZLFYEJx7n7rNm5x0-98" target="XtbIZLFYEJx7n7rNm5x0-87">
          <mxGeometry relative="1" as="geometry" />
        </mxCell>
        <mxCell id="XtbIZLFYEJx7n7rNm5x0-33" style="edgeStyle=none;rounded=0;orthogonalLoop=1;jettySize=auto;html=1;endArrow=none;endFill=0;fontSize=19;" edge="1" parent="XtbIZLFYEJx7n7rNm5x0-1" source="XtbIZLFYEJx7n7rNm5x0-34" target="XtbIZLFYEJx7n7rNm5x0-69">
          <mxGeometry relative="1" as="geometry" />
        </mxCell>
        <mxCell id="XtbIZLFYEJx7n7rNm5x0-34" value="NVS(EEPROM)&lt;br style=&quot;font-size: 19px;&quot;&gt;ドライバ" style="rounded=0;whiteSpace=wrap;html=1;fontSize=19;" vertex="1" parent="XtbIZLFYEJx7n7rNm5x0-1">
          <mxGeometry x="322" y="953" width="150" height="60" as="geometry" />
        </mxCell>
        <mxCell id="XtbIZLFYEJx7n7rNm5x0-35" value="" style="endArrow=none;html=1;endFill=0;fontSize=19;" edge="1" parent="XtbIZLFYEJx7n7rNm5x0-1" source="XtbIZLFYEJx7n7rNm5x0-27" target="XtbIZLFYEJx7n7rNm5x0-34">
          <mxGeometry width="50" height="50" relative="1" as="geometry">
            <mxPoint x="77" y="290" as="sourcePoint" />
            <mxPoint x="359.03999999999996" y="572.98" as="targetPoint" />
          </mxGeometry>
        </mxCell>
        <mxCell id="XtbIZLFYEJx7n7rNm5x0-36" value="&lt;font style=&quot;font-size: 13px&quot;&gt;設定データ&lt;/font&gt;" style="edgeLabel;html=1;align=center;verticalAlign=middle;resizable=0;points=[];fontColor=#FF0000;fontSize=19;" vertex="1" connectable="0" parent="XtbIZLFYEJx7n7rNm5x0-35">
          <mxGeometry x="0.1476" y="5" relative="1" as="geometry">
            <mxPoint x="-3.869999999999999" y="-3.5500000000000007" as="offset" />
          </mxGeometry>
        </mxCell>
        <mxCell id="XtbIZLFYEJx7n7rNm5x0-37" value="&lt;font style=&quot;font-size: 13px&quot;&gt;通信設定データ&lt;br&gt;後段処理設定データ&lt;br&gt;&lt;/font&gt;" style="endArrow=none;html=1;entryX=0.5;entryY=1;entryDx=0;entryDy=0;endFill=0;fontSize=19;exitX=0.5;exitY=0;exitDx=0;exitDy=0;fontColor=#FF0000;labelBackgroundColor=default;strokeColor=default;" edge="1" parent="XtbIZLFYEJx7n7rNm5x0-1" source="XtbIZLFYEJx7n7rNm5x0-27" target="XtbIZLFYEJx7n7rNm5x0-19">
          <mxGeometry x="0.2" width="50" height="50" relative="1" as="geometry">
            <mxPoint x="277" y="760" as="sourcePoint" />
            <mxPoint x="1067" y="467" as="targetPoint" />
            <mxPoint as="offset" />
          </mxGeometry>
        </mxCell>
        <mxCell id="XtbIZLFYEJx7n7rNm5x0-38" value="RTOS&lt;br style=&quot;font-size: 19px;&quot;&gt;(NORTi)" style="rounded=0;whiteSpace=wrap;html=1;fillColor=#e1d5e7;strokeColor=#9673a6;fontSize=19;" vertex="1" parent="XtbIZLFYEJx7n7rNm5x0-1">
          <mxGeometry x="1245" y="211.5" width="90" height="60" as="geometry" />
        </mxCell>
        <mxCell id="XtbIZLFYEJx7n7rNm5x0-39" value="" style="endArrow=none;html=1;exitX=0.5;exitY=0;exitDx=0;exitDy=0;endFill=0;entryX=0.5;entryY=1;entryDx=0;entryDy=0;fontSize=19;" edge="1" parent="XtbIZLFYEJx7n7rNm5x0-1" source="XtbIZLFYEJx7n7rNm5x0-19" target="XtbIZLFYEJx7n7rNm5x0-29">
          <mxGeometry width="50" height="50" relative="1" as="geometry">
            <mxPoint x="414" y="357" as="sourcePoint" />
            <mxPoint x="790" y="117" as="targetPoint" />
          </mxGeometry>
        </mxCell>
        <mxCell id="XtbIZLFYEJx7n7rNm5x0-40" value="&lt;font style=&quot;font-size: 13px&quot;&gt;通信設定&lt;/font&gt;" style="endArrow=none;html=1;exitX=1;exitY=0.5;exitDx=0;exitDy=0;endFill=0;entryX=0.5;entryY=0;entryDx=0;entryDy=0;fontSize=19;strokeColor=default;labelBackgroundColor=default;fontColor=#FF0000;" edge="1" parent="XtbIZLFYEJx7n7rNm5x0-1" source="XtbIZLFYEJx7n7rNm5x0-19" target="XtbIZLFYEJx7n7rNm5x0-25">
          <mxGeometry x="-0.4102" y="8" width="50" height="50" relative="1" as="geometry">
            <mxPoint x="430" y="447" as="sourcePoint" />
            <mxPoint x="710" y="727" as="targetPoint" />
            <mxPoint as="offset" />
          </mxGeometry>
        </mxCell>
        <mxCell id="XtbIZLFYEJx7n7rNm5x0-41" value="" style="endArrow=none;html=1;exitX=0.5;exitY=1;exitDx=0;exitDy=0;endFill=0;entryX=0.5;entryY=0;entryDx=0;entryDy=0;fontSize=19;" edge="1" parent="XtbIZLFYEJx7n7rNm5x0-1" source="XtbIZLFYEJx7n7rNm5x0-25" target="XtbIZLFYEJx7n7rNm5x0-26">
          <mxGeometry width="50" height="50" relative="1" as="geometry">
            <mxPoint x="430" y="410" as="sourcePoint" />
            <mxPoint x="790" y="550" as="targetPoint" />
          </mxGeometry>
        </mxCell>
        <mxCell id="XtbIZLFYEJx7n7rNm5x0-42" value="" style="endArrow=none;html=1;exitX=0.75;exitY=1;exitDx=0;exitDy=0;endFill=0;entryX=0.5;entryY=0;entryDx=0;entryDy=0;fontSize=19;" edge="1" parent="XtbIZLFYEJx7n7rNm5x0-1" source="XtbIZLFYEJx7n7rNm5x0-29" target="XtbIZLFYEJx7n7rNm5x0-98">
          <mxGeometry x="-0.2789" y="5" width="50" height="50" relative="1" as="geometry">
            <mxPoint x="790" y="647" as="sourcePoint" />
            <mxPoint x="460" y="707" as="targetPoint" />
            <mxPoint as="offset" />
          </mxGeometry>
        </mxCell>
        <mxCell id="XtbIZLFYEJx7n7rNm5x0-43" value="" style="endArrow=none;html=1;exitX=0.5;exitY=1;exitDx=0;exitDy=0;endFill=0;entryX=0.5;entryY=0;entryDx=0;entryDy=0;fontSize=19;" edge="1" parent="XtbIZLFYEJx7n7rNm5x0-1" source="XtbIZLFYEJx7n7rNm5x0-98" target="XtbIZLFYEJx7n7rNm5x0-26">
          <mxGeometry width="50" height="50" relative="1" as="geometry">
            <mxPoint x="790" y="610" as="sourcePoint" />
            <mxPoint x="1030" y="670" as="targetPoint" />
          </mxGeometry>
        </mxCell>
        <mxCell id="XtbIZLFYEJx7n7rNm5x0-44" value="" style="endArrow=none;html=1;endFill=0;fontSize=19;exitX=0.25;exitY=1;exitDx=0;exitDy=0;strokeColor=default;labelBackgroundColor=default;fontColor=default;" edge="1" parent="XtbIZLFYEJx7n7rNm5x0-1" source="XtbIZLFYEJx7n7rNm5x0-29" target="XtbIZLFYEJx7n7rNm5x0-20">
          <mxGeometry width="50" height="50" relative="1" as="geometry">
            <mxPoint x="480" y="80" as="sourcePoint" />
            <mxPoint x="1070" y="587" as="targetPoint" />
            <Array as="points">
              <mxPoint x="-180" y="240" />
            </Array>
          </mxGeometry>
        </mxCell>
        <mxCell id="XtbIZLFYEJx7n7rNm5x0-45" value="" style="endArrow=none;html=1;entryX=0;entryY=0.75;entryDx=0;entryDy=0;endFill=0;fontSize=19;" edge="1" parent="XtbIZLFYEJx7n7rNm5x0-1" source="XtbIZLFYEJx7n7rNm5x0-16" target="XtbIZLFYEJx7n7rNm5x0-29">
          <mxGeometry width="50" height="50" relative="1" as="geometry">
            <mxPoint x="340" y="277" as="sourcePoint" />
            <mxPoint x="650" y="307" as="targetPoint" />
          </mxGeometry>
        </mxCell>
        <mxCell id="XtbIZLFYEJx7n7rNm5x0-46" style="edgeStyle=none;rounded=0;orthogonalLoop=1;jettySize=auto;html=1;entryX=0.5;entryY=0;entryDx=0;entryDy=0;endArrow=none;endFill=0;fontSize=19;strokeColor=default;labelBackgroundColor=default;fontColor=default;" edge="1" parent="XtbIZLFYEJx7n7rNm5x0-1" source="XtbIZLFYEJx7n7rNm5x0-47" target="XtbIZLFYEJx7n7rNm5x0-68">
          <mxGeometry relative="1" as="geometry" />
        </mxCell>
        <mxCell id="XtbIZLFYEJx7n7rNm5x0-47" value="GPIO&lt;br style=&quot;font-size: 19px;&quot;&gt;ドライバ" style="rounded=0;whiteSpace=wrap;html=1;fontSize=19;fillColor=default;strokeColor=default;fontColor=default;labelBackgroundColor=default;" vertex="1" parent="XtbIZLFYEJx7n7rNm5x0-1">
          <mxGeometry x="-55" y="950.75" width="120" height="60" as="geometry" />
        </mxCell>
        <mxCell id="XtbIZLFYEJx7n7rNm5x0-48" value="" style="edgeStyle=none;rounded=0;orthogonalLoop=1;jettySize=auto;html=1;endArrow=none;endFill=0;fontColor=#FF0000;fontSize=21;" edge="1" parent="XtbIZLFYEJx7n7rNm5x0-1" source="XtbIZLFYEJx7n7rNm5x0-49" target="XtbIZLFYEJx7n7rNm5x0-66">
          <mxGeometry relative="1" as="geometry">
            <Array as="points" />
          </mxGeometry>
        </mxCell>
        <mxCell id="XtbIZLFYEJx7n7rNm5x0-49" value="USART" style="rounded=0;whiteSpace=wrap;html=1;fontColor=#FF0000;fontSize=21;" vertex="1" parent="XtbIZLFYEJx7n7rNm5x0-1">
          <mxGeometry x="-566.5" y="1113" width="120" height="60" as="geometry" />
        </mxCell>
        <mxCell id="XtbIZLFYEJx7n7rNm5x0-50" value="" style="endArrow=none;html=1;endFill=0;fontSize=19;strokeColor=#B3B3B3;exitX=0;exitY=0.5;exitDx=0;exitDy=0;" edge="1" parent="XtbIZLFYEJx7n7rNm5x0-1" source="XtbIZLFYEJx7n7rNm5x0-88" target="XtbIZLFYEJx7n7rNm5x0-16">
          <mxGeometry width="50" height="50" relative="1" as="geometry">
            <mxPoint x="-150" y="250" as="sourcePoint" />
            <mxPoint x="540" y="307" as="targetPoint" />
          </mxGeometry>
        </mxCell>
        <mxCell id="XtbIZLFYEJx7n7rNm5x0-51" style="edgeStyle=none;rounded=0;orthogonalLoop=1;jettySize=auto;html=1;entryX=0.5;entryY=0;entryDx=0;entryDy=0;endArrow=none;endFill=0;fontSize=19;exitX=0.5;exitY=1;exitDx=0;exitDy=0;strokeColor=default;labelBackgroundColor=default;fontColor=default;" edge="1" parent="XtbIZLFYEJx7n7rNm5x0-1" source="XtbIZLFYEJx7n7rNm5x0-26" target="XtbIZLFYEJx7n7rNm5x0-70">
          <mxGeometry relative="1" as="geometry">
            <mxPoint x="1301" y="1120" as="sourcePoint" />
          </mxGeometry>
        </mxCell>
        <mxCell id="XtbIZLFYEJx7n7rNm5x0-52" value="Stack層" style="text;html=1;align=center;verticalAlign=middle;resizable=0;points=[];autosize=1;fontSize=26;fontColor=default;" vertex="1" parent="XtbIZLFYEJx7n7rNm5x0-1">
          <mxGeometry x="540" y="840" width="110" height="40" as="geometry" />
        </mxCell>
        <mxCell id="XtbIZLFYEJx7n7rNm5x0-53" value="Driver層" style="text;html=1;align=center;verticalAlign=middle;resizable=0;points=[];autosize=1;fontSize=26;fontColor=default;" vertex="1" parent="XtbIZLFYEJx7n7rNm5x0-1">
          <mxGeometry x="-710.5" y="840" width="110" height="40" as="geometry" />
        </mxCell>
        <mxCell id="XtbIZLFYEJx7n7rNm5x0-54" value="Interface層" style="text;html=1;align=center;verticalAlign=middle;resizable=0;points=[];autosize=1;fontSize=26;" vertex="1" parent="XtbIZLFYEJx7n7rNm5x0-1">
          <mxGeometry x="-710.5" y="460" width="140" height="40" as="geometry" />
        </mxCell>
        <mxCell id="XtbIZLFYEJx7n7rNm5x0-55" value="Application層" style="text;html=1;align=center;verticalAlign=middle;resizable=0;points=[];autosize=1;fontSize=26;" vertex="1" parent="XtbIZLFYEJx7n7rNm5x0-1">
          <mxGeometry x="-713" y="15" width="170" height="40" as="geometry" />
        </mxCell>
        <mxCell id="XtbIZLFYEJx7n7rNm5x0-56" style="edgeStyle=none;rounded=0;orthogonalLoop=1;jettySize=auto;html=1;entryX=0.5;entryY=0;entryDx=0;entryDy=0;endArrow=none;endFill=0;fontSize=21;" edge="1" parent="XtbIZLFYEJx7n7rNm5x0-1" source="XtbIZLFYEJx7n7rNm5x0-58" target="XtbIZLFYEJx7n7rNm5x0-60">
          <mxGeometry relative="1" as="geometry" />
        </mxCell>
        <mxCell id="XtbIZLFYEJx7n7rNm5x0-57" value="&lt;font style=&quot;font-size: 13px&quot;&gt;ロギングデータ&lt;/font&gt;" style="edgeLabel;html=1;align=center;verticalAlign=middle;resizable=0;points=[];fontColor=#FF0000;fontSize=16;labelBackgroundColor=default;" vertex="1" connectable="0" parent="XtbIZLFYEJx7n7rNm5x0-56">
          <mxGeometry x="0.1181" y="1" relative="1" as="geometry">
            <mxPoint x="-1" y="35" as="offset" />
          </mxGeometry>
        </mxCell>
        <mxCell id="XtbIZLFYEJx7n7rNm5x0-58" value="&lt;font style=&quot;font-size: 19px&quot;&gt;LoggingControl&lt;br&gt;ロギングデータ&lt;br&gt;入出力制御&lt;/font&gt;" style="rounded=0;whiteSpace=wrap;html=1;fillColor=#dae8fc;strokeColor=#6c8ebf;fontSize=21;" vertex="1" parent="XtbIZLFYEJx7n7rNm5x0-1">
          <mxGeometry x="97" y="560" width="150" height="80" as="geometry" />
        </mxCell>
        <mxCell id="XtbIZLFYEJx7n7rNm5x0-59" style="edgeStyle=none;rounded=0;orthogonalLoop=1;jettySize=auto;html=1;endArrow=none;endFill=0;fontColor=#FF0000;fontSize=21;" edge="1" parent="XtbIZLFYEJx7n7rNm5x0-1" source="XtbIZLFYEJx7n7rNm5x0-60" target="XtbIZLFYEJx7n7rNm5x0-67">
          <mxGeometry relative="1" as="geometry">
            <mxPoint x="281.99999999999955" y="1113.0000000000005" as="targetPoint" />
          </mxGeometry>
        </mxCell>
        <mxCell id="XtbIZLFYEJx7n7rNm5x0-60" value="ロギング&lt;br&gt;ドライバ" style="rounded=0;whiteSpace=wrap;html=1;fontColor=#000000;fontSize=21;fillColor=default;strokeColor=default;" vertex="1" parent="XtbIZLFYEJx7n7rNm5x0-1">
          <mxGeometry x="112" y="953" width="120" height="60" as="geometry" />
        </mxCell>
        <mxCell id="XtbIZLFYEJx7n7rNm5x0-61" style="rounded=0;orthogonalLoop=1;jettySize=auto;html=1;entryX=0.5;entryY=0;entryDx=0;entryDy=0;endArrow=none;endFill=0;fontColor=#FF0000;fontSize=21;" edge="1" parent="XtbIZLFYEJx7n7rNm5x0-1" source="XtbIZLFYEJx7n7rNm5x0-64" target="XtbIZLFYEJx7n7rNm5x0-49">
          <mxGeometry relative="1" as="geometry" />
        </mxCell>
        <mxCell id="XtbIZLFYEJx7n7rNm5x0-62" style="edgeStyle=none;rounded=0;orthogonalLoop=1;jettySize=auto;html=1;endArrow=none;endFill=0;fontSize=21;" edge="1" parent="XtbIZLFYEJx7n7rNm5x0-1" source="XtbIZLFYEJx7n7rNm5x0-64" target="XtbIZLFYEJx7n7rNm5x0-74">
          <mxGeometry relative="1" as="geometry">
            <mxPoint x="-436.5" y="690" as="targetPoint" />
          </mxGeometry>
        </mxCell>
        <mxCell id="XtbIZLFYEJx7n7rNm5x0-63" value="&lt;font style=&quot;font-size: 13px&quot;&gt;センサアンプ間コマンド&lt;br&gt;アンプ間データ&lt;/font&gt;" style="edgeLabel;html=1;align=center;verticalAlign=middle;resizable=0;points=[];fontColor=#FF0000;fontSize=21;" vertex="1" connectable="0" parent="XtbIZLFYEJx7n7rNm5x0-62">
          <mxGeometry x="-0.1748" y="3" relative="1" as="geometry">
            <mxPoint x="3" y="-64.67" as="offset" />
          </mxGeometry>
        </mxCell>
        <mxCell id="XtbIZLFYEJx7n7rNm5x0-64" value="UART&lt;br style=&quot;font-size: 21px;&quot;&gt;ドライバ" style="rounded=0;whiteSpace=wrap;html=1;fontColor=#000000;fontSize=21;fillColor=default;strokeColor=default;" vertex="1" parent="XtbIZLFYEJx7n7rNm5x0-1">
          <mxGeometry x="-566.5" y="953" width="120" height="60" as="geometry" />
        </mxCell>
        <mxCell id="XtbIZLFYEJx7n7rNm5x0-65" value="Hardware" style="text;html=1;align=center;verticalAlign=middle;resizable=0;points=[];autosize=1;fontSize=26;fontColor=default;" vertex="1" parent="XtbIZLFYEJx7n7rNm5x0-1">
          <mxGeometry x="-703" y="1050" width="130" height="40" as="geometry" />
        </mxCell>
        <mxCell id="XtbIZLFYEJx7n7rNm5x0-66" value="RS485" style="rounded=0;whiteSpace=wrap;html=1;fontColor=#FF0000;fontSize=21;" vertex="1" parent="XtbIZLFYEJx7n7rNm5x0-1">
          <mxGeometry x="-566.5" y="1203" width="120" height="60" as="geometry" />
        </mxCell>
        <mxCell id="XtbIZLFYEJx7n7rNm5x0-67" value="SRAM&lt;br&gt;/SDRAM" style="rounded=0;whiteSpace=wrap;html=1;fontColor=#FF0000;fontSize=21;" vertex="1" parent="XtbIZLFYEJx7n7rNm5x0-1">
          <mxGeometry x="112" y="1203" width="120" height="60" as="geometry" />
        </mxCell>
        <mxCell id="XtbIZLFYEJx7n7rNm5x0-68" value="GPIO" style="rounded=0;whiteSpace=wrap;html=1;fontSize=19;fillColor=default;strokeColor=default;fontColor=default;labelBackgroundColor=default;" vertex="1" parent="XtbIZLFYEJx7n7rNm5x0-1">
          <mxGeometry x="-55" y="1200.75" width="120" height="60" as="geometry" />
        </mxCell>
        <mxCell id="XtbIZLFYEJx7n7rNm5x0-69" value="EEPROM" style="rounded=0;whiteSpace=wrap;html=1;fontSize=19;" vertex="1" parent="XtbIZLFYEJx7n7rNm5x0-1">
          <mxGeometry x="337" y="1203" width="120" height="60" as="geometry" />
        </mxCell>
        <mxCell id="XtbIZLFYEJx7n7rNm5x0-70" value="EthernetC" style="rounded=0;whiteSpace=wrap;html=1;fontSize=19;fillColor=default;strokeColor=default;fontColor=default;" vertex="1" parent="XtbIZLFYEJx7n7rNm5x0-1">
          <mxGeometry x="910" y="1190" width="120" height="60" as="geometry" />
        </mxCell>
        <mxCell id="XtbIZLFYEJx7n7rNm5x0-71" style="edgeStyle=none;rounded=0;orthogonalLoop=1;jettySize=auto;html=1;endArrow=none;endFill=0;entryX=0.5;entryY=0;entryDx=0;entryDy=0;fontSize=19;" edge="1" parent="XtbIZLFYEJx7n7rNm5x0-1" source="XtbIZLFYEJx7n7rNm5x0-103" target="XtbIZLFYEJx7n7rNm5x0-26">
          <mxGeometry relative="1" as="geometry">
            <mxPoint x="1019.9999999999995" y="650" as="targetPoint" />
          </mxGeometry>
        </mxCell>
        <mxCell id="XtbIZLFYEJx7n7rNm5x0-72" style="rounded=0;orthogonalLoop=1;jettySize=auto;html=1;entryX=0.5;entryY=1;entryDx=0;entryDy=0;strokeColor=#000000;fontSize=26;endArrow=none;endFill=0;exitX=0.5;exitY=0;exitDx=0;exitDy=0;labelBackgroundColor=default;fontColor=default;" edge="1" parent="XtbIZLFYEJx7n7rNm5x0-1" source="XtbIZLFYEJx7n7rNm5x0-103" target="XtbIZLFYEJx7n7rNm5x0-96">
          <mxGeometry relative="1" as="geometry" />
        </mxCell>
        <mxCell id="XtbIZLFYEJx7n7rNm5x0-73" style="edgeStyle=none;rounded=0;orthogonalLoop=1;jettySize=auto;html=1;entryX=1;entryY=0.5;entryDx=0;entryDy=0;endArrow=none;endFill=0;fontColor=#FF0000;strokeColor=#B3B3B3;" edge="1" parent="XtbIZLFYEJx7n7rNm5x0-1" source="XtbIZLFYEJx7n7rNm5x0-103" target="XtbIZLFYEJx7n7rNm5x0-87">
          <mxGeometry relative="1" as="geometry" />
        </mxCell>
        <mxCell id="XtbIZLFYEJx7n7rNm5x0-74" value="UART割り込み制御" style="rounded=0;whiteSpace=wrap;html=1;fillColor=#f8cecc;strokeColor=#b85450;fontColor=#FF0000;fontSize=21;" vertex="1" parent="XtbIZLFYEJx7n7rNm5x0-1">
          <mxGeometry x="-606.5" y="581.5" width="200" height="63" as="geometry" />
        </mxCell>
        <mxCell id="XtbIZLFYEJx7n7rNm5x0-75" value="HWCHK" style="rounded=0;whiteSpace=wrap;html=1;fillColor=#e1d5e7;strokeColor=#9673a6;fontSize=19;" vertex="1" parent="XtbIZLFYEJx7n7rNm5x0-1">
          <mxGeometry x="1245" y="81.5" width="90" height="60" as="geometry" />
        </mxCell>
        <mxCell id="XtbIZLFYEJx7n7rNm5x0-76" value="&lt;font style=&quot;font-size: 26px&quot;&gt;Top層&lt;/font&gt;" style="text;html=1;align=center;verticalAlign=middle;resizable=0;points=[];autosize=1;fontSize=19;fontColor=default;" vertex="1" parent="XtbIZLFYEJx7n7rNm5x0-1">
          <mxGeometry x="1241" y="20" width="80" height="30" as="geometry" />
        </mxCell>
        <mxCell id="XtbIZLFYEJx7n7rNm5x0-77" value="FW&lt;br style=&quot;font-size: 19px;&quot;&gt;アップデート" style="rounded=0;whiteSpace=wrap;html=1;fillColor=#e1d5e7;strokeColor=#9673a6;fontSize=19;fontColor=default;" vertex="1" parent="XtbIZLFYEJx7n7rNm5x0-1">
          <mxGeometry x="1380" y="81.5" width="90" height="60" as="geometry" />
        </mxCell>
        <mxCell id="XtbIZLFYEJx7n7rNm5x0-78" value="BOOT" style="rounded=0;whiteSpace=wrap;html=1;fillColor=#e1d5e7;strokeColor=#9673a6;fontSize=19;fontColor=default;" vertex="1" parent="XtbIZLFYEJx7n7rNm5x0-1">
          <mxGeometry x="1380" y="211.5" width="90" height="60" as="geometry" />
        </mxCell>
        <mxCell id="XtbIZLFYEJx7n7rNm5x0-79" value="BOOT層" style="text;html=1;align=center;verticalAlign=middle;resizable=0;points=[];autosize=1;fontSize=23;fontColor=default;" vertex="1" parent="XtbIZLFYEJx7n7rNm5x0-1">
          <mxGeometry x="1375" y="20" width="100" height="30" as="geometry" />
        </mxCell>
        <mxCell id="XtbIZLFYEJx7n7rNm5x0-80" style="edgeStyle=none;rounded=0;orthogonalLoop=1;jettySize=auto;html=1;entryX=0.5;entryY=0;entryDx=0;entryDy=0;endArrow=none;endFill=0;fontColor=#FF0000;fontSize=21;" edge="1" parent="XtbIZLFYEJx7n7rNm5x0-1" source="XtbIZLFYEJx7n7rNm5x0-16" target="XtbIZLFYEJx7n7rNm5x0-74">
          <mxGeometry relative="1" as="geometry" />
        </mxCell>
        <mxCell id="XtbIZLFYEJx7n7rNm5x0-81" style="edgeStyle=none;rounded=0;orthogonalLoop=1;jettySize=auto;html=1;exitX=1;exitY=0.5;exitDx=0;exitDy=0;endArrow=none;endFill=0;fontColor=#FF0000;fontSize=19;" edge="1" parent="XtbIZLFYEJx7n7rNm5x0-1">
          <mxGeometry relative="1" as="geometry">
            <mxPoint x="107" y="1233" as="sourcePoint" />
            <mxPoint x="107" y="1233" as="targetPoint" />
          </mxGeometry>
        </mxCell>
        <mxCell id="XtbIZLFYEJx7n7rNm5x0-82" value="&lt;font style=&quot;font-size: 13px&quot;&gt;通信設定&lt;/font&gt;" style="endArrow=none;html=1;exitX=1;exitY=0.5;exitDx=0;exitDy=0;endFill=0;entryX=0.5;entryY=0;entryDx=0;entryDy=0;fontSize=19;strokeColor=default;labelBackgroundColor=default;fontColor=#FF0000;startArrow=none;" edge="1" parent="XtbIZLFYEJx7n7rNm5x0-1" target="XtbIZLFYEJx7n7rNm5x0-103">
          <mxGeometry x="-0.2432" y="-11" width="50" height="50" relative="1" as="geometry">
            <mxPoint x="930" y="406.5" as="sourcePoint" />
            <mxPoint x="1030" y="527" as="targetPoint" />
            <mxPoint y="-1" as="offset" />
          </mxGeometry>
        </mxCell>
        <mxCell id="XtbIZLFYEJx7n7rNm5x0-83" value="&lt;font style=&quot;font-size: 13px&quot;&gt;通信設定&lt;br&gt;データクリア&lt;/font&gt;" style="endArrow=none;html=1;endFill=0;fontColor=#FF0000;fontSize=19;entryX=0.5;entryY=0;entryDx=0;entryDy=0;exitX=0.5;exitY=1;exitDx=0;exitDy=0;" edge="1" parent="XtbIZLFYEJx7n7rNm5x0-1" source="XtbIZLFYEJx7n7rNm5x0-96" target="XtbIZLFYEJx7n7rNm5x0-27">
          <mxGeometry x="0.4675" y="-5" width="50" height="50" relative="1" as="geometry">
            <mxPoint x="640" y="510" as="sourcePoint" />
            <mxPoint x="330" y="760" as="targetPoint" />
            <mxPoint as="offset" />
          </mxGeometry>
        </mxCell>
        <mxCell id="XtbIZLFYEJx7n7rNm5x0-84" value="Coretex M3&lt;br&gt;R-IN Engine" style="text;html=1;align=center;verticalAlign=middle;resizable=0;points=[];autosize=1;fontSize=26;fillColor=#d5e8d4;strokeColor=#82b366;gradientColor=#97d077;fontColor=default;" vertex="1" parent="XtbIZLFYEJx7n7rNm5x0-1">
          <mxGeometry x="1420" y="840" width="160" height="70" as="geometry" />
        </mxCell>
        <mxCell id="XtbIZLFYEJx7n7rNm5x0-85" value="Coretex R4" style="text;html=1;align=center;verticalAlign=middle;resizable=0;points=[];autosize=1;fontSize=26;fillColor=#fff2cc;strokeColor=#d6b656;fontColor=default;" vertex="1" parent="XtbIZLFYEJx7n7rNm5x0-1">
          <mxGeometry x="1435" y="-25" width="150" height="40" as="geometry" />
        </mxCell>
        <mxCell id="XtbIZLFYEJx7n7rNm5x0-86" value="&lt;font style=&quot;font-size: 13px&quot;&gt;イベント&lt;br&gt;ログ登録&lt;/font&gt;" style="edgeStyle=none;rounded=0;orthogonalLoop=1;jettySize=auto;html=1;entryX=1;entryY=0.5;entryDx=0;entryDy=0;endArrow=none;endFill=0;fontColor=#FF3333;strokeColor=#000000;exitX=0.25;exitY=1;exitDx=0;exitDy=0;" edge="1" parent="XtbIZLFYEJx7n7rNm5x0-1" source="XtbIZLFYEJx7n7rNm5x0-87" target="XtbIZLFYEJx7n7rNm5x0-27">
          <mxGeometry x="0.2831" y="-10" relative="1" as="geometry">
            <mxPoint x="1" y="1" as="offset" />
            <mxPoint x="510.00000000000045" y="700" as="sourcePoint" />
          </mxGeometry>
        </mxCell>
        <mxCell id="XtbIZLFYEJx7n7rNm5x0-87" value="EventLog&lt;br&gt;イベントログ" style="rounded=0;whiteSpace=wrap;html=1;fillColor=#fff2cc;strokeColor=#d6b656;fontSize=19;strokeWidth=5;fontColor=default;" vertex="1" parent="XtbIZLFYEJx7n7rNm5x0-1">
          <mxGeometry x="590" y="360" width="120" height="60" as="geometry" />
        </mxCell>
        <mxCell id="XtbIZLFYEJx7n7rNm5x0-88" value="Initial&lt;br style=&quot;font-size: 19px;&quot;&gt;起動処理" style="rounded=0;whiteSpace=wrap;html=1;fillColor=#dae8fc;strokeColor=#6c8ebf;fontSize=19;strokeWidth=5;" vertex="1" parent="XtbIZLFYEJx7n7rNm5x0-1">
          <mxGeometry x="-10" y="55" width="120" height="60" as="geometry" />
        </mxCell>
        <mxCell id="XtbIZLFYEJx7n7rNm5x0-89" value="&lt;font style=&quot;font-size: 13px&quot;&gt;&lt;span style=&quot;color: rgb(255 , 0 , 0)&quot;&gt;保存済みロギングデータ&lt;/span&gt;&lt;br style=&quot;color: rgb(255 , 0 , 0)&quot;&gt;&lt;span style=&quot;color: rgb(255 , 0 , 0)&quot;&gt;ロギング対象データ&lt;/span&gt;&lt;/font&gt;" style="edgeStyle=none;rounded=0;orthogonalLoop=1;jettySize=auto;html=1;entryX=0.5;entryY=0;entryDx=0;entryDy=0;fontSize=15;fontColor=#CC0000;endArrow=none;endFill=0;strokeColor=#000000;" edge="1" parent="XtbIZLFYEJx7n7rNm5x0-1" source="XtbIZLFYEJx7n7rNm5x0-91" target="XtbIZLFYEJx7n7rNm5x0-58">
          <mxGeometry x="-0.4667" relative="1" as="geometry">
            <mxPoint as="offset" />
          </mxGeometry>
        </mxCell>
        <mxCell id="XtbIZLFYEJx7n7rNm5x0-90" style="edgeStyle=none;rounded=0;orthogonalLoop=1;jettySize=auto;html=1;entryX=0.5;entryY=0;entryDx=0;entryDy=0;labelBackgroundColor=default;fontSize=13;fontColor=default;endArrow=none;endFill=0;strokeColor=default;" edge="1" parent="XtbIZLFYEJx7n7rNm5x0-1" source="XtbIZLFYEJx7n7rNm5x0-91" target="XtbIZLFYEJx7n7rNm5x0-109">
          <mxGeometry relative="1" as="geometry" />
        </mxCell>
        <mxCell id="XtbIZLFYEJx7n7rNm5x0-91" value="UnitPosprocessMgr&lt;br&gt;後段処理管理" style="rounded=0;whiteSpace=wrap;html=1;fillColor=#dae8fc;strokeColor=#6c8ebf;fontSize=19;strokeWidth=5;fontColor=default;" vertex="1" parent="XtbIZLFYEJx7n7rNm5x0-1">
          <mxGeometry x="87" y="170" width="170" height="60" as="geometry" />
        </mxCell>
        <mxCell id="XtbIZLFYEJx7n7rNm5x0-92" value="Pon" style="rounded=0;whiteSpace=wrap;html=1;fillColor=#e1d5e7;strokeColor=#9673a6;fontSize=19;" vertex="1" parent="XtbIZLFYEJx7n7rNm5x0-1">
          <mxGeometry x="1241" y="321.5" width="90" height="60" as="geometry" />
        </mxCell>
        <mxCell id="XtbIZLFYEJx7n7rNm5x0-93" style="edgeStyle=none;rounded=0;orthogonalLoop=1;jettySize=auto;html=1;entryX=0.5;entryY=0;entryDx=0;entryDy=0;labelBackgroundColor=default;fontSize=13;fontColor=default;endArrow=none;endFill=0;strokeColor=default;exitX=0.5;exitY=1;exitDx=0;exitDy=0;" edge="1" parent="XtbIZLFYEJx7n7rNm5x0-1" source="XtbIZLFYEJx7n7rNm5x0-96" target="XtbIZLFYEJx7n7rNm5x0-109">
          <mxGeometry relative="1" as="geometry" />
        </mxCell>
        <mxCell id="XtbIZLFYEJx7n7rNm5x0-94" value="&lt;font color=&quot;#ff0000&quot;&gt;起動要求&lt;/font&gt;" style="edgeStyle=none;rounded=0;orthogonalLoop=1;jettySize=auto;html=1;entryX=0.5;entryY=0;entryDx=0;entryDy=0;labelBackgroundColor=default;fontSize=13;fontColor=default;endArrow=none;endFill=0;strokeColor=default;exitX=0.5;exitY=1;exitDx=0;exitDy=0;" edge="1" parent="XtbIZLFYEJx7n7rNm5x0-1" source="XtbIZLFYEJx7n7rNm5x0-96" target="XtbIZLFYEJx7n7rNm5x0-26">
          <mxGeometry relative="1" as="geometry">
            <mxPoint x="670" y="170" as="sourcePoint" />
          </mxGeometry>
        </mxCell>
        <mxCell id="XtbIZLFYEJx7n7rNm5x0-95" style="edgeStyle=none;rounded=0;orthogonalLoop=1;jettySize=auto;html=1;entryX=0.5;entryY=0;entryDx=0;entryDy=0;labelBackgroundColor=default;fontSize=13;fontColor=default;endArrow=none;endFill=0;strokeColor=default;exitX=0.5;exitY=1;exitDx=0;exitDy=0;" edge="1" parent="XtbIZLFYEJx7n7rNm5x0-1" source="XtbIZLFYEJx7n7rNm5x0-96" target="XtbIZLFYEJx7n7rNm5x0-20">
          <mxGeometry relative="1" as="geometry" />
        </mxCell>
        <mxCell id="XtbIZLFYEJx7n7rNm5x0-96" value="EIPManager&lt;br style=&quot;font-size: 19px;&quot;&gt;通信設定制御" style="rounded=0;whiteSpace=wrap;html=1;fillColor=#fff2cc;strokeColor=#d6b656;fontSize=19;strokeWidth=5;fontColor=default;" vertex="1" parent="XtbIZLFYEJx7n7rNm5x0-1">
          <mxGeometry x="610" y="115" width="120" height="60" as="geometry" />
        </mxCell>
        <mxCell id="XtbIZLFYEJx7n7rNm5x0-97" value="" style="endArrow=none;html=1;endFill=0;entryX=0.5;entryY=0;entryDx=0;entryDy=0;exitX=0.75;exitY=1;exitDx=0;exitDy=0;fontSize=19;" edge="1" parent="XtbIZLFYEJx7n7rNm5x0-1" source="XtbIZLFYEJx7n7rNm5x0-29" target="XtbIZLFYEJx7n7rNm5x0-96">
          <mxGeometry width="50" height="50" relative="1" as="geometry">
            <mxPoint x="625" y="80" as="sourcePoint" />
            <mxPoint x="1013" y="603" as="targetPoint" />
          </mxGeometry>
        </mxCell>
        <mxCell id="XtbIZLFYEJx7n7rNm5x0-98" value="TDL&lt;br style=&quot;font-size: 19px;&quot;&gt;TDLデータ制御" style="rounded=0;whiteSpace=wrap;html=1;fillColor=#fff2cc;strokeColor=#d6b656;fontSize=19;strokeWidth=5;fontColor=default;" vertex="1" parent="XtbIZLFYEJx7n7rNm5x0-1">
          <mxGeometry x="800" y="381.5" width="120" height="60" as="geometry" />
        </mxCell>
        <mxCell id="XtbIZLFYEJx7n7rNm5x0-103" value="&lt;font style=&quot;font-size: 19px;&quot;&gt;TCPIP&lt;br style=&quot;font-size: 19px;&quot;&gt;TCP/IPコマンド解析&lt;/font&gt;" style="rounded=0;whiteSpace=wrap;html=1;fillColor=#fff2cc;strokeColor=#d6b656;fontSize=19;strokeWidth=5;fontColor=default;" vertex="1" parent="XtbIZLFYEJx7n7rNm5x0-1">
          <mxGeometry x="950" y="381.5" width="120" height="60" as="geometry" />
        </mxCell>
        <mxCell id="XtbIZLFYEJx7n7rNm5x0-104" value="" style="edgeStyle=none;rounded=0;orthogonalLoop=1;jettySize=auto;html=1;entryX=1;entryY=0.5;entryDx=0;entryDy=0;endArrow=none;endFill=0;strokeColor=#B3B3B3;" edge="1" parent="XtbIZLFYEJx7n7rNm5x0-1" source="XtbIZLFYEJx7n7rNm5x0-25" target="XtbIZLFYEJx7n7rNm5x0-103">
          <mxGeometry relative="1" as="geometry">
            <mxPoint x="1090" y="407.272727272727" as="sourcePoint" />
            <mxPoint x="710" y="390" as="targetPoint" />
          </mxGeometry>
        </mxCell>
        <mxCell id="XtbIZLFYEJx7n7rNm5x0-108" style="edgeStyle=none;rounded=0;orthogonalLoop=1;jettySize=auto;html=1;labelBackgroundColor=default;fontSize=13;fontColor=default;endArrow=none;endFill=0;strokeColor=default;" edge="1" parent="XtbIZLFYEJx7n7rNm5x0-1" source="XtbIZLFYEJx7n7rNm5x0-109" target="XtbIZLFYEJx7n7rNm5x0-47">
          <mxGeometry relative="1" as="geometry" />
        </mxCell>
        <mxCell id="XtbIZLFYEJx7n7rNm5x0-109" value="IOControl&lt;br style=&quot;font-size: 19px&quot;&gt;入出力制御" style="rounded=0;whiteSpace=wrap;html=1;fillColor=#dae8fc;strokeColor=#6c8ebf;fontSize=19;fontColor=default;" vertex="1" parent="XtbIZLFYEJx7n7rNm5x0-1">
          <mxGeometry x="-55" y="579.25" width="120" height="60" as="geometry" />
        </mxCell>
        <mxCell id="FF8eh-Lnv-Dp07hUEPpl-0" value="" style="rounded=0;whiteSpace=wrap;html=1;dashed=1;strokeColor=#000000;fillColor=none;strokeWidth=7;" vertex="1" parent="XtbIZLFYEJx7n7rNm5x0-1">
          <mxGeometry x="-500" y="195" width="200" height="110" as="geometry" />
        </mxCell>
        <mxCell id="QocyByYLdzHBrrI4014f-0" value="アンプデータ&lt;br&gt;制御タスク" style="text;html=1;align=center;verticalAlign=middle;resizable=0;points=[];autosize=1;strokeColor=default;fillColor=default;fontSize=20;" vertex="1" parent="XtbIZLFYEJx7n7rNm5x0-1">
          <mxGeometry x="-469" y="141.5" width="140" height="50" as="geometry" />
        </mxCell>
        <mxCell id="QocyByYLdzHBrrI4014f-1" value="" style="rounded=0;whiteSpace=wrap;html=1;dashed=1;strokeColor=#000000;fillColor=none;strokeWidth=7;" vertex="1" parent="XtbIZLFYEJx7n7rNm5x0-1">
          <mxGeometry x="-30" y="40" width="170" height="100" as="geometry" />
        </mxCell>
        <mxCell id="QocyByYLdzHBrrI4014f-2" value="起動処理タスク" style="text;html=1;align=center;verticalAlign=middle;resizable=0;points=[];autosize=1;strokeColor=default;fillColor=default;fontSize=20;" vertex="1" parent="XtbIZLFYEJx7n7rNm5x0-1">
          <mxGeometry x="-25" y="15" width="160" height="30" as="geometry" />
        </mxCell>
        <mxCell id="QocyByYLdzHBrrI4014f-3" value="" style="rounded=0;whiteSpace=wrap;html=1;dashed=1;strokeColor=#000000;fillColor=none;strokeWidth=7;" vertex="1" parent="XtbIZLFYEJx7n7rNm5x0-1">
          <mxGeometry x="322" y="-7.5" width="170" height="100" as="geometry" />
        </mxCell>
        <mxCell id="QocyByYLdzHBrrI4014f-4" value="ジョブ管理タスク" style="text;html=1;align=center;verticalAlign=middle;resizable=0;points=[];autosize=1;strokeColor=default;fillColor=default;fontSize=20;" vertex="1" parent="XtbIZLFYEJx7n7rNm5x0-1">
          <mxGeometry x="317" y="-32.5" width="180" height="30" as="geometry" />
        </mxCell>
        <mxCell id="QocyByYLdzHBrrI4014f-5" value="" style="rounded=0;whiteSpace=wrap;html=1;dashed=1;strokeColor=#000000;fillColor=none;strokeWidth=7;" vertex="1" parent="XtbIZLFYEJx7n7rNm5x0-1">
          <mxGeometry x="77" y="155" width="193" height="100" as="geometry" />
        </mxCell>
        <mxCell id="QocyByYLdzHBrrI4014f-7" value="" style="rounded=0;whiteSpace=wrap;html=1;dashed=1;strokeColor=#000000;fillColor=none;strokeWidth=7;" vertex="1" parent="XtbIZLFYEJx7n7rNm5x0-1">
          <mxGeometry x="310.5" y="150" width="193" height="100" as="geometry" />
        </mxCell>
        <mxCell id="QocyByYLdzHBrrI4014f-8" value="ユニット管理&lt;br&gt;データ制御タスク" style="text;html=1;align=center;verticalAlign=middle;resizable=0;points=[];autosize=1;strokeColor=default;fillColor=default;fontSize=20;" vertex="1" parent="XtbIZLFYEJx7n7rNm5x0-1">
          <mxGeometry x="312" y="115" width="180" height="50" as="geometry" />
        </mxCell>
        <mxCell id="QocyByYLdzHBrrI4014f-9" value="" style="rounded=0;whiteSpace=wrap;html=1;dashed=1;strokeColor=#000000;fillColor=none;strokeWidth=7;" vertex="1" parent="XtbIZLFYEJx7n7rNm5x0-1">
          <mxGeometry x="553.5" y="341.5" width="193" height="100" as="geometry" />
        </mxCell>
        <mxCell id="QocyByYLdzHBrrI4014f-10" value="イベントログタスク" style="text;html=1;align=center;verticalAlign=middle;resizable=0;points=[];autosize=1;strokeColor=default;fillColor=default;fontSize=20;" vertex="1" parent="XtbIZLFYEJx7n7rNm5x0-1">
          <mxGeometry x="545" y="316.5" width="200" height="30" as="geometry" />
        </mxCell>
        <mxCell id="QocyByYLdzHBrrI4014f-11" value="" style="rounded=0;whiteSpace=wrap;html=1;dashed=1;strokeColor=#000000;fillColor=none;strokeWidth=7;" vertex="1" parent="XtbIZLFYEJx7n7rNm5x0-1">
          <mxGeometry x="580" y="102.5" width="193" height="100" as="geometry" />
        </mxCell>
        <mxCell id="QocyByYLdzHBrrI4014f-12" value="通信設定制御タスク" style="text;html=1;align=center;verticalAlign=middle;resizable=0;points=[];autosize=1;strokeColor=default;fillColor=default;fontSize=20;" vertex="1" parent="XtbIZLFYEJx7n7rNm5x0-1">
          <mxGeometry x="571.5" y="77.5" width="200" height="30" as="geometry" />
        </mxCell>
        <mxCell id="QocyByYLdzHBrrI4014f-13" value="" style="rounded=0;whiteSpace=wrap;html=1;dashed=1;strokeColor=#000000;fillColor=none;strokeWidth=7;" vertex="1" parent="XtbIZLFYEJx7n7rNm5x0-1">
          <mxGeometry x="780" y="360" width="160" height="100" as="geometry" />
        </mxCell>
        <mxCell id="QocyByYLdzHBrrI4014f-15" value="" style="endArrow=none;html=1;exitX=1;exitY=0.5;exitDx=0;exitDy=0;endFill=0;entryX=0.5;entryY=0;entryDx=0;entryDy=0;fontSize=19;strokeColor=default;labelBackgroundColor=default;fontColor=#FF0000;" edge="1" parent="XtbIZLFYEJx7n7rNm5x0-1" source="XtbIZLFYEJx7n7rNm5x0-19">
          <mxGeometry x="-0.2432" y="-11" width="50" height="50" relative="1" as="geometry">
            <mxPoint x="467.00000000000045" y="200" as="sourcePoint" />
            <mxPoint x="855" y="381.5" as="targetPoint" />
            <mxPoint y="-1" as="offset" />
          </mxGeometry>
        </mxCell>
        <mxCell id="QocyByYLdzHBrrI4014f-16" value="" style="rounded=0;whiteSpace=wrap;html=1;dashed=1;strokeColor=#000000;fillColor=none;strokeWidth=7;" vertex="1" parent="XtbIZLFYEJx7n7rNm5x0-1">
          <mxGeometry x="940" y="360" width="140" height="100" as="geometry" />
        </mxCell>
        <mxCell id="QocyByYLdzHBrrI4014f-18" value="" style="rounded=0;whiteSpace=wrap;html=1;dashed=1;strokeColor=#000000;fillColor=none;strokeWidth=7;" vertex="1" parent="XtbIZLFYEJx7n7rNm5x0-1">
          <mxGeometry x="1081" y="360" width="140" height="100" as="geometry" />
        </mxCell>
        <mxCell id="QocyByYLdzHBrrI4014f-19" value="起動処理タスク" style="text;html=1;align=center;verticalAlign=middle;resizable=0;points=[];autosize=1;strokeColor=default;fillColor=default;fontSize=20;" vertex="1" parent="XtbIZLFYEJx7n7rNm5x0-1">
          <mxGeometry x="1081" y="336.5" width="160" height="30" as="geometry" />
        </mxCell>
        <mxCell id="QocyByYLdzHBrrI4014f-6" value="後段処理処理タスク" style="text;html=1;align=center;verticalAlign=middle;resizable=0;points=[];autosize=1;strokeColor=default;fillColor=default;fontSize=20;" vertex="1" parent="XtbIZLFYEJx7n7rNm5x0-1">
          <mxGeometry x="77" y="130" width="200" height="30" as="geometry" />
        </mxCell>
        <mxCell id="QocyByYLdzHBrrI4014f-21" value="" style="rounded=0;orthogonalLoop=1;jettySize=auto;html=1;entryX=0.5;entryY=0;entryDx=0;entryDy=0;fontSize=13;fontColor=#CC0000;strokeColor=#000000;endArrow=none;endFill=0;exitX=0.5;exitY=1;exitDx=0;exitDy=0;" edge="1" parent="XtbIZLFYEJx7n7rNm5x0-1" source="XtbIZLFYEJx7n7rNm5x0-29" target="QocyByYLdzHBrrI4014f-6">
          <mxGeometry relative="1" as="geometry">
            <mxPoint x="397.00000000000045" y="80" as="sourcePoint" />
            <mxPoint x="172" y="170" as="targetPoint" />
          </mxGeometry>
        </mxCell>
        <mxCell id="QocyByYLdzHBrrI4014f-22" value="TDLデータ制御&lt;br&gt;タスク" style="text;html=1;align=center;verticalAlign=middle;resizable=0;points=[];autosize=1;strokeColor=default;fillColor=default;fontSize=20;" vertex="1" parent="XtbIZLFYEJx7n7rNm5x0-1">
          <mxGeometry x="790" y="316.5" width="150" height="50" as="geometry" />
        </mxCell>
        <mxCell id="QocyByYLdzHBrrI4014f-17" value="TCP/IPコマンド&lt;br&gt;解析タスク" style="text;html=1;align=center;verticalAlign=middle;resizable=0;points=[];autosize=1;strokeColor=default;fillColor=default;fontSize=20;" vertex="1" parent="XtbIZLFYEJx7n7rNm5x0-1">
          <mxGeometry x="940" y="316.5" width="160" height="50" as="geometry" />
        </mxCell>
        <mxCell id="QocyByYLdzHBrrI4014f-25" value="" style="edgeStyle=none;rounded=0;orthogonalLoop=1;jettySize=auto;html=1;entryX=0.5;entryY=1;entryDx=0;entryDy=0;labelBackgroundColor=default;fontSize=13;fontColor=default;endArrow=none;endFill=0;strokeColor=default;exitX=0.5;exitY=0;exitDx=0;exitDy=0;" edge="1" parent="XtbIZLFYEJx7n7rNm5x0-1" source="XtbIZLFYEJx7n7rNm5x0-25" target="QocyByYLdzHBrrI4014f-17">
          <mxGeometry relative="1" as="geometry">
            <mxPoint x="1150" y="380" as="sourcePoint" />
            <mxPoint x="670" y="175" as="targetPoint" />
          </mxGeometry>
        </mxCell>
        <mxCell id="QocyByYLdzHBrrI4014f-26" value="" style="rounded=0;whiteSpace=wrap;html=1;dashed=1;strokeColor=#000000;fillColor=none;strokeWidth=7;" vertex="1" parent="XtbIZLFYEJx7n7rNm5x0-1">
          <mxGeometry x="321.5" y="562.5" width="193" height="100" as="geometry" />
        </mxCell>
        <mxCell id="QocyByYLdzHBrrI4014f-27" value="不揮発データ保存&lt;br&gt;タスク" style="text;html=1;align=center;verticalAlign=middle;resizable=0;points=[];autosize=1;strokeColor=default;fillColor=default;fontSize=20;" vertex="1" parent="XtbIZLFYEJx7n7rNm5x0-1">
          <mxGeometry x="323" y="527.5" width="180" height="50" as="geometry" />
        </mxCell>
      </root>
    </mxGraphModel>
  </diagram>
  <diagram name="RevC_動的構造" id="PpiwZRVq-2bUCYuhLH65">
    <mxGraphModel dx="1601" dy="749" grid="1" gridSize="10" guides="1" tooltips="1" connect="1" arrows="1" fold="1" page="1" pageScale="1" pageWidth="827" pageHeight="1169" math="0" shadow="0">
      <root>
        <mxCell id="auQ4mcYpajBGoe2JOhch-0" />
        <mxCell id="auQ4mcYpajBGoe2JOhch-1" parent="auQ4mcYpajBGoe2JOhch-0" />
        <mxCell id="auQ4mcYpajBGoe2JOhch-2" style="edgeStyle=orthogonalEdgeStyle;rounded=0;orthogonalLoop=1;jettySize=auto;html=1;entryX=1;entryY=0.5;entryDx=0;entryDy=0;startArrow=box;startFill=0;endArrow=box;endFill=0;exitX=0;exitY=0.5;exitDx=0;exitDy=0;" parent="auQ4mcYpajBGoe2JOhch-1" source="auQ4mcYpajBGoe2JOhch-105" target="auQ4mcYpajBGoe2JOhch-45" edge="1">
          <mxGeometry relative="1" as="geometry">
            <mxPoint x="285" y="300" as="targetPoint" />
          </mxGeometry>
        </mxCell>
        <mxCell id="auQ4mcYpajBGoe2JOhch-3" value="&lt;span style=&quot;font-size: 12px ; background-color: rgb(248 , 249 , 250)&quot;&gt;CMDデータセット&lt;/span&gt;&lt;span style=&quot;font-size: 12px ; background-color: rgb(248 , 249 , 250)&quot;&gt;&lt;br&gt;&lt;/span&gt;" style="edgeLabel;html=1;align=center;verticalAlign=middle;resizable=0;points=[];" parent="auQ4mcYpajBGoe2JOhch-2" vertex="1" connectable="0">
          <mxGeometry x="-0.0519" y="-1" relative="1" as="geometry">
            <mxPoint x="-4" y="27" as="offset" />
          </mxGeometry>
        </mxCell>
        <mxCell id="auQ4mcYpajBGoe2JOhch-5" style="edgeStyle=orthogonalEdgeStyle;rounded=0;orthogonalLoop=1;jettySize=auto;html=1;startArrow=box;startFill=0;endArrow=box;endFill=0;entryX=0.25;entryY=0;entryDx=0;entryDy=0;exitX=1;exitY=0.5;exitDx=0;exitDy=0;" parent="auQ4mcYpajBGoe2JOhch-1" source="auQ4mcYpajBGoe2JOhch-8" target="auQ4mcYpajBGoe2JOhch-12" edge="1">
          <mxGeometry relative="1" as="geometry">
            <mxPoint x="890" y="750" as="targetPoint" />
          </mxGeometry>
        </mxCell>
        <mxCell id="auQ4mcYpajBGoe2JOhch-6" value="EIP起動リクエスト" style="edgeLabel;html=1;align=center;verticalAlign=middle;resizable=0;points=[];rotation=90;" parent="auQ4mcYpajBGoe2JOhch-5" vertex="1" connectable="0">
          <mxGeometry x="0.3562" y="-3" relative="1" as="geometry">
            <mxPoint x="28" y="187" as="offset" />
          </mxGeometry>
        </mxCell>
        <mxCell id="auQ4mcYpajBGoe2JOhch-7" style="edgeStyle=orthogonalEdgeStyle;rounded=0;orthogonalLoop=1;jettySize=auto;html=1;entryX=0.5;entryY=0;entryDx=0;entryDy=0;startArrow=box;startFill=0;endArrow=box;endFill=0;fontColor=#000000;" parent="auQ4mcYpajBGoe2JOhch-1" source="auQ4mcYpajBGoe2JOhch-8" target="auQ4mcYpajBGoe2JOhch-105" edge="1">
          <mxGeometry relative="1" as="geometry">
            <mxPoint x="529.96" y="318.98" as="targetPoint" />
          </mxGeometry>
        </mxCell>
        <mxCell id="auQ4mcYpajBGoe2JOhch-8" value="&lt;span style=&quot;font-size: 14px ; font-weight: 700&quot;&gt;&amp;lt;&amp;lt;Task&amp;gt;&amp;gt;&lt;/span&gt;&lt;br style=&quot;font-size: 14px ; font-weight: 700&quot;&gt;&lt;span style=&quot;font-size: 14px ; font-weight: 700&quot;&gt;Initial&lt;/span&gt;&lt;br style=&quot;font-size: 14px ; font-weight: 700&quot;&gt;&lt;span style=&quot;font-size: 14px ; font-weight: 700&quot;&gt;起動処理&lt;/span&gt;" style="rounded=0;whiteSpace=wrap;html=1;fillColor=#dae8fc;strokeColor=#FF0000;strokeWidth=5;" parent="auQ4mcYpajBGoe2JOhch-1" vertex="1">
          <mxGeometry x="940" y="90" width="120" height="60" as="geometry" />
        </mxCell>
        <mxCell id="auQ4mcYpajBGoe2JOhch-9" style="edgeStyle=orthogonalEdgeStyle;rounded=0;orthogonalLoop=1;jettySize=auto;html=1;entryX=1;entryY=0.75;entryDx=0;entryDy=0;startArrow=box;startFill=0;endArrow=box;endFill=0;" parent="auQ4mcYpajBGoe2JOhch-1" source="auQ4mcYpajBGoe2JOhch-12" target="auQ4mcYpajBGoe2JOhch-26" edge="1">
          <mxGeometry relative="1" as="geometry">
            <Array as="points">
              <mxPoint x="1480" y="1115" />
            </Array>
          </mxGeometry>
        </mxCell>
        <mxCell id="auQ4mcYpajBGoe2JOhch-10" value="SDAI 起動リクエスト&lt;br&gt;SDAI通信状態確認" style="edgeLabel;html=1;align=center;verticalAlign=middle;resizable=0;points=[];" parent="auQ4mcYpajBGoe2JOhch-9" vertex="1" connectable="0">
          <mxGeometry x="-0.3332" y="-67" relative="1" as="geometry">
            <mxPoint x="6.9999999999999964" y="35" as="offset" />
          </mxGeometry>
        </mxCell>
        <mxCell id="auQ4mcYpajBGoe2JOhch-11" style="edgeStyle=orthogonalEdgeStyle;rounded=0;orthogonalLoop=1;jettySize=auto;html=1;entryX=0.5;entryY=1;entryDx=0;entryDy=0;startArrow=box;startFill=0;endArrow=box;endFill=0;exitX=0.75;exitY=1;exitDx=0;exitDy=0;" parent="auQ4mcYpajBGoe2JOhch-1" source="auQ4mcYpajBGoe2JOhch-12" target="auQ4mcYpajBGoe2JOhch-35" edge="1">
          <mxGeometry relative="1" as="geometry">
            <Array as="points">
              <mxPoint x="1510" y="1230" />
              <mxPoint x="725" y="1230" />
            </Array>
          </mxGeometry>
        </mxCell>
        <mxCell id="WjLrdkKy4gAfx3s70ggJ-27" style="edgeStyle=orthogonalEdgeStyle;rounded=0;orthogonalLoop=1;jettySize=auto;html=1;entryX=0.5;entryY=0;entryDx=0;entryDy=0;fontSize=20;startArrow=box;startFill=0;endArrow=box;endFill=0;" edge="1" parent="auQ4mcYpajBGoe2JOhch-1" source="auQ4mcYpajBGoe2JOhch-12" target="WjLrdkKy4gAfx3s70ggJ-1">
          <mxGeometry relative="1" as="geometry">
            <Array as="points">
              <mxPoint x="1520" y="210" />
              <mxPoint x="700" y="210" />
            </Array>
          </mxGeometry>
        </mxCell>
        <mxCell id="auQ4mcYpajBGoe2JOhch-12" value="&amp;lt;&amp;lt;Task&amp;gt;&amp;gt;&lt;br&gt;EIPManager&lt;br style=&quot;font-size: 14px&quot;&gt;通信設定制御" style="rounded=0;whiteSpace=wrap;html=1;fillColor=#fff2cc;strokeColor=#0000FF;strokeWidth=5;fontStyle=1;fontSize=14;" parent="auQ4mcYpajBGoe2JOhch-1" vertex="1">
          <mxGeometry x="1420" y="860" width="120" height="60" as="geometry" />
        </mxCell>
        <mxCell id="auQ4mcYpajBGoe2JOhch-13" style="edgeStyle=orthogonalEdgeStyle;rounded=0;orthogonalLoop=1;jettySize=auto;html=1;entryX=0.5;entryY=1;entryDx=0;entryDy=0;startArrow=box;startFill=0;endArrow=box;endFill=0;" parent="auQ4mcYpajBGoe2JOhch-1" source="auQ4mcYpajBGoe2JOhch-111" target="auQ4mcYpajBGoe2JOhch-32" edge="1">
          <mxGeometry relative="1" as="geometry">
            <mxPoint x="360" y="610" as="targetPoint" />
          </mxGeometry>
        </mxCell>
        <mxCell id="auQ4mcYpajBGoe2JOhch-14" style="edgeStyle=orthogonalEdgeStyle;rounded=0;orthogonalLoop=1;jettySize=auto;html=1;entryX=0;entryY=0.5;entryDx=0;entryDy=0;startArrow=box;startFill=0;endArrow=box;endFill=0;exitX=0.5;exitY=1;exitDx=0;exitDy=0;" parent="auQ4mcYpajBGoe2JOhch-1" source="auQ4mcYpajBGoe2JOhch-111" target="auQ4mcYpajBGoe2JOhch-26" edge="1">
          <mxGeometry relative="1" as="geometry" />
        </mxCell>
        <mxCell id="auQ4mcYpajBGoe2JOhch-15" value="" style="edgeStyle=orthogonalEdgeStyle;rounded=0;orthogonalLoop=1;jettySize=auto;html=1;endArrow=box;endFill=0;startArrow=box;startFill=0;exitX=0;exitY=0.5;exitDx=0;exitDy=0;entryX=1;entryY=0.75;entryDx=0;entryDy=0;" parent="auQ4mcYpajBGoe2JOhch-1" source="auQ4mcYpajBGoe2JOhch-79" target="auQ4mcYpajBGoe2JOhch-105" edge="1">
          <mxGeometry x="-0.3333" y="-10" relative="1" as="geometry">
            <mxPoint as="offset" />
            <mxPoint x="650" y="430" as="sourcePoint" />
            <mxPoint x="520" y="380" as="targetPoint" />
          </mxGeometry>
        </mxCell>
        <mxCell id="auQ4mcYpajBGoe2JOhch-16" style="edgeStyle=orthogonalEdgeStyle;rounded=0;orthogonalLoop=1;jettySize=auto;html=1;startArrow=box;startFill=0;endArrow=box;endFill=0;exitX=1;exitY=0.25;exitDx=0;exitDy=0;entryX=0.833;entryY=0;entryDx=0;entryDy=0;entryPerimeter=0;" parent="auQ4mcYpajBGoe2JOhch-1" source="auQ4mcYpajBGoe2JOhch-79" target="auQ4mcYpajBGoe2JOhch-21" edge="1">
          <mxGeometry relative="1" as="geometry">
            <mxPoint x="769" y="441" as="sourcePoint" />
            <mxPoint x="1362.5" y="490" as="targetPoint" />
          </mxGeometry>
        </mxCell>
        <mxCell id="auQ4mcYpajBGoe2JOhch-17" style="edgeStyle=orthogonalEdgeStyle;rounded=0;orthogonalLoop=1;jettySize=auto;html=1;startArrow=box;startFill=0;endArrow=box;endFill=0;exitX=0.317;exitY=1.008;exitDx=0;exitDy=0;exitPerimeter=0;" parent="auQ4mcYpajBGoe2JOhch-1" source="auQ4mcYpajBGoe2JOhch-79" target="auQ4mcYpajBGoe2JOhch-35" edge="1">
          <mxGeometry relative="1" as="geometry">
            <mxPoint x="680" y="400" as="sourcePoint" />
            <mxPoint x="680" y="270" as="targetPoint" />
            <Array as="points">
              <mxPoint x="903" y="850" />
              <mxPoint x="680" y="850" />
            </Array>
          </mxGeometry>
        </mxCell>
        <mxCell id="auQ4mcYpajBGoe2JOhch-18" value="PVデータ照合結果セット" style="edgeLabel;html=1;align=center;verticalAlign=middle;resizable=0;points=[];rotation=90;" parent="auQ4mcYpajBGoe2JOhch-17" vertex="1" connectable="0">
          <mxGeometry x="0.1714" y="3" relative="1" as="geometry">
            <mxPoint x="-50" y="207" as="offset" />
          </mxGeometry>
        </mxCell>
        <mxCell id="auQ4mcYpajBGoe2JOhch-19" style="edgeStyle=orthogonalEdgeStyle;rounded=0;orthogonalLoop=1;jettySize=auto;html=1;entryX=1;entryY=0.5;entryDx=0;entryDy=0;startArrow=box;startFill=0;endArrow=box;endFill=0;exitX=0.5;exitY=1;exitDx=0;exitDy=0;" parent="auQ4mcYpajBGoe2JOhch-1" source="auQ4mcYpajBGoe2JOhch-21" target="auQ4mcYpajBGoe2JOhch-26" edge="1">
          <mxGeometry relative="1" as="geometry" />
        </mxCell>
        <mxCell id="auQ4mcYpajBGoe2JOhch-20" style="edgeStyle=orthogonalEdgeStyle;rounded=0;orthogonalLoop=1;jettySize=auto;html=1;startArrow=box;startFill=0;endArrow=box;endFill=0;fontColor=#FF0000;entryX=0.5;entryY=1;entryDx=0;entryDy=0;exitX=0.25;exitY=0;exitDx=0;exitDy=0;" parent="auQ4mcYpajBGoe2JOhch-1" source="auQ4mcYpajBGoe2JOhch-21" target="auQ4mcYpajBGoe2JOhch-124" edge="1">
          <mxGeometry relative="1" as="geometry">
            <mxPoint x="1310" y="760" as="targetPoint" />
          </mxGeometry>
        </mxCell>
        <mxCell id="auQ4mcYpajBGoe2JOhch-21" value="&amp;lt;&amp;lt;Task&amp;gt;&amp;gt;&lt;br&gt;TDL&lt;br style=&quot;font-size: 14px&quot;&gt;TDLデータ制御" style="rounded=0;whiteSpace=wrap;html=1;fillColor=#fff2cc;strokeColor=#0000FF;strokeWidth=5;fontStyle=1;fontSize=14;" parent="auQ4mcYpajBGoe2JOhch-1" vertex="1">
          <mxGeometry x="1260" y="860" width="120" height="60" as="geometry" />
        </mxCell>
        <mxCell id="auQ4mcYpajBGoe2JOhch-22" style="edgeStyle=orthogonalEdgeStyle;rounded=0;orthogonalLoop=1;jettySize=auto;html=1;endArrow=box;endFill=0;startArrow=box;startFill=0;entryX=1;entryY=0.5;entryDx=0;entryDy=0;exitX=0;exitY=0.5;exitDx=0;exitDy=0;" parent="auQ4mcYpajBGoe2JOhch-1" source="auQ4mcYpajBGoe2JOhch-37" target="auQ4mcYpajBGoe2JOhch-32" edge="1">
          <mxGeometry relative="1" as="geometry">
            <mxPoint x="615" y="580" as="sourcePoint" />
            <mxPoint x="430" y="580" as="targetPoint" />
          </mxGeometry>
        </mxCell>
        <mxCell id="auQ4mcYpajBGoe2JOhch-23" value="接続台数分PVデータ取得&lt;br&gt;レスポンスデータセット" style="text;html=1;align=center;verticalAlign=middle;resizable=0;points=[];autosize=1;" parent="auQ4mcYpajBGoe2JOhch-1" vertex="1">
          <mxGeometry x="515" y="380.5" width="150" height="30" as="geometry" />
        </mxCell>
        <mxCell id="auQ4mcYpajBGoe2JOhch-24" value="設定データ書込実行" style="text;html=1;align=center;verticalAlign=middle;resizable=0;points=[];autosize=1;rotation=90;" parent="auQ4mcYpajBGoe2JOhch-1" vertex="1">
          <mxGeometry x="620" y="580" width="120" height="20" as="geometry" />
        </mxCell>
        <mxCell id="auQ4mcYpajBGoe2JOhch-25" value="本体設定データ&lt;br&gt;書き込み・読出し" style="text;html=1;align=center;verticalAlign=middle;resizable=0;points=[];autosize=1;" parent="auQ4mcYpajBGoe2JOhch-1" vertex="1">
          <mxGeometry x="458" y="691.67" width="110" height="30" as="geometry" />
        </mxCell>
        <mxCell id="auQ4mcYpajBGoe2JOhch-26" value="&amp;lt;&amp;lt;Task&amp;gt;&amp;gt;&lt;br&gt;ＳＤＡＩ&lt;br&gt;SDAI監視タスク" style="rounded=0;whiteSpace=wrap;html=1;fillColor=#ffe6cc;strokeColor=#0000FF;strokeWidth=5;fontStyle=1" parent="auQ4mcYpajBGoe2JOhch-1" vertex="1">
          <mxGeometry x="1000" y="1070" width="120" height="60" as="geometry" />
        </mxCell>
        <mxCell id="auQ4mcYpajBGoe2JOhch-27" value="INデータセット&lt;br&gt;OUTデータ取得リクエスト" style="text;html=1;align=center;verticalAlign=middle;resizable=0;points=[];autosize=1;rotation=90;" parent="auQ4mcYpajBGoe2JOhch-1" vertex="1">
          <mxGeometry x="1275" y="997.5" width="160" height="30" as="geometry" />
        </mxCell>
        <mxCell id="auQ4mcYpajBGoe2JOhch-28" value="OUTデータ受信通知(CB)" style="text;html=1;align=center;verticalAlign=middle;resizable=0;points=[];autosize=1;rotation=90;" parent="auQ4mcYpajBGoe2JOhch-1" vertex="1">
          <mxGeometry x="1215" y="1000" width="150" height="20" as="geometry" />
        </mxCell>
        <mxCell id="auQ4mcYpajBGoe2JOhch-29" value="EMリクエスト(CB)" style="text;html=1;align=center;verticalAlign=middle;resizable=0;points=[];autosize=1;rotation=90;" parent="auQ4mcYpajBGoe2JOhch-1" vertex="1">
          <mxGeometry x="895" y="1015" width="120" height="20" as="geometry" />
        </mxCell>
        <mxCell id="auQ4mcYpajBGoe2JOhch-30" style="edgeStyle=orthogonalEdgeStyle;rounded=0;orthogonalLoop=1;jettySize=auto;html=1;startArrow=none;startFill=0;endArrow=classic;endFill=1;exitX=1;exitY=0.5;exitDx=0;exitDy=0;entryX=0;entryY=0.5;entryDx=0;entryDy=0;" parent="auQ4mcYpajBGoe2JOhch-1" source="auQ4mcYpajBGoe2JOhch-33" target="auQ4mcYpajBGoe2JOhch-32" edge="1">
          <mxGeometry relative="1" as="geometry">
            <mxPoint x="315.5344827586207" y="460" as="sourcePoint" />
          </mxGeometry>
        </mxCell>
        <mxCell id="auQ4mcYpajBGoe2JOhch-31" style="edgeStyle=orthogonalEdgeStyle;rounded=0;orthogonalLoop=1;jettySize=auto;html=1;entryX=0.25;entryY=1;entryDx=0;entryDy=0;startArrow=none;startFill=0;endArrow=classic;endFill=1;exitX=0.5;exitY=0;exitDx=0;exitDy=0;" parent="auQ4mcYpajBGoe2JOhch-1" source="auQ4mcYpajBGoe2JOhch-32" target="WjLrdkKy4gAfx3s70ggJ-1" edge="1">
          <mxGeometry relative="1" as="geometry">
            <mxPoint x="290" y="696" as="sourcePoint" />
            <mxPoint x="375" y="635" as="targetPoint" />
            <Array as="points">
              <mxPoint x="301" y="540" />
              <mxPoint x="670" y="540" />
            </Array>
          </mxGeometry>
        </mxCell>
        <mxCell id="auQ4mcYpajBGoe2JOhch-32" value="&amp;lt;&amp;lt;Task&amp;gt;&amp;gt;&lt;br style=&quot;font-size: 14px&quot;&gt;UnitMgr&lt;br&gt;ユニット管理データ制御" style="rounded=0;whiteSpace=wrap;html=1;fillColor=#dae8fc;strokeColor=#FF0000;strokeWidth=5;fontStyle=1;fontSize=14;" parent="auQ4mcYpajBGoe2JOhch-1" vertex="1">
          <mxGeometry x="230.5" y="695" width="140" height="70" as="geometry" />
        </mxCell>
        <mxCell id="auQ4mcYpajBGoe2JOhch-33" value="&amp;lt;&amp;lt;Cycle&amp;gt;&amp;gt;&lt;br&gt;600s周期ハンドラ&lt;br&gt;累積通電時間" style="rounded=0;whiteSpace=wrap;html=1;strokeColor=#0000FF;strokeWidth=5;" parent="auQ4mcYpajBGoe2JOhch-1" vertex="1">
          <mxGeometry x="25.5" y="700" width="120" height="60" as="geometry" />
        </mxCell>
        <mxCell id="auQ4mcYpajBGoe2JOhch-35" value="&amp;lt;&amp;lt;Semaphore&amp;gt;&amp;gt;&lt;br&gt;StatusMgr&lt;br&gt;状態管理" style="rounded=0;whiteSpace=wrap;html=1;fillColor=#dae8fc;strokeColor=#FF0000;strokeWidth=5;" parent="auQ4mcYpajBGoe2JOhch-1" vertex="1">
          <mxGeometry x="665" y="1140" width="120" height="60" as="geometry" />
        </mxCell>
        <mxCell id="auQ4mcYpajBGoe2JOhch-36" style="edgeStyle=none;rounded=0;orthogonalLoop=1;jettySize=auto;html=1;exitX=0.75;exitY=0;exitDx=0;exitDy=0;entryX=0;entryY=0.75;entryDx=0;entryDy=0;startArrow=box;startFill=0;endArrow=box;endFill=0;fontColor=#FF0000;" parent="auQ4mcYpajBGoe2JOhch-1" source="auQ4mcYpajBGoe2JOhch-37" target="auQ4mcYpajBGoe2JOhch-79" edge="1">
          <mxGeometry relative="1" as="geometry">
            <Array as="points">
              <mxPoint x="700" y="456" />
            </Array>
          </mxGeometry>
        </mxCell>
        <mxCell id="auQ4mcYpajBGoe2JOhch-37" value="&amp;lt;&amp;lt;Task&amp;gt;&amp;gt;&lt;br style=&quot;font-size: 14px&quot;&gt;Storage&lt;br&gt;データ保存" style="rounded=0;whiteSpace=wrap;html=1;fillColor=#dae8fc;strokeColor=#0000FF;strokeWidth=5;fontStyle=1;fontSize=14;" parent="auQ4mcYpajBGoe2JOhch-1" vertex="1">
          <mxGeometry x="610" y="700" width="120" height="60" as="geometry" />
        </mxCell>
        <mxCell id="auQ4mcYpajBGoe2JOhch-38" value="&amp;lt;&amp;lt;Interrupt&amp;gt;&amp;gt;&lt;br&gt;ECCエラー割り込み" style="rounded=0;whiteSpace=wrap;html=1;strokeColor=#0000FF;strokeWidth=5;" parent="auQ4mcYpajBGoe2JOhch-1" vertex="1">
          <mxGeometry x="760" y="700" width="120" height="60" as="geometry" />
        </mxCell>
        <mxCell id="auQ4mcYpajBGoe2JOhch-39" value="・黒枠：新規&lt;br&gt;・赤枠：改造&lt;br&gt;・青枠：流用&lt;br&gt;・太字：タスク&lt;br&gt;　　　　メッセージキュー" style="shape=note;whiteSpace=wrap;html=1;backgroundOutline=1;darkOpacity=0.05;strokeColor=#b85450;strokeWidth=1;fillColor=#f8cecc;align=left;" parent="auQ4mcYpajBGoe2JOhch-1" vertex="1">
          <mxGeometry x="1080" y="10" width="160" height="100" as="geometry" />
        </mxCell>
        <mxCell id="auQ4mcYpajBGoe2JOhch-40" style="edgeStyle=none;rounded=0;orthogonalLoop=1;jettySize=auto;html=1;startArrow=none;startFill=0;endArrow=classic;endFill=1;fontColor=#000000;" parent="auQ4mcYpajBGoe2JOhch-1" source="auQ4mcYpajBGoe2JOhch-41" target="auQ4mcYpajBGoe2JOhch-45" edge="1">
          <mxGeometry relative="1" as="geometry" />
        </mxCell>
        <mxCell id="auQ4mcYpajBGoe2JOhch-41" value="&amp;lt;&amp;lt;Interrupt&amp;gt;&amp;gt;&lt;br&gt;DMA割り込み&lt;br&gt;コマンド送受信&lt;br&gt;最短60us周期" style="rounded=0;whiteSpace=wrap;html=1;fillColor=#FFFFFF;strokeColor=#000000;strokeWidth=5;fontColor=#333333;" parent="auQ4mcYpajBGoe2JOhch-1" vertex="1">
          <mxGeometry x="25.5" y="420" width="120" height="60" as="geometry" />
        </mxCell>
        <mxCell id="auQ4mcYpajBGoe2JOhch-45" value="&amp;lt;&amp;lt;Interface&amp;gt;&amp;gt;&lt;br&gt;UART割り込み制御" style="rounded=0;whiteSpace=wrap;html=1;fillColor=#f8cecc;strokeColor=#000000;strokeWidth=5;" parent="auQ4mcYpajBGoe2JOhch-1" vertex="1">
          <mxGeometry x="25.5" y="320" width="120" height="60" as="geometry" />
        </mxCell>
        <mxCell id="auQ4mcYpajBGoe2JOhch-46" value="OUTデータセット" style="text;html=1;align=center;verticalAlign=middle;resizable=0;points=[];autosize=1;fontColor=#000000;rotation=90;fontStyle=0" parent="auQ4mcYpajBGoe2JOhch-1" vertex="1">
          <mxGeometry x="1215" y="662.5" width="110" height="20" as="geometry" />
        </mxCell>
        <mxCell id="auQ4mcYpajBGoe2JOhch-47" value="" style="endArrow=classic;html=1;fontColor=#FF3333;" parent="auQ4mcYpajBGoe2JOhch-1" edge="1">
          <mxGeometry width="50" height="50" relative="1" as="geometry">
            <mxPoint x="1370" y="652.5" as="sourcePoint" />
            <mxPoint x="1370" y="712.5" as="targetPoint" />
          </mxGeometry>
        </mxCell>
        <mxCell id="auQ4mcYpajBGoe2JOhch-48" value="" style="endArrow=classic;html=1;fontColor=#FF3333;" parent="auQ4mcYpajBGoe2JOhch-1" edge="1">
          <mxGeometry width="50" height="50" relative="1" as="geometry">
            <mxPoint x="1279.52" y="707.5" as="sourcePoint" />
            <mxPoint x="1279.52" y="642.5" as="targetPoint" />
          </mxGeometry>
        </mxCell>
        <mxCell id="auQ4mcYpajBGoe2JOhch-49" value="" style="endArrow=classic;html=1;fontColor=#FF3333;" parent="auQ4mcYpajBGoe2JOhch-1" edge="1">
          <mxGeometry width="50" height="50" relative="1" as="geometry">
            <mxPoint x="627" y="374.5" as="sourcePoint" />
            <mxPoint x="546.5" y="374.5" as="targetPoint" />
          </mxGeometry>
        </mxCell>
        <mxCell id="auQ4mcYpajBGoe2JOhch-50" value="&lt;span style=&quot;font-size: 12px ; background-color: rgb(248 , 249 , 250)&quot;&gt;&lt;br&gt;&lt;/span&gt;" style="edgeLabel;html=1;align=center;verticalAlign=middle;resizable=0;points=[];" parent="auQ4mcYpajBGoe2JOhch-1" vertex="1" connectable="0">
          <mxGeometry x="1065.7533333333336" y="300" as="geometry">
            <mxPoint x="-10" y="5" as="offset" />
          </mxGeometry>
        </mxCell>
        <mxCell id="auQ4mcYpajBGoe2JOhch-51" style="edgeStyle=none;rounded=0;orthogonalLoop=1;jettySize=auto;html=1;startArrow=none;startFill=0;endArrow=classic;endFill=1;fontColor=#000000;entryX=1;entryY=0.5;entryDx=0;entryDy=0;exitX=0;exitY=0.5;exitDx=0;exitDy=0;" parent="auQ4mcYpajBGoe2JOhch-1" source="auQ4mcYpajBGoe2JOhch-38" target="auQ4mcYpajBGoe2JOhch-37" edge="1">
          <mxGeometry relative="1" as="geometry">
            <mxPoint x="130" y="570" as="sourcePoint" />
            <mxPoint x="130" y="500" as="targetPoint" />
          </mxGeometry>
        </mxCell>
        <mxCell id="auQ4mcYpajBGoe2JOhch-52" value="Message&lt;br&gt;アンプ送信コマンド受信通知" style="text;html=1;align=center;verticalAlign=middle;resizable=0;points=[];autosize=1;fontColor=#000000;rotation=90;fontStyle=1" parent="auQ4mcYpajBGoe2JOhch-1" vertex="1">
          <mxGeometry x="874" y="692.5" width="170" height="30" as="geometry" />
        </mxCell>
        <mxCell id="auQ4mcYpajBGoe2JOhch-53" value="" style="endArrow=classic;html=1;fontColor=#FF3333;" parent="auQ4mcYpajBGoe2JOhch-1" edge="1">
          <mxGeometry width="50" height="50" relative="1" as="geometry">
            <mxPoint x="974" y="735" as="sourcePoint" />
            <mxPoint x="974" y="670" as="targetPoint" />
          </mxGeometry>
        </mxCell>
        <mxCell id="auQ4mcYpajBGoe2JOhch-54" value="" style="endArrow=classic;html=1;fontColor=#FF3333;" parent="auQ4mcYpajBGoe2JOhch-1" edge="1">
          <mxGeometry width="50" height="50" relative="1" as="geometry">
            <mxPoint x="985.58" y="672.5" as="sourcePoint" />
            <mxPoint x="985.58" y="732.5" as="targetPoint" />
          </mxGeometry>
        </mxCell>
        <mxCell id="auQ4mcYpajBGoe2JOhch-55" value="アンプ設定書き込みレスポンス" style="text;html=1;align=center;verticalAlign=middle;resizable=0;points=[];autosize=1;rotation=90;" parent="auQ4mcYpajBGoe2JOhch-1" vertex="1">
          <mxGeometry x="916" y="692.5" width="180" height="20" as="geometry" />
        </mxCell>
        <mxCell id="auQ4mcYpajBGoe2JOhch-56" value="Message&lt;br&gt;接続台数分PVデータ受信通知" style="text;html=1;align=center;verticalAlign=middle;resizable=0;points=[];autosize=1;fontStyle=1" parent="auQ4mcYpajBGoe2JOhch-1" vertex="1">
          <mxGeometry x="685" y="400" width="180" height="30" as="geometry" />
        </mxCell>
        <mxCell id="auQ4mcYpajBGoe2JOhch-57" value="" style="endArrow=classic;html=1;fontColor=#FF3333;entryX=0.899;entryY=1.017;entryDx=0;entryDy=0;entryPerimeter=0;" parent="auQ4mcYpajBGoe2JOhch-1" edge="1">
          <mxGeometry width="50" height="50" relative="1" as="geometry">
            <mxPoint x="724.5799999999997" y="431.25" as="sourcePoint" />
            <mxPoint x="820.8600000000001" y="431.5899999999999" as="targetPoint" />
          </mxGeometry>
        </mxCell>
        <mxCell id="auQ4mcYpajBGoe2JOhch-61" value="" style="endArrow=classic;html=1;fontColor=#FF3333;" parent="auQ4mcYpajBGoe2JOhch-1" edge="1">
          <mxGeometry width="50" height="50" relative="1" as="geometry">
            <mxPoint x="528" y="130" as="sourcePoint" />
            <mxPoint x="478" y="130" as="targetPoint" />
          </mxGeometry>
        </mxCell>
        <mxCell id="auQ4mcYpajBGoe2JOhch-62" value="起動処理実行" style="text;html=1;align=center;verticalAlign=middle;resizable=0;points=[];autosize=1;" parent="auQ4mcYpajBGoe2JOhch-1" vertex="1">
          <mxGeometry x="458" y="130" width="90" height="20" as="geometry" />
        </mxCell>
        <mxCell id="auQ4mcYpajBGoe2JOhch-63" style="edgeStyle=orthogonalEdgeStyle;rounded=0;orthogonalLoop=1;jettySize=auto;html=1;entryX=1;entryY=0.25;entryDx=0;entryDy=0;startArrow=box;startFill=0;endArrow=box;endFill=0;fontColor=#000000;" parent="auQ4mcYpajBGoe2JOhch-1" source="auQ4mcYpajBGoe2JOhch-67" target="auQ4mcYpajBGoe2JOhch-26" edge="1">
          <mxGeometry relative="1" as="geometry">
            <Array as="points">
              <mxPoint x="1160" y="1085" />
            </Array>
          </mxGeometry>
        </mxCell>
        <mxCell id="auQ4mcYpajBGoe2JOhch-64" style="edgeStyle=orthogonalEdgeStyle;rounded=0;orthogonalLoop=1;jettySize=auto;html=1;entryX=1;entryY=0.75;entryDx=0;entryDy=0;startArrow=box;startFill=0;endArrow=box;endFill=0;" parent="auQ4mcYpajBGoe2JOhch-1" source="auQ4mcYpajBGoe2JOhch-67" target="auQ4mcYpajBGoe2JOhch-79" edge="1">
          <mxGeometry relative="1" as="geometry">
            <Array as="points">
              <mxPoint x="1160" y="455" />
            </Array>
          </mxGeometry>
        </mxCell>
        <mxCell id="auQ4mcYpajBGoe2JOhch-65" style="edgeStyle=orthogonalEdgeStyle;rounded=0;orthogonalLoop=1;jettySize=auto;html=1;startArrow=box;startFill=0;endArrow=box;endFill=0;exitX=0.25;exitY=1;exitDx=0;exitDy=0;entryX=0.25;entryY=1;entryDx=0;entryDy=0;" parent="auQ4mcYpajBGoe2JOhch-1" source="auQ4mcYpajBGoe2JOhch-67" target="auQ4mcYpajBGoe2JOhch-32" edge="1">
          <mxGeometry relative="1" as="geometry">
            <mxPoint x="330" y="770" as="targetPoint" />
            <Array as="points">
              <mxPoint x="1115" y="970" />
              <mxPoint x="266" y="970" />
            </Array>
          </mxGeometry>
        </mxCell>
        <mxCell id="auQ4mcYpajBGoe2JOhch-66" style="edgeStyle=orthogonalEdgeStyle;rounded=0;orthogonalLoop=1;jettySize=auto;html=1;entryX=0.5;entryY=1;entryDx=0;entryDy=0;startArrow=box;startFill=0;endArrow=box;endFill=0;fontColor=#FF0000;exitX=0.25;exitY=0;exitDx=0;exitDy=0;" parent="auQ4mcYpajBGoe2JOhch-1" source="auQ4mcYpajBGoe2JOhch-67" target="auQ4mcYpajBGoe2JOhch-37" edge="1">
          <mxGeometry relative="1" as="geometry">
            <Array as="points">
              <mxPoint x="1115" y="830" />
              <mxPoint x="670" y="830" />
            </Array>
          </mxGeometry>
        </mxCell>
        <mxCell id="auQ4mcYpajBGoe2JOhch-67" value="&amp;lt;&amp;lt;Task&amp;gt;&amp;gt;&lt;br&gt;TCPIP&lt;br style=&quot;font-size: 14px&quot;&gt;TCP/IPコマンド解析" style="rounded=0;whiteSpace=wrap;html=1;fillColor=#fff2cc;strokeColor=#0000FF;strokeWidth=5;fontStyle=1;fontSize=14;" parent="auQ4mcYpajBGoe2JOhch-1" vertex="1">
          <mxGeometry x="1080" y="860" width="140" height="60" as="geometry" />
        </mxCell>
        <mxCell id="auQ4mcYpajBGoe2JOhch-68" value="TCP/IPリクエスト(CB)" style="text;html=1;align=center;verticalAlign=middle;resizable=0;points=[];autosize=1;rotation=90;" parent="auQ4mcYpajBGoe2JOhch-1" vertex="1">
          <mxGeometry x="1070" y="995" width="140" height="20" as="geometry" />
        </mxCell>
        <mxCell id="auQ4mcYpajBGoe2JOhch-69" value="ユニット管理設定変更実行" style="text;html=1;align=center;verticalAlign=middle;resizable=0;points=[];autosize=1;" parent="auQ4mcYpajBGoe2JOhch-1" vertex="1">
          <mxGeometry x="433" y="900" width="160" height="20" as="geometry" />
        </mxCell>
        <mxCell id="auQ4mcYpajBGoe2JOhch-70" value="設定変更完了通知" style="text;html=1;align=center;verticalAlign=middle;resizable=0;points=[];autosize=1;" parent="auQ4mcYpajBGoe2JOhch-1" vertex="1">
          <mxGeometry x="458" y="860" width="110" height="20" as="geometry" />
        </mxCell>
        <mxCell id="auQ4mcYpajBGoe2JOhch-71" value="Message&lt;br&gt;アンプ送信コマンド受信通知" style="text;html=1;align=center;verticalAlign=middle;resizable=0;points=[];autosize=1;fontColor=#000000;rotation=90;fontStyle=1" parent="auQ4mcYpajBGoe2JOhch-1" vertex="1">
          <mxGeometry x="1050" y="670" width="170" height="30" as="geometry" />
        </mxCell>
        <mxCell id="auQ4mcYpajBGoe2JOhch-72" value="" style="endArrow=classic;html=1;fontColor=#FF3333;" parent="auQ4mcYpajBGoe2JOhch-1" edge="1">
          <mxGeometry width="50" height="50" relative="1" as="geometry">
            <mxPoint x="1150" y="712.5" as="sourcePoint" />
            <mxPoint x="1150" y="647.5" as="targetPoint" />
          </mxGeometry>
        </mxCell>
        <mxCell id="auQ4mcYpajBGoe2JOhch-73" value="" style="endArrow=classic;html=1;fontColor=#FF3333;" parent="auQ4mcYpajBGoe2JOhch-1" edge="1">
          <mxGeometry width="50" height="50" relative="1" as="geometry">
            <mxPoint x="1174.58" y="650" as="sourcePoint" />
            <mxPoint x="1174.58" y="710" as="targetPoint" />
          </mxGeometry>
        </mxCell>
        <mxCell id="auQ4mcYpajBGoe2JOhch-74" value="アンプ設定書き込みレスポンス&lt;br&gt;ロギングデータレスポンス" style="text;html=1;align=center;verticalAlign=middle;resizable=0;points=[];autosize=1;rotation=90;" parent="auQ4mcYpajBGoe2JOhch-1" vertex="1">
          <mxGeometry x="1105" y="665" width="180" height="30" as="geometry" />
        </mxCell>
        <mxCell id="auQ4mcYpajBGoe2JOhch-75" value="" style="endArrow=classic;html=1;fontColor=#FF3333;" parent="auQ4mcYpajBGoe2JOhch-1" edge="1">
          <mxGeometry width="50" height="50" relative="1" as="geometry">
            <mxPoint x="1096" y="289.9999999999998" as="sourcePoint" />
            <mxPoint x="1015.5" y="289.9999999999998" as="targetPoint" />
          </mxGeometry>
        </mxCell>
        <mxCell id="auQ4mcYpajBGoe2JOhch-76" value="PVデータセット" style="text;html=1;align=center;verticalAlign=middle;resizable=0;points=[];autosize=1;" parent="auQ4mcYpajBGoe2JOhch-1" vertex="1">
          <mxGeometry x="220" y="316" width="100" height="20" as="geometry" />
        </mxCell>
        <mxCell id="auQ4mcYpajBGoe2JOhch-77" value="" style="endArrow=classic;html=1;fontColor=#FF3333;" parent="auQ4mcYpajBGoe2JOhch-1" edge="1">
          <mxGeometry width="50" height="50" relative="1" as="geometry">
            <mxPoint x="230" y="342" as="sourcePoint" />
            <mxPoint x="318" y="342" as="targetPoint" />
          </mxGeometry>
        </mxCell>
        <mxCell id="auQ4mcYpajBGoe2JOhch-78" value="" style="endArrow=classic;html=1;fontColor=#FF3333;" parent="auQ4mcYpajBGoe2JOhch-1" edge="1">
          <mxGeometry width="50" height="50" relative="1" as="geometry">
            <mxPoint x="310" y="360.16999999999996" as="sourcePoint" />
            <mxPoint x="229.50000000000023" y="360.16999999999996" as="targetPoint" />
          </mxGeometry>
        </mxCell>
        <mxCell id="Btkslah-GqekgVZT_S36-1" style="edgeStyle=orthogonalEdgeStyle;rounded=0;orthogonalLoop=1;jettySize=auto;html=1;entryX=0.5;entryY=1;entryDx=0;entryDy=0;fontSize=20;startArrow=box;startFill=0;endArrow=box;endFill=0;" edge="1" parent="auQ4mcYpajBGoe2JOhch-1" source="auQ4mcYpajBGoe2JOhch-79" target="Btkslah-GqekgVZT_S36-0">
          <mxGeometry relative="1" as="geometry" />
        </mxCell>
        <mxCell id="auQ4mcYpajBGoe2JOhch-79" value="&lt;span style=&quot;font-size: 14px ; font-weight: 700&quot;&gt;&amp;lt;&amp;lt;Task&amp;gt;&amp;gt;&lt;/span&gt;&lt;br style=&quot;font-size: 14px ; font-weight: 700&quot;&gt;&lt;span style=&quot;font-size: 14px ; font-weight: 700&quot;&gt;UnitScheduler&lt;/span&gt;&lt;br style=&quot;font-size: 14px ; font-weight: 700&quot;&gt;&lt;span style=&quot;font-size: 14px ; font-weight: 700&quot;&gt;ジョブ管理&lt;/span&gt;" style="rounded=0;whiteSpace=wrap;html=1;fillColor=#dae8fc;strokeColor=#FF0000;strokeWidth=5;" parent="auQ4mcYpajBGoe2JOhch-1" vertex="1">
          <mxGeometry x="865" y="410.5" width="120" height="60" as="geometry" />
        </mxCell>
        <mxCell id="auQ4mcYpajBGoe2JOhch-80" value="アンプ設定データ保存" style="text;html=1;align=center;verticalAlign=middle;resizable=0;points=[];autosize=1;rotation=90;" parent="auQ4mcYpajBGoe2JOhch-1" vertex="1">
          <mxGeometry x="660" y="565" width="140" height="20" as="geometry" />
        </mxCell>
        <mxCell id="auQ4mcYpajBGoe2JOhch-81" value="" style="endArrow=classic;html=1;fontColor=#FF3333;" parent="auQ4mcYpajBGoe2JOhch-1" edge="1">
          <mxGeometry width="50" height="50" relative="1" as="geometry">
            <mxPoint x="712" y="545" as="sourcePoint" />
            <mxPoint x="712" y="635" as="targetPoint" />
          </mxGeometry>
        </mxCell>
        <mxCell id="auQ4mcYpajBGoe2JOhch-82" value="" style="endArrow=classic;html=1;fontColor=#FF3333;" parent="auQ4mcYpajBGoe2JOhch-1" edge="1">
          <mxGeometry width="50" height="50" relative="1" as="geometry">
            <mxPoint x="468" y="721.67" as="sourcePoint" />
            <mxPoint x="558" y="721.67" as="targetPoint" />
          </mxGeometry>
        </mxCell>
        <mxCell id="auQ4mcYpajBGoe2JOhch-83" value="" style="endArrow=classic;html=1;fontColor=#FF3333;" parent="auQ4mcYpajBGoe2JOhch-1" edge="1">
          <mxGeometry width="50" height="50" relative="1" as="geometry">
            <mxPoint x="474.25" y="880" as="sourcePoint" />
            <mxPoint x="564.25" y="880" as="targetPoint" />
          </mxGeometry>
        </mxCell>
        <mxCell id="auQ4mcYpajBGoe2JOhch-84" value="" style="endArrow=classic;html=1;fontColor=#FF3333;" parent="auQ4mcYpajBGoe2JOhch-1" edge="1">
          <mxGeometry width="50" height="50" relative="1" as="geometry">
            <mxPoint x="561.75" y="900" as="sourcePoint" />
            <mxPoint x="466.75" y="900" as="targetPoint" />
          </mxGeometry>
        </mxCell>
        <mxCell id="auQ4mcYpajBGoe2JOhch-85" value="ユニット管理設定変更実行" style="text;html=1;align=center;verticalAlign=middle;resizable=0;points=[];autosize=1;" parent="auQ4mcYpajBGoe2JOhch-1" vertex="1">
          <mxGeometry x="433" y="975" width="160" height="20" as="geometry" />
        </mxCell>
        <mxCell id="auQ4mcYpajBGoe2JOhch-86" value="設定変更完了通知" style="text;html=1;align=center;verticalAlign=middle;resizable=0;points=[];autosize=1;" parent="auQ4mcYpajBGoe2JOhch-1" vertex="1">
          <mxGeometry x="458" y="939.5" width="110" height="20" as="geometry" />
        </mxCell>
        <mxCell id="auQ4mcYpajBGoe2JOhch-87" value="" style="endArrow=classic;html=1;fontColor=#FF3333;" parent="auQ4mcYpajBGoe2JOhch-1" edge="1">
          <mxGeometry width="50" height="50" relative="1" as="geometry">
            <mxPoint x="464.25" y="959.5" as="sourcePoint" />
            <mxPoint x="554.25" y="959.5" as="targetPoint" />
          </mxGeometry>
        </mxCell>
        <mxCell id="auQ4mcYpajBGoe2JOhch-88" value="" style="endArrow=classic;html=1;fontColor=#FF3333;" parent="auQ4mcYpajBGoe2JOhch-1" edge="1">
          <mxGeometry width="50" height="50" relative="1" as="geometry">
            <mxPoint x="556.75" y="974.5" as="sourcePoint" />
            <mxPoint x="461.75" y="974.5" as="targetPoint" />
          </mxGeometry>
        </mxCell>
        <mxCell id="auQ4mcYpajBGoe2JOhch-89" value="" style="endArrow=classic;html=1;fontColor=#FF3333;" parent="auQ4mcYpajBGoe2JOhch-1" edge="1">
          <mxGeometry width="50" height="50" relative="1" as="geometry">
            <mxPoint x="1329.5" y="975" as="sourcePoint" />
            <mxPoint x="1329.5" y="1035" as="targetPoint" />
          </mxGeometry>
        </mxCell>
        <mxCell id="auQ4mcYpajBGoe2JOhch-90" value="" style="endArrow=classic;html=1;fontColor=#FF3333;" parent="auQ4mcYpajBGoe2JOhch-1" edge="1">
          <mxGeometry width="50" height="50" relative="1" as="geometry">
            <mxPoint x="1309.5" y="1037.5" as="sourcePoint" />
            <mxPoint x="1309.5" y="972.5" as="targetPoint" />
          </mxGeometry>
        </mxCell>
        <mxCell id="auQ4mcYpajBGoe2JOhch-91" value="EM応答" style="text;html=1;align=center;verticalAlign=middle;resizable=0;points=[];autosize=1;fontColor=#000000;rotation=90;" parent="auQ4mcYpajBGoe2JOhch-1" vertex="1">
          <mxGeometry x="970" y="1000" width="60" height="20" as="geometry" />
        </mxCell>
        <mxCell id="auQ4mcYpajBGoe2JOhch-92" value="" style="endArrow=classic;html=1;fontColor=#FF3333;" parent="auQ4mcYpajBGoe2JOhch-1" edge="1">
          <mxGeometry width="50" height="50" relative="1" as="geometry">
            <mxPoint x="990.5" y="982.5" as="sourcePoint" />
            <mxPoint x="990" y="1037.5" as="targetPoint" />
          </mxGeometry>
        </mxCell>
        <mxCell id="auQ4mcYpajBGoe2JOhch-93" value="" style="endArrow=classic;html=1;fontColor=#FF3333;" parent="auQ4mcYpajBGoe2JOhch-1" edge="1">
          <mxGeometry width="50" height="50" relative="1" as="geometry">
            <mxPoint x="970" y="1040" as="sourcePoint" />
            <mxPoint x="970" y="980" as="targetPoint" />
          </mxGeometry>
        </mxCell>
        <mxCell id="auQ4mcYpajBGoe2JOhch-94" value="TCP/IP応答" style="text;html=1;align=center;verticalAlign=middle;resizable=0;points=[];autosize=1;fontColor=#000000;rotation=90;" parent="auQ4mcYpajBGoe2JOhch-1" vertex="1">
          <mxGeometry x="1145" y="990" width="80" height="20" as="geometry" />
        </mxCell>
        <mxCell id="auQ4mcYpajBGoe2JOhch-95" value="" style="endArrow=classic;html=1;fontColor=#FF3333;" parent="auQ4mcYpajBGoe2JOhch-1" edge="1">
          <mxGeometry width="50" height="50" relative="1" as="geometry">
            <mxPoint x="1170" y="962.5" as="sourcePoint" />
            <mxPoint x="1170" y="1022.5" as="targetPoint" />
          </mxGeometry>
        </mxCell>
        <mxCell id="auQ4mcYpajBGoe2JOhch-96" value="" style="endArrow=classic;html=1;fontColor=#FF3333;" parent="auQ4mcYpajBGoe2JOhch-1" edge="1">
          <mxGeometry width="50" height="50" relative="1" as="geometry">
            <mxPoint x="1150" y="1037.5" as="sourcePoint" />
            <mxPoint x="1150" y="972.5" as="targetPoint" />
          </mxGeometry>
        </mxCell>
        <mxCell id="auQ4mcYpajBGoe2JOhch-97" value="&lt;span style=&quot;font-size: 11px ; background-color: rgb(255 , 255 , 255)&quot;&gt;SDAI起動完了通知&lt;br&gt;通信エラー通知&lt;br&gt;&lt;/span&gt;" style="text;html=1;align=center;verticalAlign=middle;resizable=0;points=[];autosize=1;fontColor=#000000;" parent="auQ4mcYpajBGoe2JOhch-1" vertex="1">
          <mxGeometry x="1365" y="1075" width="110" height="30" as="geometry" />
        </mxCell>
        <mxCell id="auQ4mcYpajBGoe2JOhch-98" value="" style="endArrow=classic;html=1;fontColor=#FF3333;" parent="auQ4mcYpajBGoe2JOhch-1" edge="1">
          <mxGeometry width="50" height="50" relative="1" as="geometry">
            <mxPoint x="1387.5" y="1110" as="sourcePoint" />
            <mxPoint x="1457.5" y="1110" as="targetPoint" />
          </mxGeometry>
        </mxCell>
        <mxCell id="auQ4mcYpajBGoe2JOhch-99" value="" style="endArrow=classic;html=1;fontColor=#FF3333;" parent="auQ4mcYpajBGoe2JOhch-1" edge="1">
          <mxGeometry width="50" height="50" relative="1" as="geometry">
            <mxPoint x="1460.25" y="1120.5" as="sourcePoint" />
            <mxPoint x="1384.75" y="1120" as="targetPoint" />
          </mxGeometry>
        </mxCell>
        <mxCell id="auQ4mcYpajBGoe2JOhch-100" value="&lt;span style=&quot;font-size: 11px ; background-color: rgb(255 , 255 , 255)&quot;&gt;EIP起動完了通知&lt;/span&gt;" style="text;html=1;align=center;verticalAlign=middle;resizable=0;points=[];autosize=1;fontColor=#000000;rotation=90;" parent="auQ4mcYpajBGoe2JOhch-1" vertex="1">
          <mxGeometry x="1385.5" y="676.5" width="100" height="20" as="geometry" />
        </mxCell>
        <mxCell id="auQ4mcYpajBGoe2JOhch-101" value="" style="endArrow=classic;html=1;fontColor=#FF3333;" parent="auQ4mcYpajBGoe2JOhch-1" edge="1">
          <mxGeometry width="50" height="50" relative="1" as="geometry">
            <mxPoint x="1460" y="656.5" as="sourcePoint" />
            <mxPoint x="1460" y="716.5" as="targetPoint" />
          </mxGeometry>
        </mxCell>
        <mxCell id="auQ4mcYpajBGoe2JOhch-102" value="" style="endArrow=classic;html=1;fontColor=#FF3333;" parent="auQ4mcYpajBGoe2JOhch-1" edge="1">
          <mxGeometry width="50" height="50" relative="1" as="geometry">
            <mxPoint x="1445" y="721.5" as="sourcePoint" />
            <mxPoint x="1445" y="656.5" as="targetPoint" />
          </mxGeometry>
        </mxCell>
        <mxCell id="WjLrdkKy4gAfx3s70ggJ-2" style="edgeStyle=orthogonalEdgeStyle;rounded=0;orthogonalLoop=1;jettySize=auto;html=1;entryX=0;entryY=0.5;entryDx=0;entryDy=0;fontSize=20;startArrow=box;startFill=0;endArrow=box;endFill=0;exitX=1;exitY=0.25;exitDx=0;exitDy=0;" edge="1" parent="auQ4mcYpajBGoe2JOhch-1" source="auQ4mcYpajBGoe2JOhch-105" target="WjLrdkKy4gAfx3s70ggJ-1">
          <mxGeometry relative="1" as="geometry" />
        </mxCell>
        <mxCell id="WjLrdkKy4gAfx3s70ggJ-18" style="edgeStyle=orthogonalEdgeStyle;rounded=0;orthogonalLoop=1;jettySize=auto;html=1;entryX=0.25;entryY=0;entryDx=0;entryDy=0;fontSize=20;startArrow=box;startFill=0;endArrow=box;endFill=0;exitX=0.75;exitY=1;exitDx=0;exitDy=0;" edge="1" parent="auQ4mcYpajBGoe2JOhch-1" source="auQ4mcYpajBGoe2JOhch-105" target="auQ4mcYpajBGoe2JOhch-37">
          <mxGeometry relative="1" as="geometry">
            <Array as="points">
              <mxPoint x="481" y="430" />
              <mxPoint x="640" y="430" />
            </Array>
          </mxGeometry>
        </mxCell>
        <mxCell id="WjLrdkKy4gAfx3s70ggJ-22" style="edgeStyle=orthogonalEdgeStyle;rounded=0;orthogonalLoop=1;jettySize=auto;html=1;entryX=0;entryY=0.5;entryDx=0;entryDy=0;fontSize=20;startArrow=box;startFill=0;endArrow=box;endFill=0;" edge="1" parent="auQ4mcYpajBGoe2JOhch-1" source="auQ4mcYpajBGoe2JOhch-105" target="auQ4mcYpajBGoe2JOhch-35">
          <mxGeometry relative="1" as="geometry">
            <Array as="points">
              <mxPoint x="420" y="1170" />
            </Array>
          </mxGeometry>
        </mxCell>
        <mxCell id="auQ4mcYpajBGoe2JOhch-105" value="&amp;lt;&amp;lt;Task&amp;gt;&amp;gt;&lt;br style=&quot;font-size: 14px;&quot;&gt;アンプデータ制御" style="rounded=0;whiteSpace=wrap;html=1;fillColor=#f8cecc;strokeColor=#000000;strokeWidth=5;fontStyle=1;fontSize=14;" parent="auQ4mcYpajBGoe2JOhch-1" vertex="1">
          <mxGeometry x="390.5" y="320" width="120" height="60" as="geometry" />
        </mxCell>
        <mxCell id="auQ4mcYpajBGoe2JOhch-108" value="" style="endArrow=classic;html=1;fontColor=#FF3333;" parent="auQ4mcYpajBGoe2JOhch-1" edge="1">
          <mxGeometry width="50" height="50" relative="1" as="geometry">
            <mxPoint x="692.25" y="625" as="sourcePoint" />
            <mxPoint x="692" y="555" as="targetPoint" />
          </mxGeometry>
        </mxCell>
        <mxCell id="auQ4mcYpajBGoe2JOhch-109" style="edgeStyle=orthogonalEdgeStyle;rounded=0;orthogonalLoop=1;jettySize=auto;html=1;startArrow=box;startFill=0;endArrow=box;endFill=0;" parent="auQ4mcYpajBGoe2JOhch-1" source="auQ4mcYpajBGoe2JOhch-111" edge="1">
          <mxGeometry relative="1" as="geometry">
            <mxPoint x="980" y="472" as="targetPoint" />
          </mxGeometry>
        </mxCell>
        <mxCell id="auQ4mcYpajBGoe2JOhch-110" style="edgeStyle=orthogonalEdgeStyle;rounded=0;orthogonalLoop=1;jettySize=auto;html=1;entryX=0.75;entryY=0;entryDx=0;entryDy=0;startArrow=box;startFill=0;endArrow=box;endFill=0;" parent="auQ4mcYpajBGoe2JOhch-1" source="auQ4mcYpajBGoe2JOhch-111" target="auQ4mcYpajBGoe2JOhch-35" edge="1">
          <mxGeometry relative="1" as="geometry">
            <Array as="points">
              <mxPoint x="755" y="910" />
            </Array>
          </mxGeometry>
        </mxCell>
        <mxCell id="auQ4mcYpajBGoe2JOhch-111" value="&amp;lt;&amp;lt;Task&amp;gt;&amp;gt;&lt;br&gt;EM&lt;br style=&quot;font-size: 14px&quot;&gt;EMコマンド解析" style="rounded=0;whiteSpace=wrap;html=1;fillColor=#fff2cc;strokeColor=#0000FF;strokeWidth=5;fontStyle=1;fontSize=14;" parent="auQ4mcYpajBGoe2JOhch-1" vertex="1">
          <mxGeometry x="920" y="860" width="120" height="60" as="geometry" />
        </mxCell>
        <mxCell id="auQ4mcYpajBGoe2JOhch-112" value="" style="endArrow=classic;html=1;fontColor=#FF3333;" parent="auQ4mcYpajBGoe2JOhch-1" edge="1">
          <mxGeometry width="50" height="50" relative="1" as="geometry">
            <mxPoint x="690.5" y="1050" as="sourcePoint" />
            <mxPoint x="690" y="1105" as="targetPoint" />
          </mxGeometry>
        </mxCell>
        <mxCell id="auQ4mcYpajBGoe2JOhch-113" value="" style="endArrow=classic;html=1;fontColor=#FF3333;" parent="auQ4mcYpajBGoe2JOhch-1" edge="1">
          <mxGeometry width="50" height="50" relative="1" as="geometry">
            <mxPoint x="545" y="1160" as="sourcePoint" />
            <mxPoint x="545" y="1160" as="targetPoint" />
          </mxGeometry>
        </mxCell>
        <mxCell id="auQ4mcYpajBGoe2JOhch-114" value="" style="endArrow=classic;html=1;fontColor=#FF3333;" parent="auQ4mcYpajBGoe2JOhch-1" edge="1">
          <mxGeometry width="50" height="50" relative="1" as="geometry">
            <mxPoint x="455" y="1160" as="sourcePoint" />
            <mxPoint x="455" y="1160" as="targetPoint" />
          </mxGeometry>
        </mxCell>
        <mxCell id="auQ4mcYpajBGoe2JOhch-115" value="通信エラー情報取得・設定・クリア" style="edgeLabel;html=1;align=center;verticalAlign=middle;resizable=0;points=[];" parent="auQ4mcYpajBGoe2JOhch-1" vertex="1" connectable="0">
          <mxGeometry x="822.75" y="1250" as="geometry" />
        </mxCell>
        <mxCell id="auQ4mcYpajBGoe2JOhch-116" value="" style="endArrow=classic;html=1;fontColor=#FF3333;" parent="auQ4mcYpajBGoe2JOhch-1" edge="1">
          <mxGeometry width="50" height="50" relative="1" as="geometry">
            <mxPoint x="860.5" y="1240.5" as="sourcePoint" />
            <mxPoint x="785" y="1240" as="targetPoint" />
          </mxGeometry>
        </mxCell>
        <mxCell id="auQ4mcYpajBGoe2JOhch-117" value="アンプ生存結果更新" style="edgeLabel;html=1;align=center;verticalAlign=middle;resizable=0;points=[];rotation=90;" parent="auQ4mcYpajBGoe2JOhch-1" vertex="1" connectable="0">
          <mxGeometry x="775.0000023950661" y="1080" as="geometry">
            <mxPoint x="-17" y="0.999999999999999" as="offset" />
          </mxGeometry>
        </mxCell>
        <mxCell id="auQ4mcYpajBGoe2JOhch-118" value="" style="endArrow=classic;html=1;fontColor=#FF3333;" parent="auQ4mcYpajBGoe2JOhch-1" edge="1">
          <mxGeometry width="50" height="50" relative="1" as="geometry">
            <mxPoint x="760.5" y="1052.5" as="sourcePoint" />
            <mxPoint x="760" y="1107.5" as="targetPoint" />
          </mxGeometry>
        </mxCell>
        <mxCell id="auQ4mcYpajBGoe2JOhch-122" value="パニックエラー時&lt;br&gt;LED制御" style="text;html=1;align=center;verticalAlign=middle;resizable=0;points=[];autosize=1;fontColor=#000000;rotation=90;" parent="auQ4mcYpajBGoe2JOhch-1" vertex="1">
          <mxGeometry x="207" y="615" width="110" height="30" as="geometry" />
        </mxCell>
        <mxCell id="auQ4mcYpajBGoe2JOhch-123" value="INデータ登録" style="text;html=1;align=center;verticalAlign=middle;resizable=0;points=[];autosize=1;rotation=90;" parent="auQ4mcYpajBGoe2JOhch-1" vertex="1">
          <mxGeometry x="1340" y="670" width="90" height="20" as="geometry" />
        </mxCell>
        <mxCell id="auQ4mcYpajBGoe2JOhch-124" value="&amp;lt;&amp;lt;Semaphore&amp;gt;&amp;gt;&lt;br&gt;TDL OUTデータ" style="rounded=0;whiteSpace=wrap;html=1;strokeColor=#0000FF;strokeWidth=5;" parent="auQ4mcYpajBGoe2JOhch-1" vertex="1">
          <mxGeometry x="1232.5" y="490" width="115" height="60" as="geometry" />
        </mxCell>
        <mxCell id="auQ4mcYpajBGoe2JOhch-125" style="edgeStyle=orthogonalEdgeStyle;rounded=0;orthogonalLoop=1;jettySize=auto;html=1;startArrow=box;startFill=0;endArrow=box;endFill=0;fontColor=#FF0000;entryX=0.5;entryY=0;entryDx=0;entryDy=0;exitX=1;exitY=0.5;exitDx=0;exitDy=0;" parent="auQ4mcYpajBGoe2JOhch-1" source="auQ4mcYpajBGoe2JOhch-79" target="auQ4mcYpajBGoe2JOhch-124" edge="1">
          <mxGeometry relative="1" as="geometry">
            <mxPoint x="1300" y="560" as="targetPoint" />
            <mxPoint x="1300" y="870" as="sourcePoint" />
          </mxGeometry>
        </mxCell>
        <mxCell id="auQ4mcYpajBGoe2JOhch-126" value="OUTデータ取得" style="text;html=1;align=center;verticalAlign=middle;resizable=0;points=[];autosize=1;fontColor=#000000;rotation=0;fontStyle=0" parent="auQ4mcYpajBGoe2JOhch-1" vertex="1">
          <mxGeometry x="1180" y="448" width="100" height="20" as="geometry" />
        </mxCell>
        <mxCell id="auQ4mcYpajBGoe2JOhch-127" value="" style="endArrow=classic;html=1;fontColor=#FF3333;" parent="auQ4mcYpajBGoe2JOhch-1" edge="1">
          <mxGeometry width="50" height="50" relative="1" as="geometry">
            <mxPoint x="1189" y="446" as="sourcePoint" />
            <mxPoint x="1269" y="446" as="targetPoint" />
          </mxGeometry>
        </mxCell>
        <mxCell id="auQ4mcYpajBGoe2JOhch-129" value="" style="endArrow=classic;html=1;fontColor=#FF3333;" parent="auQ4mcYpajBGoe2JOhch-1" edge="1">
          <mxGeometry width="50" height="50" relative="1" as="geometry">
            <mxPoint x="517" y="577" as="sourcePoint" />
            <mxPoint x="607" y="577" as="targetPoint" />
          </mxGeometry>
        </mxCell>
        <mxCell id="auQ4mcYpajBGoe2JOhch-130" value="本体設定書き込み&lt;br&gt;本体設定読出しリクエスト" style="text;html=1;align=center;verticalAlign=middle;resizable=0;points=[];autosize=1;" parent="auQ4mcYpajBGoe2JOhch-1" vertex="1">
          <mxGeometry x="995" y="790" width="160" height="30" as="geometry" />
        </mxCell>
        <mxCell id="auQ4mcYpajBGoe2JOhch-131" value="" style="endArrow=classic;html=1;fontColor=#FF3333;" parent="auQ4mcYpajBGoe2JOhch-1" edge="1">
          <mxGeometry width="50" height="50" relative="1" as="geometry">
            <mxPoint x="1120" y="820.17" as="sourcePoint" />
            <mxPoint x="1030" y="820" as="targetPoint" />
          </mxGeometry>
        </mxCell>
        <mxCell id="auQ4mcYpajBGoe2JOhch-135" style="edgeStyle=orthogonalEdgeStyle;rounded=0;orthogonalLoop=1;jettySize=auto;html=1;startArrow=box;startFill=0;endArrow=box;endFill=0;fontColor=#FF0000;entryX=0.167;entryY=0.985;entryDx=0;entryDy=0;entryPerimeter=0;" parent="auQ4mcYpajBGoe2JOhch-1" source="auQ4mcYpajBGoe2JOhch-140" target="auQ4mcYpajBGoe2JOhch-37" edge="1">
          <mxGeometry relative="1" as="geometry" />
        </mxCell>
        <mxCell id="auQ4mcYpajBGoe2JOhch-136" style="edgeStyle=orthogonalEdgeStyle;rounded=0;orthogonalLoop=1;jettySize=auto;html=1;startArrow=box;startFill=0;endArrow=box;endFill=0;fontColor=#FF0000;entryX=0.112;entryY=1.02;entryDx=0;entryDy=0;entryPerimeter=0;exitX=0;exitY=0.25;exitDx=0;exitDy=0;" parent="auQ4mcYpajBGoe2JOhch-1" source="auQ4mcYpajBGoe2JOhch-140" target="auQ4mcYpajBGoe2JOhch-111" edge="1">
          <mxGeometry relative="1" as="geometry" />
        </mxCell>
        <mxCell id="auQ4mcYpajBGoe2JOhch-137" style="edgeStyle=orthogonalEdgeStyle;rounded=0;orthogonalLoop=1;jettySize=auto;html=1;startArrow=box;startFill=0;endArrow=box;endFill=0;fontColor=#FF0000;entryX=0.894;entryY=1.031;entryDx=0;entryDy=0;entryPerimeter=0;exitX=0.358;exitY=-0.003;exitDx=0;exitDy=0;exitPerimeter=0;" parent="auQ4mcYpajBGoe2JOhch-1" source="auQ4mcYpajBGoe2JOhch-140" target="auQ4mcYpajBGoe2JOhch-67" edge="1">
          <mxGeometry relative="1" as="geometry" />
        </mxCell>
        <mxCell id="auQ4mcYpajBGoe2JOhch-138" style="edgeStyle=orthogonalEdgeStyle;rounded=0;orthogonalLoop=1;jettySize=auto;html=1;entryX=0.095;entryY=0.985;entryDx=0;entryDy=0;startArrow=box;startFill=0;endArrow=box;endFill=0;fontColor=#FF0000;entryPerimeter=0;exitX=0.75;exitY=0;exitDx=0;exitDy=0;" parent="auQ4mcYpajBGoe2JOhch-1" target="auQ4mcYpajBGoe2JOhch-21" edge="1" source="auQ4mcYpajBGoe2JOhch-140">
          <mxGeometry relative="1" as="geometry">
            <mxPoint x="1271" y="1238" as="sourcePoint" />
          </mxGeometry>
        </mxCell>
        <mxCell id="auQ4mcYpajBGoe2JOhch-139" style="edgeStyle=orthogonalEdgeStyle;rounded=0;orthogonalLoop=1;jettySize=auto;html=1;startArrow=box;startFill=0;endArrow=box;endFill=0;fontColor=#FF0000;entryX=0.917;entryY=1.02;entryDx=0;entryDy=0;entryPerimeter=0;" parent="auQ4mcYpajBGoe2JOhch-1" source="auQ4mcYpajBGoe2JOhch-140" target="auQ4mcYpajBGoe2JOhch-12" edge="1">
          <mxGeometry relative="1" as="geometry" />
        </mxCell>
        <mxCell id="auQ4mcYpajBGoe2JOhch-140" value="&amp;lt;&amp;lt;Task&amp;gt;&amp;gt;&lt;br&gt;Eventlog&lt;br&gt;イベントログ" style="rounded=0;whiteSpace=wrap;html=1;fillColor=#fff2cc;strokeColor=#0000FF;strokeWidth=5;fontStyle=1;fontSize=14;" parent="auQ4mcYpajBGoe2JOhch-1" vertex="1">
          <mxGeometry x="1162" y="1262" width="120" height="60" as="geometry" />
        </mxCell>
        <mxCell id="auQ4mcYpajBGoe2JOhch-141" value="EventLog登録・読出し&lt;br&gt;リクエスト" style="text;html=1;align=center;verticalAlign=middle;resizable=0;points=[];autosize=1;rotation=90;" parent="auQ4mcYpajBGoe2JOhch-1" vertex="1">
          <mxGeometry x="889" y="1130" width="140" height="30" as="geometry" />
        </mxCell>
        <mxCell id="auQ4mcYpajBGoe2JOhch-142" value="" style="endArrow=classic;html=1;fontColor=#FF3333;" parent="auQ4mcYpajBGoe2JOhch-1" edge="1">
          <mxGeometry width="50" height="50" relative="1" as="geometry">
            <mxPoint x="939.4999999999998" y="1092.4999999999998" as="sourcePoint" />
            <mxPoint x="939" y="1147.4999999999998" as="targetPoint" />
          </mxGeometry>
        </mxCell>
        <mxCell id="auQ4mcYpajBGoe2JOhch-143" value="" style="endArrow=classic;html=1;fontColor=#FF3333;" parent="auQ4mcYpajBGoe2JOhch-1" edge="1">
          <mxGeometry width="50" height="50" relative="1" as="geometry">
            <mxPoint x="1537.9999999999998" y="1144.9999999999998" as="sourcePoint" />
            <mxPoint x="1537.5" y="1199.9999999999998" as="targetPoint" />
          </mxGeometry>
        </mxCell>
        <mxCell id="auQ4mcYpajBGoe2JOhch-144" value="EventLog登録・読出し&lt;br&gt;リクエスト" style="text;html=1;align=center;verticalAlign=middle;resizable=0;points=[];autosize=1;rotation=90;" parent="auQ4mcYpajBGoe2JOhch-1" vertex="1">
          <mxGeometry x="1487.5" y="1157.5" width="140" height="30" as="geometry" />
        </mxCell>
        <mxCell id="auQ4mcYpajBGoe2JOhch-145" value="EventLog情報保存&lt;br&gt;リクエスト" style="text;html=1;align=center;verticalAlign=middle;resizable=0;points=[];autosize=1;rotation=0;" parent="auQ4mcYpajBGoe2JOhch-1" vertex="1">
          <mxGeometry x="774" y="1305" width="110" height="30" as="geometry" />
        </mxCell>
        <mxCell id="auQ4mcYpajBGoe2JOhch-146" value="" style="endArrow=classic;html=1;fontColor=#FF3333;" parent="auQ4mcYpajBGoe2JOhch-1" edge="1">
          <mxGeometry width="50" height="50" relative="1" as="geometry">
            <mxPoint x="860.4999999999998" y="1300.5000000000002" as="sourcePoint" />
            <mxPoint x="785" y="1299.9999999999998" as="targetPoint" />
          </mxGeometry>
        </mxCell>
        <mxCell id="auQ4mcYpajBGoe2JOhch-147" style="edgeStyle=orthogonalEdgeStyle;rounded=0;orthogonalLoop=1;jettySize=auto;html=1;entryX=0.5;entryY=1;entryDx=0;entryDy=0;" parent="auQ4mcYpajBGoe2JOhch-1" source="auQ4mcYpajBGoe2JOhch-148" target="auQ4mcYpajBGoe2JOhch-26" edge="1">
          <mxGeometry relative="1" as="geometry" />
        </mxCell>
        <mxCell id="auQ4mcYpajBGoe2JOhch-148" value="&amp;lt;&amp;lt;Interrupt&amp;gt;&amp;gt;&lt;br&gt;SDAI処理完了CB" style="rounded=0;whiteSpace=wrap;html=1;strokeColor=#0000FF;strokeWidth=5;" parent="auQ4mcYpajBGoe2JOhch-1" vertex="1">
          <mxGeometry x="1000" y="1169" width="120" height="37.5" as="geometry" />
        </mxCell>
        <mxCell id="Btkslah-GqekgVZT_S36-3" style="edgeStyle=orthogonalEdgeStyle;rounded=0;orthogonalLoop=1;jettySize=auto;html=1;entryX=0;entryY=0.5;entryDx=0;entryDy=0;fontSize=20;startArrow=box;startFill=0;endArrow=box;endFill=0;" edge="1" parent="auQ4mcYpajBGoe2JOhch-1" source="Btkslah-GqekgVZT_S36-0" target="Btkslah-GqekgVZT_S36-2">
          <mxGeometry relative="1" as="geometry" />
        </mxCell>
        <mxCell id="Btkslah-GqekgVZT_S36-0" value="&lt;span style=&quot;font-size: 14px ; font-weight: 700&quot;&gt;&amp;lt;&amp;lt;Task&amp;gt;&amp;gt;&lt;/span&gt;&lt;br style=&quot;font-size: 14px ; font-weight: 700&quot;&gt;&lt;span style=&quot;font-size: 14px ; font-weight: 700&quot;&gt;UnitPosProcessMgr&lt;/span&gt;&lt;br style=&quot;font-size: 14px ; font-weight: 700&quot;&gt;&lt;span style=&quot;font-size: 14px ; font-weight: 700&quot;&gt;後段処理管理&lt;/span&gt;" style="rounded=0;whiteSpace=wrap;html=1;fillColor=#dae8fc;strokeColor=#000000;strokeWidth=5;" vertex="1" parent="auQ4mcYpajBGoe2JOhch-1">
          <mxGeometry x="847.5" y="249.99999999999997" width="155" height="60" as="geometry" />
        </mxCell>
        <mxCell id="Btkslah-GqekgVZT_S36-2" value="&amp;lt;&amp;lt;Interface&amp;gt;&amp;gt;&lt;br&gt;ロギングデータ保存制御" style="rounded=0;whiteSpace=wrap;html=1;fillColor=#dae8fc;strokeColor=#000000;strokeWidth=5;" vertex="1" parent="auQ4mcYpajBGoe2JOhch-1">
          <mxGeometry x="1112.5" y="250" width="120" height="60" as="geometry" />
        </mxCell>
        <mxCell id="Btkslah-GqekgVZT_S36-6" value="&lt;span style=&quot;font-family: &amp;#34;helvetica&amp;#34;&quot;&gt;ロギングデータ&lt;/span&gt;&lt;br style=&quot;font-family: &amp;#34;helvetica&amp;#34;&quot;&gt;&lt;span style=&quot;font-family: &amp;#34;helvetica&amp;#34;&quot;&gt;読出し&lt;/span&gt;" style="text;html=1;align=center;verticalAlign=middle;resizable=0;points=[];autosize=1;" vertex="1" parent="auQ4mcYpajBGoe2JOhch-1">
          <mxGeometry x="1012.5" y="300" width="100" height="30" as="geometry" />
        </mxCell>
        <mxCell id="Btkslah-GqekgVZT_S36-7" value="&lt;span style=&quot;font-family: &amp;#34;helvetica&amp;#34;&quot;&gt;ロギングデータ&lt;/span&gt;&lt;br style=&quot;font-family: &amp;#34;helvetica&amp;#34;&quot;&gt;&lt;span style=&quot;font-family: &amp;#34;helvetica&amp;#34;&quot;&gt;書き込み&lt;/span&gt;" style="text;html=1;align=center;verticalAlign=middle;resizable=0;points=[];autosize=1;" vertex="1" parent="auQ4mcYpajBGoe2JOhch-1">
          <mxGeometry x="1010" y="230.70999999999998" width="100" height="30" as="geometry" />
        </mxCell>
        <mxCell id="Btkslah-GqekgVZT_S36-8" value="" style="endArrow=classic;html=1;fontColor=#FF3333;" edge="1" parent="auQ4mcYpajBGoe2JOhch-1">
          <mxGeometry width="50" height="50" relative="1" as="geometry">
            <mxPoint x="1020" y="270" as="sourcePoint" />
            <mxPoint x="1090" y="270" as="targetPoint" />
          </mxGeometry>
        </mxCell>
        <mxCell id="WjLrdkKy4gAfx3s70ggJ-3" style="edgeStyle=orthogonalEdgeStyle;rounded=0;orthogonalLoop=1;jettySize=auto;html=1;entryX=0;entryY=0.5;entryDx=0;entryDy=0;fontSize=20;startArrow=box;startFill=0;endArrow=box;endFill=0;" edge="1" parent="auQ4mcYpajBGoe2JOhch-1" source="WjLrdkKy4gAfx3s70ggJ-1" target="Btkslah-GqekgVZT_S36-0">
          <mxGeometry relative="1" as="geometry" />
        </mxCell>
        <mxCell id="WjLrdkKy4gAfx3s70ggJ-1" value="&lt;span style=&quot;font-weight: normal&quot;&gt;&amp;lt;&amp;lt;Interface&amp;gt;&amp;gt;&lt;br style=&quot;font-size: 14px&quot;&gt;IOControl&lt;br&gt;入出力制御&lt;/span&gt;" style="rounded=0;whiteSpace=wrap;html=1;fillColor=#dae8fc;strokeColor=#000000;strokeWidth=5;fontStyle=1;fontSize=14;" vertex="1" parent="auQ4mcYpajBGoe2JOhch-1">
          <mxGeometry x="640" y="249.99999999999997" width="120" height="60" as="geometry" />
        </mxCell>
        <mxCell id="WjLrdkKy4gAfx3s70ggJ-5" value="IO入力情報取得" style="text;html=1;align=center;verticalAlign=middle;resizable=0;points=[];autosize=1;" vertex="1" parent="auQ4mcYpajBGoe2JOhch-1">
          <mxGeometry x="525" y="250" width="100" height="20" as="geometry" />
        </mxCell>
        <mxCell id="WjLrdkKy4gAfx3s70ggJ-6" value="" style="endArrow=classic;html=1;fontColor=#FF3333;" edge="1" parent="auQ4mcYpajBGoe2JOhch-1">
          <mxGeometry width="50" height="50" relative="1" as="geometry">
            <mxPoint x="545" y="270" as="sourcePoint" />
            <mxPoint x="620" y="270" as="targetPoint" />
          </mxGeometry>
        </mxCell>
        <mxCell id="WjLrdkKy4gAfx3s70ggJ-7" value="判定結果&lt;br&gt;出力反映" style="text;html=1;align=center;verticalAlign=middle;resizable=0;points=[];autosize=1;" vertex="1" parent="auQ4mcYpajBGoe2JOhch-1">
          <mxGeometry x="774" y="240" width="60" height="30" as="geometry" />
        </mxCell>
        <mxCell id="WjLrdkKy4gAfx3s70ggJ-8" value="" style="endArrow=classic;html=1;fontColor=#FF3333;" edge="1" parent="auQ4mcYpajBGoe2JOhch-1">
          <mxGeometry width="50" height="50" relative="1" as="geometry">
            <mxPoint x="834" y="270" as="sourcePoint" />
            <mxPoint x="774" y="270" as="targetPoint" />
          </mxGeometry>
        </mxCell>
        <mxCell id="WjLrdkKy4gAfx3s70ggJ-9" value="接続台数分&lt;br&gt;PVデータ&lt;br&gt;セット" style="text;html=1;align=center;verticalAlign=middle;resizable=0;points=[];autosize=1;rotation=90;" vertex="1" parent="auQ4mcYpajBGoe2JOhch-1">
          <mxGeometry x="836" y="340" width="80" height="50" as="geometry" />
        </mxCell>
        <mxCell id="WjLrdkKy4gAfx3s70ggJ-10" value="" style="endArrow=classic;html=1;fontColor=#FF3333;" edge="1" parent="auQ4mcYpajBGoe2JOhch-1">
          <mxGeometry width="50" height="50" relative="1" as="geometry">
            <mxPoint x="940" y="330" as="sourcePoint" />
            <mxPoint x="940" y="396" as="targetPoint" />
          </mxGeometry>
        </mxCell>
        <mxCell id="WjLrdkKy4gAfx3s70ggJ-13" value="" style="endArrow=classic;html=1;fontColor=#FF3333;" edge="1" parent="auQ4mcYpajBGoe2JOhch-1">
          <mxGeometry width="50" height="50" relative="1" as="geometry">
            <mxPoint x="910" y="396.25" as="sourcePoint" />
            <mxPoint x="910" y="326.25" as="targetPoint" />
          </mxGeometry>
        </mxCell>
        <mxCell id="WjLrdkKy4gAfx3s70ggJ-14" value="Message&lt;br&gt;後段処理&lt;br&gt;結果通知" style="text;html=1;align=center;verticalAlign=middle;resizable=0;points=[];autosize=1;fontStyle=1;rotation=90;" vertex="1" parent="auQ4mcYpajBGoe2JOhch-1">
          <mxGeometry x="932.5" y="340" width="70" height="50" as="geometry" />
        </mxCell>
        <mxCell id="WjLrdkKy4gAfx3s70ggJ-16" style="edgeStyle=orthogonalEdgeStyle;rounded=0;orthogonalLoop=1;jettySize=auto;html=1;entryX=0.25;entryY=0;entryDx=0;entryDy=0;fontSize=20;startArrow=none;startFill=0;endArrow=classic;endFill=1;" edge="1" parent="auQ4mcYpajBGoe2JOhch-1" source="WjLrdkKy4gAfx3s70ggJ-15" target="auQ4mcYpajBGoe2JOhch-105">
          <mxGeometry relative="1" as="geometry" />
        </mxCell>
        <mxCell id="WjLrdkKy4gAfx3s70ggJ-15" value="&amp;lt;&amp;lt;Interrupt&amp;gt;&amp;gt;&lt;br&gt;10ms周期&lt;br&gt;タイマー割り込み&lt;br&gt;アンプ間通信LED制御" style="rounded=0;whiteSpace=wrap;html=1;fillColor=#FFFFFF;strokeColor=#000000;strokeWidth=5;fontColor=#333333;" vertex="1" parent="auQ4mcYpajBGoe2JOhch-1">
          <mxGeometry x="10.5" y="240" width="135" height="60" as="geometry" />
        </mxCell>
        <mxCell id="WjLrdkKy4gAfx3s70ggJ-17" value="" style="endArrow=classic;html=1;fontColor=#FF3333;" edge="1" parent="auQ4mcYpajBGoe2JOhch-1">
          <mxGeometry width="50" height="50" relative="1" as="geometry">
            <mxPoint x="287.25" y="665" as="sourcePoint" />
            <mxPoint x="287" y="595" as="targetPoint" />
          </mxGeometry>
        </mxCell>
        <mxCell id="auQ4mcYpajBGoe2JOhch-128" value="バックアップデータ書き込み&lt;br&gt;リストアデータ読出し" style="text;html=1;align=center;verticalAlign=middle;resizable=0;points=[];autosize=1;" parent="auQ4mcYpajBGoe2JOhch-1" vertex="1">
          <mxGeometry x="455" y="585" width="170" height="30" as="geometry" />
        </mxCell>
        <mxCell id="WjLrdkKy4gAfx3s70ggJ-23" value="アンプ間通信状態" style="text;html=1;align=center;verticalAlign=middle;resizable=0;points=[];autosize=1;" vertex="1" parent="auQ4mcYpajBGoe2JOhch-1">
          <mxGeometry x="458" y="1180" width="110" height="20" as="geometry" />
        </mxCell>
        <mxCell id="WjLrdkKy4gAfx3s70ggJ-24" value="アンプ間通信状態取得" style="text;html=1;align=center;verticalAlign=middle;resizable=0;points=[];autosize=1;" vertex="1" parent="auQ4mcYpajBGoe2JOhch-1">
          <mxGeometry x="443" y="1140" width="140" height="20" as="geometry" />
        </mxCell>
        <mxCell id="WjLrdkKy4gAfx3s70ggJ-25" value="" style="endArrow=classic;html=1;fontColor=#FF3333;" edge="1" parent="auQ4mcYpajBGoe2JOhch-1">
          <mxGeometry width="50" height="50" relative="1" as="geometry">
            <mxPoint x="474.5" y="1160" as="sourcePoint" />
            <mxPoint x="564.5" y="1160" as="targetPoint" />
          </mxGeometry>
        </mxCell>
        <mxCell id="WjLrdkKy4gAfx3s70ggJ-26" value="" style="endArrow=classic;html=1;fontColor=#FF3333;" edge="1" parent="auQ4mcYpajBGoe2JOhch-1">
          <mxGeometry width="50" height="50" relative="1" as="geometry">
            <mxPoint x="562" y="1180" as="sourcePoint" />
            <mxPoint x="467" y="1180" as="targetPoint" />
          </mxGeometry>
        </mxCell>
        <mxCell id="WjLrdkKy4gAfx3s70ggJ-28" value="通信エラー結果反映" style="text;html=1;align=center;verticalAlign=middle;resizable=0;points=[];autosize=1;" vertex="1" parent="auQ4mcYpajBGoe2JOhch-1">
          <mxGeometry x="950" y="180" width="120" height="20" as="geometry" />
        </mxCell>
        <mxCell id="WjLrdkKy4gAfx3s70ggJ-29" value="" style="endArrow=classic;html=1;fontColor=#FF3333;" edge="1" parent="auQ4mcYpajBGoe2JOhch-1">
          <mxGeometry width="50" height="50" relative="1" as="geometry">
            <mxPoint x="1055" y="200" as="sourcePoint" />
            <mxPoint x="965" y="200" as="targetPoint" />
          </mxGeometry>
        </mxCell>
        <mxCell id="WjLrdkKy4gAfx3s70ggJ-31" style="edgeStyle=orthogonalEdgeStyle;rounded=0;orthogonalLoop=1;jettySize=auto;html=1;fontSize=20;startArrow=none;startFill=0;endArrow=classic;endFill=1;" edge="1" parent="auQ4mcYpajBGoe2JOhch-1" source="WjLrdkKy4gAfx3s70ggJ-32" target="auQ4mcYpajBGoe2JOhch-12">
          <mxGeometry relative="1" as="geometry">
            <mxPoint x="1905.5" y="939.5" as="targetPoint" />
          </mxGeometry>
        </mxCell>
        <mxCell id="WjLrdkKy4gAfx3s70ggJ-32" value="&amp;lt;&amp;lt;Interrupt&amp;gt;&amp;gt;&lt;br&gt;10ms周期&lt;br&gt;タイマー割り込み&lt;br&gt;EIP通信状態LED制御" style="rounded=0;whiteSpace=wrap;html=1;fillColor=#FFFFFF;strokeColor=#000000;strokeWidth=5;fontColor=#333333;" vertex="1" parent="auQ4mcYpajBGoe2JOhch-1">
          <mxGeometry x="1620" y="859.5" width="120" height="60" as="geometry" />
        </mxCell>
        <mxCell id="WjLrdkKy4gAfx3s70ggJ-34" value="" style="endArrow=classic;html=1;fontColor=#FF3333;" edge="1" parent="auQ4mcYpajBGoe2JOhch-1">
          <mxGeometry width="50" height="50" relative="1" as="geometry">
            <mxPoint x="789.5" y="1220.5" as="sourcePoint" />
            <mxPoint x="880" y="1220" as="targetPoint" />
          </mxGeometry>
        </mxCell>
        <mxCell id="WjLrdkKy4gAfx3s70ggJ-35" value="通信エラー情報" style="text;html=1;align=center;verticalAlign=middle;resizable=0;points=[];autosize=1;" vertex="1" parent="auQ4mcYpajBGoe2JOhch-1">
          <mxGeometry x="789" y="1200" width="100" height="20" as="geometry" />
        </mxCell>
        <mxCell id="WjLrdkKy4gAfx3s70ggJ-39" style="edgeStyle=orthogonalEdgeStyle;rounded=0;orthogonalLoop=1;jettySize=auto;html=1;entryX=1;entryY=0;entryDx=0;entryDy=0;fontSize=20;startArrow=none;startFill=0;endArrow=classicThin;endFill=1;exitX=0.5;exitY=1;exitDx=0;exitDy=0;" edge="1" parent="auQ4mcYpajBGoe2JOhch-1" source="WjLrdkKy4gAfx3s70ggJ-37" target="auQ4mcYpajBGoe2JOhch-79">
          <mxGeometry relative="1" as="geometry">
            <Array as="points">
              <mxPoint x="1113" y="411" />
            </Array>
          </mxGeometry>
        </mxCell>
        <mxCell id="WjLrdkKy4gAfx3s70ggJ-37" value="&amp;lt;&amp;lt;Interrupt&amp;gt;&amp;gt;&lt;br&gt;100ms周期&lt;br&gt;タイマー割り込み&lt;br&gt;アンプ生存確認" style="rounded=0;whiteSpace=wrap;html=1;fillColor=#FFFFFF;strokeColor=#000000;strokeWidth=5;fontColor=#333333;" vertex="1" parent="auQ4mcYpajBGoe2JOhch-1">
          <mxGeometry x="1045" y="335" width="135" height="60" as="geometry" />
        </mxCell>
      </root>
    </mxGraphModel>
  </diagram>
</mxfile>
